M48
;Layer_Color=9474304
;FILE_FORMAT=2:4
INCH
;TYPE=PLATED
T1F00S00C0.0280
T2F00S00C0.0300
T3F00S00C0.0315
T4F00S00C0.0335
T5F00S00C0.0354
T6F00S00C0.0400
T7F00S00C0.0433
T8F00S00C0.0787
%
T01
X-026350Y000850
X-021400Y016000
X-014250Y019250
X-013200Y019000
X-010600Y018100
X-008500Y014600
T02
X-026250Y021500
Y022500
X-025000
Y021500
X-023750
Y022500
X-022500
Y021500
X-012500Y022500
X-011250
X-010000
X-008750
T03
X-007484Y005900
X-005516
Y007900
X-003984Y007900
X-002016
X-007484Y007900
X-011000Y008916
X-014500Y007884
X-014500Y005916
X-017216Y006400
Y007600
X-019184
Y006400
Y005000
X-017216
X-018600Y003584
Y001616
X-024000Y004416
Y006384
X-026500
Y004416
X-025884Y012700
X-023916Y012700
X-023796Y015310
X-025764
X-027840Y017416
X-027840Y019384
X-025184Y020400
X-023216
X-021384Y019400
X-019416Y019400
X-018500Y015984
Y014016
X-013194Y016560
X-011226
X-010000Y015384
X-010000Y013416
X-007908Y013600
X-011000Y010884
X-010544Y019320
X-008576Y019320
X-012216Y020200
X-014184Y020200
X-015016Y022500
X-016984Y022500
X-007500Y021474
Y019506
X-006900Y018484
X-006900Y016516
X-005940Y013600
X-004984Y020800
X-003016
X-000990Y020134
X-000990Y018166
T04
X-007520Y000900
X-005000Y002400
Y003400
Y004400
X-004000Y004900
X-003000
X-002000
X-001000Y005300
X-001300Y006100
X-004300
X-004000Y001900
X-003000
X-002000
X-001000Y002300
X-008000Y002400
Y003400
Y004400
X-009000Y005400
X-010000Y006500
Y007400
X-009000Y008400
X-013000Y007400
Y006500
X-014330Y004460
X-014500Y003400
Y002400
Y001400
X-011500
Y002400
Y003400
X-011330Y004460
X-010520Y000900
X-016600Y000500
X-017400
Y003500
X-016600
X-020300Y004300
X-021200
X-022000
X-022800
Y007300
X-022000
X-021200
X-020300
X-020200Y008400
X-020100Y010000
X-023100
X-023200Y008400
X-022700Y001400
X-019700
X-023500Y003200
X-025000Y004400
X-027500
X-026500Y003200
X-027500Y007400
X-027600Y009700
X-026700
X-028500
X-025000Y007400
X-026700Y012700
X-027600
X-028500
X-027500Y016500
X-026500Y017900
Y018900
X-023500
Y017900
X-024500Y016500
X-023100Y013600
Y012700
Y011900
Y010900
X-020100
Y011900
Y012700
Y013600
X-019810Y014380
Y017380
X-017440Y017360
X-017410Y016560
X-017500Y015500
X-016500Y015400
X-015500
X-014500Y015500
X-013500
X-012500
X-011500
X-011400Y017800
X-008400
X-008360Y015750
X-011500Y012500
X-012500
X-013500
X-014500
X-015500Y012400
X-016500
X-017500Y012500
X-014410Y016560
X-014440Y017360
X-005500Y017500
Y018500
Y019500
X-006100Y021800
X-003100
X-002500Y019500
Y018500
Y017500
X-001500Y016400
Y015400
Y014400
Y013400
X-000700Y012000
Y015000
X-004500Y015400
Y016400
X-005360Y015750
X-004500Y014400
Y013400
T05
X-006398Y000800
X-003602
X-004000Y009400
X-005000
X-006000
X-007000
X-003000
X-008000
X-009000
X-012700Y008700
X-013700
X-014700
X-015700
X-016700
X-017700
X-018700
X-027300Y014000
X-028300
X-018700Y011700
X-017700
X-016700
X-015700
X-014700
X-013700
X-012700
X-009000Y012400
X-008000
X-015280Y018120
X-016280
X-017280
X-018280
Y021120
X-017280
X-016280
X-015280
X-007000Y012400
X-006000
X-005000
X-004000
X-003000
T06
X-019700Y003400
T07
X-000700Y008500
X-001000Y010500
X-009800Y001900
X-015400
Y000800
X-015890Y006310
X-020000Y002400
X-021200
X-024800Y008600
X-024200Y009800
X-025800Y010500
X-027000Y008300
X-024200Y010900
X-027100Y015400
X-028390Y016330
X-026400Y019800
X-022400Y019200
X-021600Y020800
X-023370Y016750
X-018790Y017240
X-018800Y012700
X-010000Y016400
X-009590Y020750
X-001460Y021090
X-002600Y022800
X-000590Y016880
T08
X-001000Y001000
X-028000
Y022500
X-001000
M30
