G04 Layer_Physical_Order=1*
G04 Layer_Color=255*
%FSLAX24Y24*%
%MOIN*%
%TF.FileFunction,Copper,L1,Top,Signal*%
%TF.Part,Single*%
G01*
G75*
%TA.AperFunction,SMDPad,CuDef*%
%ADD10R,0.0140X0.0200*%
%ADD11R,0.0315X0.0354*%
%ADD12R,0.0354X0.0315*%
%TA.AperFunction,Conductor*%
%ADD13C,0.0100*%
%TA.AperFunction,NonConductor*%
%ADD14C,0.0100*%
%TA.AperFunction,ViaPad*%
%ADD15C,0.1181*%
%ADD16C,0.0600*%
%TA.AperFunction,ComponentPad*%
%ADD17C,0.0551*%
%ADD18C,0.0827*%
%ADD19C,0.0700*%
%ADD20C,0.0600*%
%ADD21R,0.0531X0.0531*%
%ADD22C,0.0531*%
%ADD23R,0.0531X0.0531*%
%ADD24C,0.0591*%
%ADD25R,0.0591X0.0591*%
%ADD26R,0.0591X0.0591*%
%TA.AperFunction,ViaPad*%
%ADD27C,0.0500*%
D10*
X-27200Y1745D02*
D03*
X-27397Y2255D02*
D03*
X-27003D02*
D03*
X-25800Y1745D02*
D03*
X-25997Y2255D02*
D03*
X-25603D02*
D03*
X-24400Y1745D02*
D03*
X-24597Y2255D02*
D03*
X-24203D02*
D03*
X-25800Y13745D02*
D03*
X-25997Y14255D02*
D03*
X-25603D02*
D03*
X-12600Y17745D02*
D03*
X-12797Y18255D02*
D03*
X-12403D02*
D03*
X-13600Y17745D02*
D03*
X-13797Y18255D02*
D03*
X-13403D02*
D03*
D11*
X-15774Y3806D02*
D03*
X-15026D02*
D03*
X-15400Y4594D02*
D03*
X-21026Y18194D02*
D03*
X-21774D02*
D03*
X-21400Y17406D02*
D03*
D12*
X-9606Y3026D02*
D03*
Y3774D02*
D03*
X-10394Y3400D02*
D03*
X-21406Y14426D02*
D03*
Y15174D02*
D03*
X-22194Y14800D02*
D03*
D13*
X-4394Y6100D02*
Y8144D01*
Y6100D02*
X-4300D01*
X-5595Y9345D02*
X-4394Y8144D01*
X-5595Y9345D02*
Y9568D01*
X-6000Y9973D02*
X-5595Y9568D01*
X-6000Y9973D02*
Y12400D01*
X-7000Y13000D02*
Y14843D01*
X-5046Y12446D02*
X-5000Y12400D01*
X-5046Y12446D02*
Y13546D01*
X-5750Y14250D02*
X-5046Y13546D01*
X-6250Y14250D02*
X-5750D01*
X-6500Y14000D02*
X-6250Y14250D01*
X-6500Y13500D02*
Y14000D01*
X-7000Y13000D02*
X-6500Y13500D01*
X-7000Y12400D02*
Y13000D01*
X-6000Y12400D02*
Y13540D01*
X-5940Y13600D01*
X-4660Y13014D02*
X-4264D01*
X-4886Y13240D02*
Y13636D01*
X-7276Y16026D02*
X-4886Y13636D01*
X-4264Y13014D02*
X-4000Y12750D01*
X-4886Y13240D02*
X-4660Y13014D01*
X-4000Y12400D02*
Y12750D01*
X-7276Y16026D02*
Y16827D01*
X-4500Y13400D02*
X-3500Y14400D01*
X-4000Y12400D02*
X-2595Y10995D01*
X-4000Y12400D02*
X-3386Y13014D01*
X-17440Y17360D02*
X-17280Y17520D01*
Y18120D01*
X-16250Y19250D02*
X-14250D01*
X-16500Y19000D02*
X-16250Y19250D01*
X-16500Y18900D02*
Y19000D01*
X-17280Y18120D02*
X-16500Y18900D01*
X-15280Y18220D02*
X-14250Y19250D01*
X-15280Y18120D02*
Y18220D01*
X-23796Y15197D02*
Y15310D01*
X-25855Y13138D02*
X-23796Y15197D01*
X-16740Y3568D02*
Y3570D01*
X-16808Y3500D02*
X-16740Y3568D01*
X-20400Y4350D02*
X-20380D01*
X-20014Y3984D01*
Y3793D02*
Y3984D01*
X-26621Y2500D02*
X-26212D01*
X-26621Y1145D02*
Y2500D01*
X-24597Y2255D02*
Y2285D01*
X-11248Y14136D02*
X-10000Y15384D01*
X-17216Y5000D02*
X-16214Y3999D01*
X-26250Y22500D02*
X-22500D01*
X-9693Y17083D02*
X-7339Y14728D01*
X-6000Y8384D02*
X-5516Y7900D01*
X-24000Y3700D02*
X-23500Y3200D01*
X-13954Y12954D02*
X-12700Y11700D01*
X-23916Y12700D02*
X-20900D01*
X-20500Y14000D02*
X-19700Y13200D01*
X-13604Y16390D02*
Y17070D01*
X-12340Y15886D02*
X-11886Y15431D01*
X-14655Y18120D02*
X-13604Y17070D01*
X-11886Y15340D02*
Y15431D01*
Y15340D02*
X-11660Y15114D01*
X-15280Y18120D02*
X-14655D01*
X-13604Y16390D02*
X-13100Y15886D01*
X-10318Y15114D02*
X-10048Y15384D01*
X-11660Y15114D02*
X-10318D01*
X-10048Y15384D02*
X-10000D01*
X-13100Y15886D02*
X-12340D01*
X-11248Y13752D02*
Y14136D01*
X-12500Y12500D02*
X-11248Y13752D01*
X-28300Y14000D02*
X-27895Y14405D01*
X-26959D01*
X-26299Y13745D02*
X-25800D01*
X-26959Y14405D02*
X-26299Y13745D01*
X-27880Y14993D02*
X-26693D01*
X-28705Y14168D02*
X-27880Y14993D01*
X-28705Y13805D02*
X-27600Y12700D01*
X-28705Y13805D02*
Y14168D01*
X-25855Y12730D02*
Y13138D01*
X-25884Y12700D02*
X-25855Y12730D01*
X-26700Y12700D02*
X-25884D01*
X-26700Y12700D02*
X-26700Y12700D01*
X-27086Y12860D02*
X-26416Y13529D01*
X-25691D01*
X-25603Y13616D02*
Y14255D01*
X-28114Y12314D02*
X-27440D01*
X-25691Y13529D02*
X-25603Y13616D01*
X-27086Y12669D02*
Y12860D01*
X-27440Y12314D02*
X-27086Y12669D01*
X-26621Y1145D02*
X-26350Y874D01*
X-26212Y2500D02*
X-26000Y2288D01*
X-27003Y2255D02*
Y2285D01*
X-26350Y850D02*
Y874D01*
X-24777Y2465D02*
X-24597Y2285D01*
X-25817Y2465D02*
X-24777D01*
X-26000Y2282D02*
X-25817Y2465D01*
X-26000Y2258D02*
Y2288D01*
X-27003Y2285D02*
X-26788Y2500D01*
X-26621D01*
X-21200Y3726D02*
Y4300D01*
X-19539Y4645D02*
X-19184Y5000D01*
X-19821Y3600D02*
X-19700D01*
X-8700Y6500D02*
X-8100Y5900D01*
X-13194Y16560D02*
Y17309D01*
X-12059Y11941D02*
X-10960Y13040D01*
X-11091Y18100D02*
X-10600D01*
X-8577Y14523D02*
X-8500Y14600D01*
X-10656Y19104D02*
X-10560Y19200D01*
X-26250Y21500D02*
X-22500D01*
X-7339Y13087D02*
Y14728D01*
X-8892Y14523D02*
X-8577D01*
X-10000Y13416D02*
X-8892Y14523D01*
X-11560Y18186D02*
X-11177D01*
X-11091Y18100D01*
X-12000Y17745D02*
X-11560Y18186D01*
X-12600Y17745D02*
X-12000D01*
X-8746Y15355D02*
X-7498Y14108D01*
X-11584Y19104D02*
X-10656D01*
X-12403Y18255D02*
Y18285D01*
X-11584Y19104D01*
X-12716Y17535D02*
X-11737D01*
X-11472Y17800D01*
X-11400D01*
X-12797Y17616D02*
X-12716Y17535D01*
X-10329Y19104D02*
X-9159D01*
X-7436Y17381D01*
X-7276Y16827D02*
X-6603Y17500D01*
X-8586Y13040D02*
X-8026Y13600D01*
X-7908D01*
X-10960Y13040D02*
X-8586D01*
X-8438Y12962D02*
X-7967D01*
X-9000Y12400D02*
X-8438Y12962D01*
X-9783Y16923D02*
X-8746Y15886D01*
Y15355D02*
Y15886D01*
X-12059Y11768D02*
Y11941D01*
X-13295Y11295D02*
X-12532D01*
X-12059Y11768D01*
X-13700Y11700D02*
X-13295Y11295D01*
X-25997Y14255D02*
Y14285D01*
X-28500Y12700D02*
X-28114Y12314D01*
X-23216Y20400D02*
X-23101D01*
X-22701Y20800D01*
X-21600D01*
X-18863Y18703D02*
Y18847D01*
X-19416Y19400D02*
X-18863Y18847D01*
X-20500Y17800D02*
X-20441Y17859D01*
X-20289D01*
X-21032Y18220D02*
X-21000D01*
X-21293Y18481D02*
X-21032Y18220D01*
X-23500Y17900D02*
X-22919Y18481D01*
X-21293D01*
X-20500Y14000D02*
Y17800D01*
X-21774Y18174D02*
X-21400Y17800D01*
X-21774Y18174D02*
Y18194D01*
X-1600Y5300D02*
X-1000D01*
X-21400Y15996D02*
X-21119Y15715D01*
Y14693D02*
Y15715D01*
X-21387Y14426D02*
X-21119Y14693D01*
X-21406Y14426D02*
X-21387D01*
X-22462Y15067D02*
X-21513D01*
X-23100Y13600D02*
X-22667Y14033D01*
Y14346D02*
X-22213Y14800D01*
X-26693Y14993D02*
X-26622Y14922D01*
Y14910D02*
Y14922D01*
X-13385Y18273D02*
Y18505D01*
X-13403Y18255D02*
X-13385Y18273D01*
X-13797Y18912D02*
X-13349Y19360D01*
X-13051D01*
X-13797Y18255D02*
Y18912D01*
X-13600Y17715D02*
X-13194Y17309D01*
X-9606Y3026D02*
X-9587D01*
X-10000Y3941D02*
X-8927Y5014D01*
X-10000Y3659D02*
X-9893Y3552D01*
X-9632Y3800D02*
X-9606Y3774D01*
X-10000Y3800D02*
X-9632D01*
X-8386Y4227D02*
Y4560D01*
X-9587Y3026D02*
X-8386Y4227D01*
X-8840Y5014D02*
X-8159Y5696D01*
Y5841D02*
X-8100Y5900D01*
X-8159Y5696D02*
Y5841D01*
X-10000Y3800D02*
Y3941D01*
X-8927Y5014D02*
X-8840D01*
X-9900Y6500D02*
X-8700D01*
X-15026Y3806D02*
Y3826D01*
X-15603Y4307D02*
X-15507D01*
X-16541Y5245D02*
X-15603Y4307D01*
X-16541Y5245D02*
Y5341D01*
X-15667Y3021D02*
Y3699D01*
Y3021D02*
X-15400Y2755D01*
Y1900D02*
Y2755D01*
X-15774Y3806D02*
X-15667Y3699D01*
X-15507Y4307D02*
X-15026Y3826D01*
X-20674Y1874D02*
X-20174D01*
X-21200Y2400D02*
X-20674Y1874D01*
X-22000Y4300D02*
X-21200Y3500D01*
Y2400D02*
Y3500D01*
Y2355D02*
Y2400D01*
X-22750Y1450D02*
Y4250D01*
Y1450D02*
X-22700Y1400D01*
X-25603Y2225D02*
X-24778Y1400D01*
X-25603Y2225D02*
Y2255D01*
X-24130Y2045D02*
X-24088D01*
X-23500Y2632D01*
X-24400Y1775D02*
X-24130Y2045D01*
X-24400Y1745D02*
Y1775D01*
X-24203Y2255D02*
Y2285D01*
X-25118Y3200D02*
X-24203Y2285D01*
X-26500Y3200D02*
X-25118D01*
X-26500D02*
Y4416D01*
X-24000Y3700D02*
Y4416D01*
X-23500Y2632D02*
Y3200D01*
X-27500Y4400D02*
Y5384D01*
X-27417Y2275D02*
Y4317D01*
Y2275D02*
X-27397Y2255D01*
X-27500Y4400D02*
X-27417Y4317D01*
X-17547Y3647D02*
X-17365D01*
X-13560Y4460D02*
X-11500Y2400D01*
X-3058Y21742D02*
X-3000Y21800D01*
X-3058Y21031D02*
Y21742D01*
X-17200Y22284D02*
X-16984Y22500D01*
X-27983Y15923D02*
X-26378D01*
X-4000Y16786D02*
Y18545D01*
X-11330Y7816D02*
X-9341Y9805D01*
X-11477Y4607D02*
X-11391D01*
X-12763Y5893D02*
X-11477Y4607D01*
X-17442Y500D02*
X-17400D01*
X-18416Y1473D02*
X-17442Y500D01*
X-6000Y8384D02*
Y9400D01*
X-10305Y3507D02*
X-10267D01*
X-10520Y3293D02*
X-10305Y3507D01*
X-6498Y900D02*
X-6398Y800D01*
X-7520Y900D02*
X-6498D01*
X-614Y5023D02*
Y5460D01*
X-2910Y2810D02*
X-2827D01*
X-1760Y5686D02*
X-840D01*
X-614Y5460D01*
X-2386Y5060D02*
X-1760Y5686D01*
X-2827Y2810D02*
X-614Y5023D01*
X-2910Y2710D02*
X-2614Y2414D01*
X-3602Y800D02*
X-3555D01*
X-2614Y1740D02*
Y2414D01*
X-4452Y3352D02*
X-3000Y1900D01*
X-3555Y800D02*
X-2614Y1740D01*
X-2600Y22800D02*
X-2114Y22314D01*
X-6246Y20800D02*
X-5184D01*
X-7330Y21884D02*
X-6246Y20800D01*
X-5184D02*
X-4984Y21000D01*
X-15280Y21120D02*
X-14516Y21884D01*
X-18863Y18703D02*
X-18280Y18120D01*
X-19000Y17240D02*
X-18090D01*
X-19060Y17300D02*
X-19000Y17240D01*
X-15520Y17360D02*
X-14440D01*
X-16280Y18120D02*
X-15520Y17360D01*
X-13600Y17715D02*
Y17745D01*
X-14425Y16575D02*
Y17345D01*
X-14440Y17360D02*
X-14425Y17345D01*
X-5274Y16172D02*
X-4660Y16786D01*
X-5360Y15750D02*
X-5274Y15836D01*
X-2614Y15400D02*
X-1500D01*
X-5274Y15836D02*
Y16172D01*
X-27217Y8823D02*
X-26423D01*
X-27523Y7423D02*
Y8517D01*
X-4000Y9400D02*
X-3992Y9392D01*
Y7908D02*
Y9392D01*
X-5000Y4400D02*
X-4500D01*
X-3386Y4740D02*
Y9014D01*
X-3160Y4514D02*
X-2840D01*
X-2386Y4969D02*
Y5060D01*
X-2840Y4514D02*
X-2386Y4969D01*
X-3386Y4740D02*
X-3160Y4514D01*
X-3386Y9014D02*
X-3000Y9400D01*
X-700Y14800D02*
X-500Y15000D01*
X-3386Y13014D02*
X-1340D01*
X-1500Y14400D02*
X-1420Y14480D01*
X-860Y15386D02*
X-540D01*
X-1420Y14826D02*
X-860Y15386D01*
X-540D02*
X-314Y15160D01*
X-1000Y10500D02*
X-314Y11186D01*
Y15160D01*
X-1420Y14480D02*
Y14826D01*
X-4500Y14400D02*
Y16400D01*
X-3500Y14400D02*
X-1500D01*
X-16229Y9229D02*
X-15639Y8639D01*
X-16583Y9300D02*
X-16500D01*
X-16571Y13429D02*
X-16500Y13500D01*
X-17116Y13429D02*
X-16571D01*
X-17886Y12660D02*
X-17116Y13429D01*
X-17886Y12340D02*
Y12660D01*
Y12340D02*
X-17660Y12114D01*
X-17541D01*
X-17295Y11868D01*
Y11722D02*
Y11868D01*
Y11722D02*
X-16500Y10927D01*
Y9300D02*
Y10927D01*
X-16700Y11700D02*
X-16606Y11794D01*
Y11972D01*
X-11484Y8916D02*
X-11000D01*
X-13000Y7400D02*
X-11484Y8916D01*
X-21200Y7300D02*
X-20400D01*
X-14439Y15984D02*
X-13954Y15500D01*
X-1340Y13014D02*
X-700Y13655D01*
Y14800D01*
X-3000Y12400D02*
X-1100D01*
X-700Y12000D01*
X-18500Y15984D02*
X-14439D01*
X-13954Y12954D02*
Y15500D01*
X-14114Y12286D02*
Y15114D01*
X-14500Y15500D02*
X-14114Y15114D01*
X-14700Y11700D02*
X-14114Y12286D01*
X-13500Y15500D02*
X-12500D01*
X-18800Y12700D02*
X-17500Y14000D01*
Y15400D01*
X-15500Y13500D02*
X-14500Y12500D01*
X-16500Y13500D02*
X-15500D01*
X-16500D02*
Y15400D01*
Y12400D02*
X-15500D01*
X-17500D02*
X-17450Y12450D01*
X-13700Y8700D02*
X-13000Y8000D01*
Y7400D02*
Y8000D01*
X-14284Y7239D02*
Y7668D01*
X-12938Y5893D02*
X-12763D01*
X-14284Y7239D02*
X-12938Y5893D01*
X-17626Y6570D02*
X-16700Y7496D01*
X-16541Y5459D02*
X-14957D01*
X-14500Y5916D01*
X-11500Y1400D02*
Y2400D01*
X-14440Y4460D02*
X-13560D01*
X-14500Y4400D02*
X-14440Y4460D01*
X-15400Y4574D02*
X-14919Y4093D01*
X-14823D02*
X-14555Y3826D01*
X-15400Y4574D02*
Y4700D01*
X-14500Y2400D02*
Y3400D01*
X-15400Y800D02*
X-15222D01*
X-14622Y1400D01*
X-16500Y9300D02*
X-16429Y9229D01*
X-16229D01*
X-22006Y9294D02*
X-16588D01*
X-16583Y9300D01*
X-25000Y7400D02*
X-23600Y8800D01*
X-22500D01*
X-22000Y8300D01*
Y7300D02*
Y8300D01*
X-20586Y8240D02*
X-19195Y6850D01*
X-20586Y8560D02*
X-20360Y8786D01*
X-20586Y8240D02*
Y8560D01*
X-20360Y8786D02*
X-18786D01*
X-19195Y6411D02*
Y6850D01*
X-18786Y8786D02*
X-18700Y8700D01*
X-19195Y6411D02*
X-19184Y6400D01*
X-18105Y8295D02*
X-17700Y8700D01*
X-19041Y8295D02*
X-18105D01*
X-19146Y8400D02*
X-19041Y8295D01*
X-20200Y8400D02*
X-19146D01*
X-16700Y7496D02*
Y8700D01*
X-17626Y6230D02*
Y6570D01*
X-16796Y5400D02*
X-16600D01*
X-17626Y6230D02*
X-16796Y5400D01*
X-17171Y6355D02*
X-16055D01*
X-17216Y6400D02*
X-17171Y6355D01*
X-20250Y4350D02*
X-19955Y4645D01*
X-20000Y2400D02*
Y2526D01*
X-21200Y3726D02*
X-20000Y2526D01*
Y2400D02*
X-19892D01*
X-18750Y3542D02*
X-18442D01*
X-19892Y2400D02*
X-18750Y3542D01*
X-18287Y4387D02*
X-17547Y3647D01*
X-19184Y7600D02*
X-18287Y6703D01*
X-22386Y7140D02*
X-21645Y6400D01*
X-19184D01*
X-20093Y8307D02*
X-19999D01*
X-18542Y1473D02*
X-18416D01*
X-18600Y1416D02*
X-18542Y1473D01*
X-22540Y1014D02*
X-21200Y2355D01*
X-23537Y6847D02*
X-23253D01*
X-24000Y6384D02*
X-23537Y6847D01*
X-27500Y5384D02*
X-26500Y6384D01*
X-24992Y4408D02*
X-24008D01*
X-25000Y4400D02*
X-24992Y4408D01*
X-9893Y1993D02*
X-9800Y1900D01*
X-9893Y1993D02*
Y3552D01*
X-7614Y2786D02*
Y4014D01*
X-8000Y2400D02*
X-7614Y2786D01*
X-8000Y4400D02*
X-7614Y4014D01*
X-8386Y3014D02*
X-8000Y3400D01*
X-8386Y2240D02*
Y3014D01*
Y2240D02*
X-8045Y1900D01*
X-4000D01*
X-8386Y4560D02*
X-7763Y5182D01*
X-6234D02*
X-5516Y5900D01*
X-7763Y5182D02*
X-6234D01*
X-10520Y900D02*
Y3293D01*
X-9800Y1900D02*
X-9774D01*
X-3614Y1740D02*
Y2060D01*
X-3840Y1514D02*
X-3614Y1740D01*
X-9774Y1900D02*
X-9389Y1514D01*
X-3840D01*
X-5000Y3400D02*
X-4952Y3352D01*
X-4452D01*
X-4500Y4400D02*
X-2910Y2810D01*
Y2710D02*
Y2810D01*
X-3000Y4900D02*
X-2595Y5305D01*
Y10995D01*
X-7268Y7684D02*
X-6720D01*
X-2546Y4354D02*
X-1600Y5300D01*
X-4000Y4354D02*
X-2546D01*
X-6720Y7684D02*
X-4386Y5350D01*
Y4740D02*
X-4000Y4354D01*
X-4386Y4740D02*
Y5350D01*
X-7484Y7900D02*
X-7268Y7684D01*
X-7484Y7900D02*
X-7268Y8116D01*
Y9039D01*
X-8000Y7729D02*
X-6171Y5900D01*
X-5516D01*
X-8000Y7729D02*
Y9400D01*
X-10000Y6400D02*
Y8400D01*
X-9000Y9400D01*
X-10000Y6400D02*
X-9900Y6500D01*
X-9341Y9805D02*
X-6405D01*
X-11330Y4668D02*
Y7816D01*
X-11391Y4607D02*
X-11330Y4668D01*
X-6405Y9805D02*
X-6000Y9400D01*
X-2016Y6816D02*
X-1300Y6100D01*
X-2016Y6816D02*
Y7900D01*
X-1416Y8500D01*
X-700D01*
X-23200Y8400D02*
X-22386Y7586D01*
Y7140D02*
Y7586D01*
X-23749Y9454D02*
X-20546D01*
X-24200Y10900D02*
X-23700Y11400D01*
X-18105Y11295D02*
X-17700Y11700D01*
X-19700Y11400D02*
X-19595Y11295D01*
X-18105D01*
X-23916Y12700D02*
X-23916Y12700D01*
X-20900D02*
X-20100Y11900D01*
X-24723Y12579D02*
X-23703Y13600D01*
X-24723Y10683D02*
X-24364Y10323D01*
X-23969D02*
X-23260Y9614D01*
X-21386D01*
X-20100Y10900D01*
X-24723Y10683D02*
Y12579D01*
X-24364Y10323D02*
X-23969D01*
X-23703Y13600D02*
X-23100D01*
X-24094Y9800D02*
X-23749Y9454D01*
X-19700Y11400D02*
Y13200D01*
X-23700Y11400D02*
X-19700D01*
X-18750Y11750D02*
Y12650D01*
X-18800Y12700D02*
X-18750Y12650D01*
X-28500Y9700D02*
X-26650D01*
X-25850Y10500D01*
X-27100Y15400D02*
X-26693Y14993D01*
X-27500Y16500D02*
X-27114Y16886D01*
X-23706D02*
X-23560Y16740D01*
X-27114Y16886D02*
X-23706D01*
X-27784Y19168D02*
X-26833D01*
X-28000Y19384D02*
X-27784Y19168D01*
X-23500Y18900D02*
X-23437Y18963D01*
X-22667Y14033D02*
Y14346D01*
X-21513Y15067D02*
X-21406Y15174D01*
X-24883Y10483D02*
X-24200Y9800D01*
X-28340Y16240D02*
X-28300D01*
X-27983Y15923D01*
X-26378D02*
X-25764Y15310D01*
X-25727D01*
X-24537Y16500D01*
X-20289Y17859D02*
X-19810Y17380D01*
X-21426Y17273D02*
X-20959Y16807D01*
Y13559D02*
X-20100Y12700D01*
X-20959Y13559D02*
Y16807D01*
X-23560Y16560D02*
Y16740D01*
X-20200Y8200D02*
X-20093Y8307D01*
X-14622Y1400D02*
X-14500D01*
X-24008Y4408D02*
X-24000Y4416D01*
X-15639Y8639D02*
X-15255D01*
X-22500Y8800D02*
X-22006Y9294D01*
X-25850Y10500D02*
X-25800D01*
X-24537Y16500D02*
X-24500D01*
X-26833Y19168D02*
X-26565Y18900D01*
X-26500D01*
X-7268Y9039D02*
X-7000Y9307D01*
Y9400D01*
X-18750Y11750D02*
X-18700Y11700D01*
X-3955Y2400D02*
X-3614Y2060D01*
X-5000Y2400D02*
X-3955D01*
X-3992Y7908D02*
X-3984Y7900D01*
X-23253Y6847D02*
X-22800Y7300D01*
X-19999Y8307D02*
X-19292Y7600D01*
X-19184D01*
X-19955Y4645D02*
X-19539D01*
X-20400Y4350D02*
X-20250D01*
X-20014Y3793D02*
X-19821Y3600D01*
X-16055Y6355D02*
X-16000Y6300D01*
X-16600Y5400D02*
X-16541Y5459D01*
X-16606Y11972D02*
X-16586Y11992D01*
Y12314D01*
X-16500Y12400D01*
X-17450Y12450D02*
X-16550D01*
X-16500Y12400D01*
X-14425Y16575D02*
X-14410Y16560D01*
X-18090Y17240D02*
X-17410Y16560D01*
X-4660Y16786D02*
X-4000D01*
X-2614Y15400D01*
X-17280Y21120D02*
X-17200Y21200D01*
Y22284D01*
X-14516Y21884D02*
X-7330D01*
X-3027Y21000D02*
X-3016D01*
X-3058Y21031D02*
X-3027Y21000D01*
X-2500Y18500D02*
X-1460Y19540D01*
X-2886Y17886D02*
Y18660D01*
X-2114Y19340D02*
Y22314D01*
X-2660Y18886D02*
X-2569D01*
X-2114Y19340D01*
X-2886Y17886D02*
X-2500Y17500D01*
X-2886Y18660D02*
X-2660Y18886D01*
X-5500Y17500D02*
Y19500D01*
X-7490Y19516D02*
X-7120Y19886D01*
X-5340D01*
X-7500Y19516D02*
X-7490D01*
X-5340Y19886D02*
X-4000Y18545D01*
X-7967Y12962D02*
X-7498Y13430D01*
X-26500Y17900D02*
Y18900D01*
X-14700Y8700D02*
X-14500Y8500D01*
X-14700Y8700D02*
X-14629D01*
X-15255Y8639D02*
X-14284Y7668D01*
X-13795Y7295D02*
X-13000Y6500D01*
X-13795Y7295D02*
Y7867D01*
X-14629Y8700D02*
X-13795Y7867D01*
X-17200Y3500D02*
X-16808D01*
X-26400Y19800D02*
X-25800Y20400D01*
X-25184D01*
X-14881Y20721D02*
X-14705D01*
X-14184Y20200D01*
X-15280Y21120D02*
X-14881Y20721D01*
X-11666Y20750D02*
X-9590D01*
X-12216Y20200D02*
X-11666Y20750D01*
X-1460Y19540D02*
Y21040D01*
X-1150Y21350D01*
X-3046Y17500D02*
X-2425Y16880D01*
X-3046Y17500D02*
Y18954D01*
X-2500Y19500D01*
X-2425Y16880D02*
X-590D01*
X-13051Y19360D02*
X-12797Y19106D01*
X-13385Y18505D02*
X-13277Y18613D01*
Y18923D01*
X-13200Y19000D01*
X-12876Y22876D02*
X-12500Y22500D01*
X-22124Y22876D02*
X-12876D01*
X-22500Y22500D02*
X-22124Y22876D01*
X-26250Y21500D02*
Y22500D01*
X-10000D02*
X-8750D01*
X-20919Y18584D02*
X-19698Y19805D01*
X-17595D02*
X-16280Y21120D01*
X-19698Y19805D02*
X-17595D01*
X-21026Y18194D02*
X-20919Y18301D01*
Y18584D01*
X-6603Y17500D02*
X-5500D01*
X-10600Y16400D02*
X-10000D01*
X-11226Y16560D02*
X-10862Y16923D01*
X-9783D01*
X-7498Y13430D02*
Y14108D01*
X-11500Y15500D02*
X-10600Y16400D01*
X-13194Y16560D02*
X-12671Y17083D01*
X-9693D01*
X-12797Y17616D02*
Y19106D01*
X-8000Y12426D02*
X-7339Y13087D01*
X-8000Y12400D02*
Y12426D01*
X-10544Y19320D02*
X-10329Y19104D01*
X-7436Y15278D02*
X-7000Y14843D01*
X-7436Y15278D02*
Y17381D01*
X-7832Y11995D02*
X-7405Y12422D01*
Y12794D02*
X-7179Y13021D01*
X-8400Y17800D02*
X-7746Y17146D01*
X-7405Y12422D02*
Y12794D01*
X-7179Y13021D02*
Y14795D01*
X-7746Y15362D02*
X-7179Y14795D01*
X-7746Y15362D02*
Y17146D01*
X-8595Y11995D02*
X-7832D01*
X-9000Y12400D02*
X-8595Y11995D01*
X-24200Y9800D02*
X-24094D01*
X-8100Y5900D02*
X-7484D01*
X-20174Y1874D02*
X-19700Y1400D01*
X-16600Y5400D02*
X-16541Y5341D01*
X-10000Y3659D02*
Y3800D01*
X-26622Y14910D02*
X-25997Y14285D01*
X-21400Y15996D02*
Y16000D01*
X-21400Y17800D02*
X-20500D01*
X-24883Y12646D02*
X-22462Y15067D01*
X-24883Y10483D02*
Y12646D01*
X-22213Y14800D02*
X-22194D01*
X-23437Y18963D02*
X-23074D01*
X-22963Y19074D01*
X-22674D01*
X-22500Y18900D01*
X-10267Y3507D02*
Y4133D01*
X-9000Y5400D01*
X-14919Y4093D02*
X-14823D01*
X-14555Y3455D02*
Y3826D01*
Y3455D02*
X-14500Y3400D01*
X-22800Y4300D02*
X-22750Y4250D01*
X-24778Y1400D02*
X-22750D01*
X-20546Y9454D02*
X-20200Y9800D01*
X-25800Y1715D02*
Y1745D01*
Y1715D02*
X-25099Y1014D01*
X-22540D01*
X-26423Y8823D02*
X-25000Y7400D01*
X-27523Y7423D02*
X-27500Y7400D01*
X-27523Y8517D02*
X-27217Y8823D01*
X-25714Y7014D02*
X-24586D01*
X-27000Y8300D02*
X-25714Y7014D01*
X-24586D02*
X-23200Y8400D01*
X-16740Y570D02*
X-16530D01*
X-16214Y886D01*
Y3999D01*
X-18287Y4387D02*
Y6703D01*
X-17365Y3647D02*
X-17356Y3656D01*
X-17200Y3500D01*
D14*
X-95000Y-2600D02*
Y24400D01*
D15*
X-28000Y22500D02*
D03*
X-1000D02*
D03*
Y1000D02*
D03*
X-28000D02*
D03*
D16*
X-26250Y22500D02*
D03*
Y21500D02*
D03*
X-25000D02*
D03*
X-23750D02*
D03*
X-22500D02*
D03*
X-25000Y22500D02*
D03*
X-22500D02*
D03*
X-23750D02*
D03*
X-12500D02*
D03*
X-11250D02*
D03*
X-10000D02*
D03*
X-8750D02*
D03*
D17*
X-8400Y17800D02*
D03*
X-11400D02*
D03*
X-17440Y17360D02*
D03*
X-14440D02*
D03*
X-22700Y1400D02*
D03*
X-19700D02*
D03*
X-22800Y4300D02*
D03*
Y7300D02*
D03*
X-22000Y4300D02*
D03*
Y7300D02*
D03*
X-21200Y4300D02*
D03*
Y7300D02*
D03*
X-20300Y4300D02*
D03*
Y7300D02*
D03*
X-25000Y4400D02*
D03*
Y7400D02*
D03*
X-27500Y4400D02*
D03*
Y7400D02*
D03*
X-26500Y3200D02*
D03*
X-23500D02*
D03*
X-17400Y500D02*
D03*
Y3500D02*
D03*
X-16600Y500D02*
D03*
Y3500D02*
D03*
X-14500Y1400D02*
D03*
X-11500D02*
D03*
Y2400D02*
D03*
X-14500D02*
D03*
X-11500Y3400D02*
D03*
X-14500D02*
D03*
X-11330Y4460D02*
D03*
X-14330D02*
D03*
X-10000Y6500D02*
D03*
X-13000D02*
D03*
X-20200Y8400D02*
D03*
X-23200D02*
D03*
X-23100Y10000D02*
D03*
X-20100D02*
D03*
X-23100Y11900D02*
D03*
X-20100D02*
D03*
X-23500Y17900D02*
D03*
X-26500D02*
D03*
Y18900D02*
D03*
X-23500D02*
D03*
X-27500Y16500D02*
D03*
X-24500D02*
D03*
X-17410Y16560D02*
D03*
X-14410D02*
D03*
X-19810Y14380D02*
D03*
Y17380D02*
D03*
X-16500Y12400D02*
D03*
Y15400D02*
D03*
X-17500Y12500D02*
D03*
Y15500D02*
D03*
X-15500Y12400D02*
D03*
Y15400D02*
D03*
X-14500Y12500D02*
D03*
Y15500D02*
D03*
X-13500D02*
D03*
Y12500D02*
D03*
X-12500D02*
D03*
Y15500D02*
D03*
X-11500Y12500D02*
D03*
Y15500D02*
D03*
X-10000Y7400D02*
D03*
X-13000D02*
D03*
X-9000Y8400D02*
D03*
Y5400D02*
D03*
X-8000Y4400D02*
D03*
X-5000D02*
D03*
Y3400D02*
D03*
X-8000D02*
D03*
X-5000Y2400D02*
D03*
X-8000D02*
D03*
X-4000Y1900D02*
D03*
Y4900D02*
D03*
X-3000D02*
D03*
Y1900D02*
D03*
X-2000D02*
D03*
Y4900D02*
D03*
X-1000Y2300D02*
D03*
Y5300D02*
D03*
X-10520Y900D02*
D03*
X-7520D02*
D03*
X-28500Y9700D02*
D03*
Y12700D02*
D03*
X-27600Y9700D02*
D03*
Y12700D02*
D03*
X-26700D02*
D03*
Y9700D02*
D03*
X-1300Y6100D02*
D03*
X-4300D02*
D03*
X-700Y15000D02*
D03*
Y12000D02*
D03*
X-1500Y13400D02*
D03*
X-4500D02*
D03*
X-1500Y14400D02*
D03*
X-4500D02*
D03*
Y15400D02*
D03*
X-1500D02*
D03*
X-4500Y16400D02*
D03*
X-1500D02*
D03*
X-2500Y17500D02*
D03*
X-5500D02*
D03*
X-2500Y18500D02*
D03*
X-5500D02*
D03*
X-2500Y19500D02*
D03*
X-5500D02*
D03*
X-6100Y21800D02*
D03*
X-3100D02*
D03*
X-5360Y15750D02*
D03*
X-8360D02*
D03*
X-23100Y12700D02*
D03*
X-20100D02*
D03*
X-23100Y13600D02*
D03*
X-20100D02*
D03*
X-23100Y10900D02*
D03*
X-20100D02*
D03*
D18*
X-1000Y10500D02*
D03*
X-700Y8500D02*
D03*
X-21200Y2400D02*
D03*
X-20000D02*
D03*
X-15400Y800D02*
D03*
Y1900D02*
D03*
X-15890Y6310D02*
D03*
X-24200Y9800D02*
D03*
X-25800Y10500D02*
D03*
X-27100Y15400D02*
D03*
X-28390Y16330D02*
D03*
X-26400Y19800D02*
D03*
X-21600Y20800D02*
D03*
X-22400Y19200D02*
D03*
X-23370Y16750D02*
D03*
X-9590Y20750D02*
D03*
X-18790Y17240D02*
D03*
X-18800Y12700D02*
D03*
X-10000Y16400D02*
D03*
X-9800Y1900D02*
D03*
X-27000Y8300D02*
D03*
X-24200Y10900D02*
D03*
X-24800Y8600D02*
D03*
X-590Y16880D02*
D03*
X-1460Y21090D02*
D03*
X-2600Y22800D02*
D03*
D19*
X-19700Y3400D02*
D03*
D20*
X-24000Y6384D02*
D03*
Y4416D02*
D03*
X-26500Y6384D02*
D03*
Y4416D02*
D03*
X-18600Y3584D02*
D03*
Y1616D02*
D03*
X-11000Y10884D02*
D03*
Y8916D02*
D03*
X-23796Y15310D02*
D03*
X-25764D02*
D03*
X-23216Y20400D02*
D03*
X-25184D02*
D03*
X-13194Y16560D02*
D03*
X-11226D02*
D03*
X-18500Y14016D02*
D03*
Y15984D02*
D03*
X-19184Y5000D02*
D03*
X-17216D02*
D03*
X-2016Y7900D02*
D03*
X-3984D02*
D03*
X-3016Y20800D02*
D03*
X-4984D02*
D03*
X-7500Y21474D02*
D03*
Y19506D02*
D03*
X-5940Y13600D02*
D03*
X-7908D02*
D03*
X-19184Y7600D02*
D03*
X-17216D02*
D03*
Y6400D02*
D03*
X-19184D02*
D03*
X-7484Y5900D02*
D03*
X-5516D02*
D03*
D21*
X-14500Y7884D02*
D03*
X-27840Y19384D02*
D03*
X-10000Y13416D02*
D03*
X-990Y18166D02*
D03*
X-6900Y16516D02*
D03*
D22*
X-14500Y5916D02*
D03*
X-25884Y12700D02*
D03*
X-27840Y17416D02*
D03*
X-21384Y19400D02*
D03*
X-15016Y22500D02*
D03*
X-12216Y20200D02*
D03*
X-8576Y19320D02*
D03*
X-10000Y15384D02*
D03*
X-5516Y7900D02*
D03*
X-990Y20134D02*
D03*
X-6900Y18484D02*
D03*
D23*
X-23916Y12700D02*
D03*
X-19416Y19400D02*
D03*
X-16984Y22500D02*
D03*
X-14184Y20200D02*
D03*
X-10544Y19320D02*
D03*
X-7484Y7900D02*
D03*
D24*
X-15280Y21120D02*
D03*
X-16280D02*
D03*
X-17280D02*
D03*
X-18280D02*
D03*
X-15280Y18120D02*
D03*
X-16280D02*
D03*
X-17280D02*
D03*
X-3000Y12400D02*
D03*
X-4000D02*
D03*
X-5000D02*
D03*
X-6000D02*
D03*
X-7000D02*
D03*
X-8000D02*
D03*
X-9000D02*
D03*
X-3000Y9400D02*
D03*
X-4000D02*
D03*
X-5000D02*
D03*
X-6000D02*
D03*
X-7000D02*
D03*
X-8000D02*
D03*
X-12700Y11700D02*
D03*
X-13700D02*
D03*
X-14700D02*
D03*
X-15700D02*
D03*
X-16700D02*
D03*
X-17700D02*
D03*
X-18700D02*
D03*
X-12700Y8700D02*
D03*
X-13700D02*
D03*
X-14700D02*
D03*
X-15700D02*
D03*
X-16700D02*
D03*
X-17700D02*
D03*
X-3602Y800D02*
D03*
X-28300Y14000D02*
D03*
D25*
X-18280Y18120D02*
D03*
X-9000Y9400D02*
D03*
X-18700Y8700D02*
D03*
D26*
X-6398Y800D02*
D03*
X-27300Y14000D02*
D03*
D27*
X-14250Y19250D02*
D03*
X-26350Y850D02*
D03*
X-8500Y14600D02*
D03*
X-10600Y18100D02*
D03*
X-21400Y16000D02*
D03*
X-13200Y19000D02*
D03*
%TF.MD5,1d63ae9faf5d8072e8be514ea7637b81*%
M02*
