G04 Layer_Color=32768*
%FSAX24Y24*%
%MOIN*%
G70*
G01*
G75*
%ADD29C,0.0039*%
%ADD49C,0.0020*%
D29*
X-021800Y014603D02*
Y014997D01*
X-021997Y014800D02*
X-021603D01*
X-010000Y003203D02*
Y003597D01*
X-010197Y003400D02*
X-009803D01*
X-015700Y010003D02*
Y010397D01*
X-015897Y010200D02*
X-015503D01*
X-006000Y010703D02*
Y011097D01*
X-006197Y010900D02*
X-005803D01*
X-016780Y019423D02*
Y019817D01*
X-016977Y019620D02*
X-016583D01*
X-013600Y017803D02*
Y018197D01*
X-013797Y018000D02*
X-013403D01*
X-012600Y017803D02*
Y018197D01*
X-012797Y018000D02*
X-012403D01*
X-021597Y017800D02*
X-021203D01*
X-021400Y017603D02*
Y017997D01*
X-025800Y013803D02*
Y014197D01*
X-025997Y014000D02*
X-025603D01*
X-015597Y004200D02*
X-015203D01*
X-015400Y004003D02*
Y004397D01*
X-024400Y001803D02*
Y002197D01*
X-024597Y002000D02*
X-024203D01*
X-025800Y001803D02*
Y002197D01*
X-025997Y002000D02*
X-025603D01*
X-027200Y001803D02*
Y002197D01*
X-027397Y002000D02*
X-027003D01*
D49*
X-022410Y015414D02*
X-021190D01*
X-022410Y014186D02*
X-021190D01*
X-022410D02*
Y015414D01*
X-021190Y014186D02*
Y015414D01*
X-010610Y004014D02*
X-009390D01*
X-010610Y002786D02*
X-009390D01*
X-010610D02*
Y004014D01*
X-009390Y002786D02*
Y004014D01*
X-013954Y018394D02*
X-013246D01*
X-013954Y017606D02*
X-013246D01*
Y018394D01*
X-013954Y017606D02*
Y018394D01*
X-012954D02*
X-012246D01*
X-012954Y017606D02*
X-012246D01*
Y018394D01*
X-012954Y017606D02*
Y018394D01*
X-022014Y017190D02*
Y018410D01*
X-020786Y017190D02*
Y018410D01*
X-022014Y017190D02*
X-020786D01*
X-022014Y018410D02*
X-020786D01*
X-026154Y014394D02*
X-025446D01*
X-026154Y013606D02*
X-025446D01*
Y014394D01*
X-026154Y013606D02*
Y014394D01*
X-014786Y003590D02*
Y004810D01*
X-016014Y003590D02*
Y004810D01*
X-014786D01*
X-016014Y003590D02*
X-014786D01*
X-024754Y002394D02*
X-024046D01*
X-024754Y001606D02*
X-024046D01*
Y002394D01*
X-024754Y001606D02*
Y002394D01*
X-026154D02*
X-025446D01*
X-026154Y001606D02*
X-025446D01*
Y002394D01*
X-026154Y001606D02*
Y002394D01*
X-027554D02*
X-026846D01*
X-027554Y001606D02*
X-026846D01*
Y002394D01*
X-027554Y001606D02*
Y002394D01*
M02*
