G04 Layer_Color=16711935*
%FSAX24Y24*%
%MOIN*%
G70*
G01*
G75*
%ADD29C,0.0039*%
D29*
X-019125Y009137D02*
G03*
X-019125Y009137I-000197J000000D01*
G01*
X-009425Y009837D02*
G03*
X-009425Y009837I-000197J000000D01*
G01*
X-018256Y018557D02*
G03*
X-018256Y018557I-000197J000000D01*
G01*
X-022056Y015375D02*
X-021544D01*
X-022056Y014225D02*
X-021544D01*
X-022056D02*
Y015375D01*
X-021544Y014225D02*
Y015375D01*
X-010256Y003975D02*
X-009744D01*
X-010256Y002825D02*
X-009744D01*
X-010256D02*
Y003975D01*
X-009744Y002825D02*
Y003975D01*
X-019676Y008783D02*
X-011724D01*
X-019676Y011617D02*
X-011724D01*
X-019676Y008783D02*
Y011617D01*
X-011724Y008783D02*
Y011617D01*
X-009976Y009483D02*
X-002024D01*
X-009976Y012317D02*
X-002024D01*
X-009976Y009483D02*
Y012317D01*
X-002024Y009483D02*
Y012317D01*
X-018808Y018203D02*
X-014752D01*
X-018808Y021037D02*
X-014752D01*
X-018808Y018203D02*
Y021037D01*
X-014752Y018203D02*
Y021037D01*
X-013915Y018157D02*
X-013285D01*
X-013915Y017843D02*
X-013285D01*
Y018157D01*
X-013915Y017843D02*
Y018157D01*
X-012915D02*
X-012285D01*
X-012915Y017843D02*
X-012285D01*
Y018157D01*
X-012915Y017843D02*
Y018157D01*
X-021975Y017544D02*
Y018056D01*
X-020825Y017544D02*
Y018056D01*
X-021975Y017544D02*
X-020825D01*
X-021975Y018056D02*
X-020825D01*
X-026115Y014157D02*
X-025485D01*
X-026115Y013843D02*
X-025485D01*
Y014157D01*
X-026115Y013843D02*
Y014157D01*
X-014825Y003944D02*
Y004456D01*
X-015975Y003944D02*
Y004456D01*
X-014825D01*
X-015975Y003944D02*
X-014825D01*
X-024715Y002157D02*
X-024085D01*
X-024715Y001843D02*
X-024085D01*
Y002157D01*
X-024715Y001843D02*
Y002157D01*
X-026115D02*
X-025485D01*
X-026115Y001843D02*
X-025485D01*
Y002157D01*
X-026115Y001843D02*
Y002157D01*
X-027515D02*
X-026885D01*
X-027515Y001843D02*
X-026885D01*
Y002157D01*
X-027515Y001843D02*
Y002157D01*
M02*
