G04 Layer_Physical_Order=2*
G04 Layer_Color=16711680*
%FSAX24Y24*%
%MOIN*%
G70*
G01*
G75*
%ADD13C,0.0100*%
%ADD14C,0.0591*%
%ADD15R,0.0591X0.0591*%
%ADD16C,0.0827*%
%ADD17C,0.0600*%
%ADD18C,0.0551*%
%ADD19C,0.0531*%
%ADD20R,0.0531X0.0531*%
%ADD21R,0.0531X0.0531*%
%ADD22R,0.0591X0.0591*%
%ADD23C,0.0700*%
%ADD24C,0.1181*%
%ADD25C,0.0500*%
G36*
X-000250Y017279D02*
X-000300Y017254D01*
X-000351Y017293D01*
X-000466Y017341D01*
X-000590Y017357D01*
X-000714Y017341D01*
X-000829Y017293D01*
X-000928Y017218D01*
X-000955Y017182D01*
X-001002Y017198D01*
Y017835D01*
X-000724D01*
X-000678Y017854D01*
X-000659Y017900D01*
Y018432D01*
X-000678Y018477D01*
X-000724Y018496D01*
X-001256D01*
X-001302Y018477D01*
X-001321Y018432D01*
Y017900D01*
X-001302Y017854D01*
X-001256Y017835D01*
X-001227D01*
Y016727D01*
X-001277Y016702D01*
X-001311Y016728D01*
X-001402Y016766D01*
X-001450Y016772D01*
Y016400D01*
Y016028D01*
X-001402Y016034D01*
X-001311Y016072D01*
X-001277Y016098D01*
X-001227Y016073D01*
Y015832D01*
X-001355Y015703D01*
X-001412Y015727D01*
X-001500Y015738D01*
X-001588Y015727D01*
X-001669Y015693D01*
X-001739Y015639D01*
X-001793Y015569D01*
X-001827Y015488D01*
X-001838Y015400D01*
X-001827Y015312D01*
X-001793Y015231D01*
X-001739Y015161D01*
X-001669Y015107D01*
X-001588Y015073D01*
X-001500Y015062D01*
X-001412Y015073D01*
X-001331Y015107D01*
X-001261Y015161D01*
X-001207Y015231D01*
X-001173Y015312D01*
X-001162Y015400D01*
X-001173Y015488D01*
X-001197Y015545D01*
X-001035Y015706D01*
X-001011Y015743D01*
X-001002Y015786D01*
X-001002Y015786D01*
Y016562D01*
X-000955Y016578D01*
X-000928Y016542D01*
X-000829Y016466D01*
X-000714Y016419D01*
X-000590Y016403D01*
X-000466Y016419D01*
X-000351Y016466D01*
X-000300Y016506D01*
X-000250Y016481D01*
Y008773D01*
X-000300Y008756D01*
X-000362Y008838D01*
X-000461Y008913D01*
X-000576Y008961D01*
X-000700Y008977D01*
X-000824Y008961D01*
X-000939Y008913D01*
X-001038Y008838D01*
X-001113Y008739D01*
X-001161Y008624D01*
X-001177Y008500D01*
X-001161Y008376D01*
X-001113Y008261D01*
X-001038Y008162D01*
X-000939Y008087D01*
X-000824Y008039D01*
X-000700Y008023D01*
X-000576Y008039D01*
X-000461Y008087D01*
X-000362Y008162D01*
X-000300Y008244D01*
X-000250Y008227D01*
Y000250D01*
X-016306D01*
X-016330Y000300D01*
X-016307Y000331D01*
X-016273Y000412D01*
X-016262Y000500D01*
X-016273Y000588D01*
X-016307Y000669D01*
X-016361Y000739D01*
X-016431Y000793D01*
X-016512Y000827D01*
X-016600Y000838D01*
X-016688Y000827D01*
X-016769Y000793D01*
X-016839Y000739D01*
X-016893Y000669D01*
X-016927Y000588D01*
X-016938Y000500D01*
X-016927Y000412D01*
X-016893Y000331D01*
X-016870Y000300D01*
X-016894Y000250D01*
X-017106D01*
X-017130Y000300D01*
X-017107Y000331D01*
X-017073Y000412D01*
X-017062Y000500D01*
X-017073Y000588D01*
X-017107Y000669D01*
X-017161Y000739D01*
X-017231Y000793D01*
X-017312Y000827D01*
X-017400Y000838D01*
X-017488Y000827D01*
X-017569Y000793D01*
X-017639Y000739D01*
X-017693Y000669D01*
X-017727Y000588D01*
X-017738Y000500D01*
X-017727Y000412D01*
X-017693Y000331D01*
X-017670Y000300D01*
X-017694Y000250D01*
X-028750D01*
Y009406D01*
X-028700Y009430D01*
X-028669Y009407D01*
X-028588Y009373D01*
X-028500Y009362D01*
X-028412Y009373D01*
X-028331Y009407D01*
X-028261Y009461D01*
X-028207Y009531D01*
X-028173Y009612D01*
X-028162Y009700D01*
X-028173Y009788D01*
X-028207Y009869D01*
X-028261Y009939D01*
X-028331Y009993D01*
X-028412Y010027D01*
X-028500Y010038D01*
X-028588Y010027D01*
X-028669Y009993D01*
X-028700Y009970D01*
X-028750Y009994D01*
Y012406D01*
X-028700Y012430D01*
X-028669Y012407D01*
X-028588Y012373D01*
X-028500Y012362D01*
X-028412Y012373D01*
X-028331Y012407D01*
X-028261Y012461D01*
X-028207Y012531D01*
X-028173Y012612D01*
X-028162Y012700D01*
X-028173Y012788D01*
X-028207Y012869D01*
X-028261Y012939D01*
X-028331Y012993D01*
X-028412Y013027D01*
X-028500Y013038D01*
X-028588Y013027D01*
X-028669Y012993D01*
X-028700Y012970D01*
X-028750Y012994D01*
Y015947D01*
X-028700Y015971D01*
X-028629Y015917D01*
X-028514Y015869D01*
X-028390Y015853D01*
X-028266Y015869D01*
X-028151Y015917D01*
X-028052Y015992D01*
X-027977Y016091D01*
X-027929Y016206D01*
X-027913Y016330D01*
X-027929Y016454D01*
X-027977Y016569D01*
X-028052Y016668D01*
X-028151Y016744D01*
X-028266Y016791D01*
X-028390Y016807D01*
X-028514Y016791D01*
X-028629Y016744D01*
X-028700Y016689D01*
X-028750Y016713D01*
Y023250D01*
X-002873D01*
X-002856Y023200D01*
X-002938Y023138D01*
X-003013Y023039D01*
X-003061Y022924D01*
X-003077Y022800D01*
X-003061Y022676D01*
X-003013Y022561D01*
X-002938Y022462D01*
X-002839Y022387D01*
X-002724Y022339D01*
X-002600Y022323D01*
X-002476Y022339D01*
X-002361Y022387D01*
X-002262Y022462D01*
X-002186Y022561D01*
X-002139Y022676D01*
X-002123Y022800D01*
X-002139Y022924D01*
X-002186Y023039D01*
X-002262Y023138D01*
X-002344Y023200D01*
X-002327Y023250D01*
X-000250D01*
Y017279D01*
D02*
G37*
%LPC*%
G36*
X-014700Y009058D02*
X-014793Y009046D01*
X-014879Y009010D01*
X-014953Y008953D01*
X-015010Y008879D01*
X-015046Y008793D01*
X-015058Y008700D01*
X-015046Y008607D01*
X-015010Y008521D01*
X-014953Y008447D01*
X-014879Y008390D01*
X-014793Y008354D01*
X-014700Y008342D01*
X-014607Y008354D01*
X-014521Y008390D01*
X-014447Y008447D01*
X-014390Y008521D01*
X-014354Y008607D01*
X-014342Y008700D01*
X-014354Y008793D01*
X-014390Y008879D01*
X-014447Y008953D01*
X-014521Y009010D01*
X-014607Y009046D01*
X-014700Y009058D01*
D02*
G37*
G36*
X-013700D02*
X-013793Y009046D01*
X-013879Y009010D01*
X-013953Y008953D01*
X-014010Y008879D01*
X-014046Y008793D01*
X-014058Y008700D01*
X-014046Y008607D01*
X-014010Y008521D01*
X-013953Y008447D01*
X-013879Y008390D01*
X-013793Y008354D01*
X-013700Y008342D01*
X-013607Y008354D01*
X-013521Y008390D01*
X-013447Y008447D01*
X-013390Y008521D01*
X-013354Y008607D01*
X-013342Y008700D01*
X-013354Y008793D01*
X-013390Y008879D01*
X-013447Y008953D01*
X-013521Y009010D01*
X-013607Y009046D01*
X-013700Y009058D01*
D02*
G37*
G36*
X-003000Y009758D02*
X-003093Y009746D01*
X-003179Y009710D01*
X-003253Y009653D01*
X-003310Y009579D01*
X-003346Y009493D01*
X-003358Y009400D01*
X-003346Y009307D01*
X-003310Y009221D01*
X-003253Y009147D01*
X-003179Y009090D01*
X-003093Y009054D01*
X-003000Y009042D01*
X-002907Y009054D01*
X-002821Y009090D01*
X-002747Y009147D01*
X-002690Y009221D01*
X-002654Y009307D01*
X-002642Y009400D01*
X-002654Y009493D01*
X-002690Y009579D01*
X-002747Y009653D01*
X-002821Y009710D01*
X-002907Y009746D01*
X-003000Y009758D01*
D02*
G37*
G36*
X-004000D02*
X-004093Y009746D01*
X-004179Y009710D01*
X-004253Y009653D01*
X-004310Y009579D01*
X-004346Y009493D01*
X-004358Y009400D01*
X-004346Y009307D01*
X-004310Y009221D01*
X-004253Y009147D01*
X-004179Y009090D01*
X-004093Y009054D01*
X-004000Y009042D01*
X-003907Y009054D01*
X-003821Y009090D01*
X-003747Y009147D01*
X-003690Y009221D01*
X-003654Y009307D01*
X-003642Y009400D01*
X-003654Y009493D01*
X-003690Y009579D01*
X-003747Y009653D01*
X-003821Y009710D01*
X-003907Y009746D01*
X-004000Y009758D01*
D02*
G37*
G36*
X-021400Y016313D02*
X-021481Y016302D01*
X-021556Y016271D01*
X-021621Y016221D01*
X-021671Y016156D01*
X-021702Y016081D01*
X-021713Y016000D01*
X-021702Y015919D01*
X-021671Y015844D01*
X-021621Y015779D01*
X-021556Y015729D01*
X-021512Y015711D01*
Y010755D01*
X-021512Y010755D01*
X-021504Y010712D01*
X-021479Y010675D01*
X-019670Y008866D01*
X-019634Y008842D01*
X-019591Y008833D01*
X-019591Y008833D01*
X-019060D01*
Y008405D01*
X-019041Y008359D01*
X-018995Y008340D01*
X-018405D01*
X-018359Y008359D01*
X-018340Y008405D01*
Y008995D01*
X-018359Y009041D01*
X-018405Y009060D01*
X-018995D01*
X-019002Y009057D01*
X-019544D01*
X-020101Y009614D01*
X-020080Y009664D01*
X-020012Y009673D01*
X-019931Y009707D01*
X-019861Y009761D01*
X-019807Y009831D01*
X-019773Y009912D01*
X-019762Y010000D01*
X-019773Y010088D01*
X-019807Y010169D01*
X-019861Y010239D01*
X-019931Y010293D01*
X-020012Y010327D01*
X-020100Y010338D01*
X-020188Y010327D01*
X-020269Y010293D01*
X-020339Y010239D01*
X-020393Y010169D01*
X-020427Y010088D01*
X-020436Y010020D01*
X-020486Y009999D01*
X-021288Y010801D01*
Y015711D01*
X-021244Y015729D01*
X-021179Y015779D01*
X-021129Y015844D01*
X-021098Y015919D01*
X-021087Y016000D01*
X-021098Y016081D01*
X-021129Y016156D01*
X-021179Y016221D01*
X-021244Y016271D01*
X-021319Y016302D01*
X-021400Y016313D01*
D02*
G37*
G36*
X-016594Y008122D02*
X-016594Y008122D01*
X-017386D01*
X-017386Y008122D01*
X-017428Y008114D01*
X-017465Y008089D01*
X-017465Y008089D01*
X-018252Y007302D01*
X-018906D01*
X-018921Y007352D01*
X-018870Y007418D01*
X-018834Y007506D01*
X-018821Y007600D01*
X-018834Y007694D01*
X-018870Y007782D01*
X-018928Y007857D01*
X-019003Y007914D01*
X-019090Y007951D01*
X-019184Y007963D01*
X-019278Y007951D01*
X-019366Y007914D01*
X-019441Y007857D01*
X-019499Y007782D01*
X-019535Y007694D01*
X-019547Y007600D01*
X-019535Y007506D01*
X-019517Y007462D01*
X-019550Y007412D01*
X-019983D01*
X-020007Y007469D01*
X-020061Y007539D01*
X-020131Y007593D01*
X-020212Y007627D01*
X-020300Y007638D01*
X-020388Y007627D01*
X-020469Y007593D01*
X-020539Y007539D01*
X-020593Y007469D01*
X-020627Y007388D01*
X-020638Y007300D01*
X-020627Y007212D01*
X-020593Y007131D01*
X-020539Y007061D01*
X-020469Y007007D01*
X-020388Y006973D01*
X-020300Y006962D01*
X-020212Y006973D01*
X-020131Y007007D01*
X-020061Y007061D01*
X-020007Y007131D01*
X-019983Y007188D01*
X-019511D01*
X-019433Y007111D01*
X-019433Y007111D01*
X-019397Y007086D01*
X-019354Y007078D01*
X-018206D01*
X-018206Y007078D01*
X-018163Y007086D01*
X-018126Y007111D01*
X-017623Y007614D01*
X-017577Y007589D01*
X-017566Y007506D01*
X-017530Y007418D01*
X-017472Y007343D01*
X-017397Y007286D01*
X-017310Y007249D01*
X-017216Y007237D01*
X-017122Y007249D01*
X-017052Y007278D01*
X-016526Y006751D01*
Y004886D01*
X-016526Y004886D01*
X-016517Y004843D01*
X-016493Y004807D01*
X-015512Y003826D01*
Y002363D01*
X-015524Y002361D01*
X-015639Y002314D01*
X-015738Y002238D01*
X-015813Y002139D01*
X-015861Y002024D01*
X-015877Y001900D01*
X-015861Y001776D01*
X-015813Y001661D01*
X-015738Y001562D01*
X-015639Y001487D01*
X-015524Y001439D01*
X-015400Y001423D01*
X-015276Y001439D01*
X-015161Y001487D01*
X-015062Y001562D01*
X-014986Y001661D01*
X-014939Y001776D01*
X-014923Y001900D01*
X-014939Y002024D01*
X-014986Y002139D01*
X-015062Y002238D01*
X-015161Y002314D01*
X-015276Y002361D01*
X-015288Y002363D01*
Y003873D01*
X-015296Y003916D01*
X-015321Y003952D01*
X-015321Y003952D01*
X-016301Y004933D01*
Y005991D01*
X-016254Y006007D01*
X-016228Y005972D01*
X-016129Y005896D01*
X-016014Y005849D01*
X-015890Y005833D01*
X-015766Y005849D01*
X-015651Y005896D01*
X-015552Y005972D01*
X-015476Y006071D01*
X-015429Y006186D01*
X-015413Y006310D01*
X-015429Y006434D01*
X-015476Y006549D01*
X-015552Y006648D01*
X-015651Y006723D01*
X-015766Y006771D01*
X-015890Y006787D01*
X-016014Y006771D01*
X-016129Y006723D01*
X-016228Y006648D01*
X-016254Y006613D01*
X-016301Y006629D01*
Y006798D01*
X-016310Y006841D01*
X-016334Y006877D01*
X-016334Y006877D01*
X-016894Y007437D01*
X-016865Y007506D01*
X-016853Y007600D01*
X-016865Y007694D01*
X-016901Y007782D01*
X-016952Y007848D01*
X-016938Y007898D01*
X-016641D01*
X-014796Y006053D01*
X-014817Y006001D01*
X-014829Y005916D01*
X-014817Y005831D01*
X-014785Y005751D01*
X-014732Y005683D01*
X-014664Y005631D01*
X-014585Y005598D01*
X-014500Y005587D01*
X-014415Y005598D01*
X-014336Y005631D01*
X-014268Y005683D01*
X-014215Y005751D01*
X-014183Y005831D01*
X-014171Y005916D01*
X-014183Y006001D01*
X-014215Y006080D01*
X-014268Y006148D01*
X-014336Y006200D01*
X-014415Y006233D01*
X-014500Y006244D01*
X-014585Y006233D01*
X-014637Y006212D01*
X-016515Y008089D01*
X-016551Y008114D01*
X-016594Y008122D01*
D02*
G37*
G36*
X-015700Y009058D02*
X-015793Y009046D01*
X-015879Y009010D01*
X-015953Y008953D01*
X-016010Y008879D01*
X-016046Y008793D01*
X-016058Y008700D01*
X-016046Y008607D01*
X-016010Y008521D01*
X-015953Y008447D01*
X-015879Y008390D01*
X-015793Y008354D01*
X-015700Y008342D01*
X-015607Y008354D01*
X-015521Y008390D01*
X-015447Y008447D01*
X-015390Y008521D01*
X-015354Y008607D01*
X-015342Y008700D01*
X-015354Y008793D01*
X-015390Y008879D01*
X-015447Y008953D01*
X-015521Y009010D01*
X-015607Y009046D01*
X-015700Y009058D01*
D02*
G37*
G36*
X-017700D02*
X-017793Y009046D01*
X-017879Y009010D01*
X-017953Y008953D01*
X-018010Y008879D01*
X-018046Y008793D01*
X-018058Y008700D01*
X-018046Y008607D01*
X-018010Y008521D01*
X-017953Y008447D01*
X-017879Y008390D01*
X-017793Y008354D01*
X-017700Y008342D01*
X-017607Y008354D01*
X-017521Y008390D01*
X-017447Y008447D01*
X-017390Y008521D01*
X-017354Y008607D01*
X-017342Y008700D01*
X-017354Y008793D01*
X-017390Y008879D01*
X-017447Y008953D01*
X-017521Y009010D01*
X-017607Y009046D01*
X-017700Y009058D01*
D02*
G37*
G36*
X-024200Y011377D02*
X-024324Y011361D01*
X-024439Y011314D01*
X-024538Y011238D01*
X-024613Y011139D01*
X-024661Y011024D01*
X-024677Y010900D01*
X-024661Y010776D01*
X-024613Y010661D01*
X-024538Y010562D01*
X-024439Y010487D01*
X-024324Y010439D01*
X-024200Y010423D01*
X-024076Y010439D01*
X-023961Y010487D01*
X-023862Y010562D01*
X-023786Y010661D01*
X-023739Y010776D01*
X-023723Y010900D01*
X-023739Y011024D01*
X-023786Y011139D01*
X-023862Y011238D01*
X-023961Y011314D01*
X-024076Y011361D01*
X-024200Y011377D01*
D02*
G37*
G36*
X-001000Y010977D02*
X-001124Y010961D01*
X-001239Y010913D01*
X-001338Y010838D01*
X-001414Y010739D01*
X-001461Y010624D01*
X-001477Y010500D01*
X-001461Y010376D01*
X-001414Y010261D01*
X-001338Y010162D01*
X-001239Y010086D01*
X-001124Y010039D01*
X-001000Y010023D01*
X-000876Y010039D01*
X-000761Y010086D01*
X-000662Y010162D01*
X-000586Y010261D01*
X-000539Y010376D01*
X-000523Y010500D01*
X-000539Y010624D01*
X-000586Y010739D01*
X-000662Y010838D01*
X-000761Y010913D01*
X-000876Y010961D01*
X-001000Y010977D01*
D02*
G37*
G36*
X-010603Y010834D02*
X-010950D01*
Y010487D01*
X-010896Y010495D01*
X-010798Y010535D01*
X-010715Y010599D01*
X-010651Y010683D01*
X-010610Y010780D01*
X-010603Y010834D01*
D02*
G37*
G36*
X-011050D02*
X-011397D01*
X-011390Y010780D01*
X-011349Y010683D01*
X-011285Y010599D01*
X-011202Y010535D01*
X-011104Y010495D01*
X-011050Y010487D01*
Y010834D01*
D02*
G37*
G36*
X-026700Y010038D02*
X-026788Y010027D01*
X-026869Y009993D01*
X-026939Y009939D01*
X-026993Y009869D01*
X-027027Y009788D01*
X-027038Y009700D01*
X-027027Y009612D01*
X-026993Y009531D01*
X-026939Y009461D01*
X-026869Y009407D01*
X-026788Y009373D01*
X-026700Y009362D01*
X-026612Y009373D01*
X-026531Y009407D01*
X-026461Y009461D01*
X-026407Y009531D01*
X-026373Y009612D01*
X-026362Y009700D01*
X-026373Y009788D01*
X-026407Y009869D01*
X-026461Y009939D01*
X-026531Y009993D01*
X-026612Y010027D01*
X-026700Y010038D01*
D02*
G37*
G36*
X-027600D02*
X-027688Y010027D01*
X-027769Y009993D01*
X-027839Y009939D01*
X-027893Y009869D01*
X-027927Y009788D01*
X-027938Y009700D01*
X-027927Y009612D01*
X-027893Y009531D01*
X-027839Y009461D01*
X-027769Y009407D01*
X-027688Y009373D01*
X-027600Y009362D01*
X-027512Y009373D01*
X-027431Y009407D01*
X-027361Y009461D01*
X-027307Y009531D01*
X-027273Y009612D01*
X-027262Y009700D01*
X-027273Y009788D01*
X-027307Y009869D01*
X-027361Y009939D01*
X-027431Y009993D01*
X-027512Y010027D01*
X-027600Y010038D01*
D02*
G37*
G36*
X-025800Y010977D02*
X-025924Y010961D01*
X-026039Y010913D01*
X-026138Y010838D01*
X-026214Y010739D01*
X-026261Y010624D01*
X-026277Y010500D01*
X-026261Y010376D01*
X-026214Y010261D01*
X-026138Y010162D01*
X-026039Y010086D01*
X-025924Y010039D01*
X-025800Y010023D01*
X-025676Y010039D01*
X-025561Y010086D01*
X-025462Y010162D01*
X-025387Y010261D01*
X-025339Y010376D01*
X-025323Y010500D01*
X-025339Y010624D01*
X-025387Y010739D01*
X-025462Y010838D01*
X-025561Y010913D01*
X-025676Y010961D01*
X-025800Y010977D01*
D02*
G37*
G36*
X-022728Y009950D02*
X-023050D01*
Y009628D01*
X-023002Y009634D01*
X-022911Y009672D01*
X-022832Y009732D01*
X-022772Y009811D01*
X-022734Y009902D01*
X-022728Y009950D01*
D02*
G37*
G36*
X-020200Y008738D02*
X-020288Y008727D01*
X-020369Y008693D01*
X-020439Y008639D01*
X-020493Y008569D01*
X-020527Y008488D01*
X-020538Y008400D01*
X-020527Y008312D01*
X-020493Y008231D01*
X-020439Y008161D01*
X-020369Y008107D01*
X-020288Y008073D01*
X-020200Y008062D01*
X-020112Y008073D01*
X-020031Y008107D01*
X-019961Y008161D01*
X-019907Y008231D01*
X-019873Y008312D01*
X-019862Y008400D01*
X-019873Y008488D01*
X-019907Y008569D01*
X-019961Y008639D01*
X-020031Y008693D01*
X-020112Y008727D01*
X-020200Y008738D01*
D02*
G37*
G36*
X-021200Y007638D02*
X-021288Y007627D01*
X-021369Y007593D01*
X-021439Y007539D01*
X-021493Y007469D01*
X-021527Y007388D01*
X-021538Y007300D01*
X-021527Y007212D01*
X-021493Y007131D01*
X-021439Y007061D01*
X-021369Y007007D01*
X-021288Y006973D01*
X-021200Y006962D01*
X-021112Y006973D01*
X-021031Y007007D01*
X-020961Y007061D01*
X-020907Y007131D01*
X-020873Y007212D01*
X-020862Y007300D01*
X-020873Y007388D01*
X-020907Y007469D01*
X-020961Y007539D01*
X-021031Y007593D01*
X-021112Y007627D01*
X-021200Y007638D01*
D02*
G37*
G36*
X-022000D02*
X-022088Y007627D01*
X-022169Y007593D01*
X-022239Y007539D01*
X-022293Y007469D01*
X-022327Y007388D01*
X-022338Y007300D01*
X-022327Y007212D01*
X-022293Y007131D01*
X-022239Y007061D01*
X-022169Y007007D01*
X-022088Y006973D01*
X-022000Y006962D01*
X-021912Y006973D01*
X-021831Y007007D01*
X-021761Y007061D01*
X-021707Y007131D01*
X-021673Y007212D01*
X-021662Y007300D01*
X-021673Y007388D01*
X-021707Y007469D01*
X-021761Y007539D01*
X-021831Y007593D01*
X-021912Y007627D01*
X-022000Y007638D01*
D02*
G37*
G36*
X-025000Y007738D02*
X-025088Y007727D01*
X-025169Y007693D01*
X-025239Y007639D01*
X-025293Y007569D01*
X-025327Y007488D01*
X-025338Y007400D01*
X-025327Y007312D01*
X-025293Y007231D01*
X-025239Y007161D01*
X-025169Y007107D01*
X-025088Y007073D01*
X-025000Y007062D01*
X-024912Y007073D01*
X-024831Y007107D01*
X-024761Y007161D01*
X-024707Y007231D01*
X-024673Y007312D01*
X-024662Y007400D01*
X-024673Y007488D01*
X-024707Y007569D01*
X-024761Y007639D01*
X-024831Y007693D01*
X-024912Y007727D01*
X-025000Y007738D01*
D02*
G37*
G36*
X-027500D02*
X-027588Y007727D01*
X-027669Y007693D01*
X-027739Y007639D01*
X-027793Y007569D01*
X-027827Y007488D01*
X-027838Y007400D01*
X-027827Y007312D01*
X-027793Y007231D01*
X-027739Y007161D01*
X-027669Y007107D01*
X-027588Y007073D01*
X-027500Y007062D01*
X-027412Y007073D01*
X-027331Y007107D01*
X-027261Y007161D01*
X-027207Y007231D01*
X-027173Y007312D01*
X-027162Y007400D01*
X-027173Y007488D01*
X-027207Y007569D01*
X-027261Y007639D01*
X-027331Y007693D01*
X-027412Y007727D01*
X-027500Y007738D01*
D02*
G37*
G36*
X-005516Y008229D02*
X-005601Y008217D01*
X-005680Y008185D01*
X-005748Y008132D01*
X-005800Y008064D01*
X-005833Y007985D01*
X-005844Y007900D01*
X-005833Y007815D01*
X-005800Y007736D01*
X-005748Y007668D01*
X-005680Y007615D01*
X-005601Y007583D01*
X-005516Y007571D01*
X-005431Y007583D01*
X-005379Y007604D01*
X-005218Y007444D01*
Y006178D01*
X-005268Y006164D01*
X-005334Y006214D01*
X-005422Y006251D01*
X-005516Y006263D01*
X-005610Y006251D01*
X-005697Y006214D01*
X-005773Y006157D01*
X-005830Y006082D01*
X-005866Y005994D01*
X-005879Y005900D01*
X-005866Y005806D01*
X-005830Y005718D01*
X-005773Y005643D01*
X-005697Y005586D01*
X-005610Y005549D01*
X-005516Y005537D01*
X-005422Y005549D01*
X-005334Y005586D01*
X-005268Y005636D01*
X-005218Y005622D01*
Y004886D01*
X-005465Y004639D01*
X-005489Y004603D01*
X-005498Y004560D01*
X-005498Y004560D01*
Y003786D01*
X-005498Y003786D01*
X-005489Y003743D01*
X-005465Y003706D01*
X-005303Y003545D01*
X-005327Y003488D01*
X-005338Y003400D01*
X-005327Y003312D01*
X-005293Y003231D01*
X-005239Y003161D01*
X-005169Y003107D01*
X-005088Y003073D01*
X-005000Y003062D01*
X-004912Y003073D01*
X-004831Y003107D01*
X-004761Y003161D01*
X-004707Y003231D01*
X-004673Y003312D01*
X-004662Y003400D01*
X-004673Y003488D01*
X-004707Y003569D01*
X-004761Y003639D01*
X-004831Y003693D01*
X-004912Y003727D01*
X-005000Y003738D01*
X-005088Y003727D01*
X-005145Y003703D01*
X-005273Y003832D01*
Y004127D01*
X-005223Y004148D01*
X-005169Y004107D01*
X-005088Y004073D01*
X-005000Y004062D01*
X-004912Y004073D01*
X-004831Y004107D01*
X-004761Y004161D01*
X-004707Y004231D01*
X-004673Y004312D01*
X-004662Y004400D01*
X-004673Y004488D01*
X-004707Y004569D01*
X-004761Y004639D01*
X-004831Y004693D01*
X-004912Y004727D01*
X-004982Y004736D01*
X-005006Y004775D01*
X-005008Y004788D01*
X-005002Y004797D01*
X-004994Y004840D01*
X-004994Y004840D01*
Y007490D01*
X-004994Y007490D01*
X-005002Y007533D01*
X-005026Y007569D01*
X-005026Y007569D01*
X-005220Y007763D01*
X-005198Y007815D01*
X-005187Y007900D01*
X-005198Y007985D01*
X-005231Y008064D01*
X-005283Y008132D01*
X-005351Y008185D01*
X-005431Y008217D01*
X-005516Y008229D01*
D02*
G37*
G36*
X-010000Y006838D02*
X-010088Y006827D01*
X-010169Y006793D01*
X-010239Y006739D01*
X-010293Y006669D01*
X-010327Y006588D01*
X-010338Y006500D01*
X-010327Y006412D01*
X-010293Y006331D01*
X-010239Y006261D01*
X-010169Y006207D01*
X-010088Y006173D01*
X-010000Y006162D01*
X-009912Y006173D01*
X-009831Y006207D01*
X-009761Y006261D01*
X-009707Y006331D01*
X-009673Y006412D01*
X-009662Y006500D01*
X-009673Y006588D01*
X-009707Y006669D01*
X-009761Y006739D01*
X-009831Y006793D01*
X-009912Y006827D01*
X-010000Y006838D01*
D02*
G37*
G36*
X-022800Y007638D02*
X-022888Y007627D01*
X-022969Y007593D01*
X-023039Y007539D01*
X-023093Y007469D01*
X-023127Y007388D01*
X-023138Y007300D01*
X-023127Y007212D01*
X-023093Y007131D01*
X-023039Y007061D01*
X-022969Y007007D01*
X-022888Y006973D01*
X-022800Y006962D01*
X-022712Y006973D01*
X-022631Y007007D01*
X-022561Y007061D01*
X-022507Y007131D01*
X-022473Y007212D01*
X-022462Y007300D01*
X-022473Y007388D01*
X-022507Y007469D01*
X-022561Y007539D01*
X-022631Y007593D01*
X-022712Y007627D01*
X-022800Y007638D01*
D02*
G37*
G36*
X-003984Y008263D02*
X-004078Y008251D01*
X-004166Y008214D01*
X-004241Y008157D01*
X-004299Y008082D01*
X-004335Y007994D01*
X-004347Y007900D01*
X-004335Y007806D01*
X-004299Y007718D01*
X-004241Y007643D01*
X-004166Y007586D01*
X-004078Y007549D01*
X-004027Y007542D01*
Y006427D01*
X-004077Y006402D01*
X-004111Y006428D01*
X-004202Y006466D01*
X-004250Y006472D01*
Y006100D01*
Y005728D01*
X-004202Y005734D01*
X-004111Y005772D01*
X-004077Y005798D01*
X-004027Y005773D01*
Y005577D01*
X-004465Y005139D01*
X-004489Y005103D01*
X-004498Y005060D01*
X-004498Y005060D01*
Y002286D01*
X-004498Y002286D01*
X-004489Y002243D01*
X-004465Y002206D01*
X-004303Y002045D01*
X-004327Y001988D01*
X-004338Y001900D01*
X-004327Y001812D01*
X-004293Y001731D01*
X-004239Y001661D01*
X-004169Y001607D01*
X-004088Y001573D01*
X-004000Y001562D01*
X-003912Y001573D01*
X-003831Y001607D01*
X-003761Y001661D01*
X-003707Y001731D01*
X-003673Y001812D01*
X-003662Y001900D01*
X-003673Y001988D01*
X-003707Y002069D01*
X-003761Y002139D01*
X-003831Y002193D01*
X-003912Y002227D01*
X-004000Y002238D01*
X-004088Y002227D01*
X-004145Y002203D01*
X-004273Y002332D01*
Y004573D01*
X-004223Y004598D01*
X-004189Y004572D01*
X-004098Y004534D01*
X-004050Y004528D01*
Y004900D01*
X-004000D01*
Y004950D01*
X-003628D01*
X-003634Y004998D01*
X-003672Y005089D01*
X-003732Y005168D01*
X-003811Y005228D01*
X-003902Y005266D01*
X-003944Y005272D01*
X-003962Y005324D01*
X-003835Y005452D01*
X-003811Y005488D01*
X-003802Y005531D01*
X-003802Y005531D01*
Y007586D01*
X-003728Y007643D01*
X-003670Y007718D01*
X-003634Y007806D01*
X-003621Y007900D01*
X-003634Y007994D01*
X-003670Y008082D01*
X-003728Y008157D01*
X-003803Y008214D01*
X-003890Y008251D01*
X-003984Y008263D01*
D02*
G37*
G36*
X-027000Y008777D02*
X-027124Y008761D01*
X-027239Y008713D01*
X-027338Y008638D01*
X-027413Y008539D01*
X-027461Y008424D01*
X-027477Y008300D01*
X-027461Y008176D01*
X-027413Y008061D01*
X-027338Y007962D01*
X-027239Y007886D01*
X-027124Y007839D01*
X-027000Y007823D01*
X-026876Y007839D01*
X-026761Y007886D01*
X-026662Y007962D01*
X-026586Y008061D01*
X-026539Y008176D01*
X-026523Y008300D01*
X-026539Y008424D01*
X-026586Y008539D01*
X-026662Y008638D01*
X-026761Y008713D01*
X-026876Y008761D01*
X-027000Y008777D01*
D02*
G37*
G36*
X-007218Y008231D02*
X-007750D01*
X-007796Y008212D01*
X-007815Y008166D01*
Y007634D01*
X-007796Y007588D01*
X-007750Y007569D01*
X-007218D01*
X-007173Y007588D01*
X-007154Y007634D01*
Y008166D01*
X-007173Y008212D01*
X-007218Y008231D01*
D02*
G37*
G36*
X-023200Y008738D02*
X-023288Y008727D01*
X-023369Y008693D01*
X-023439Y008639D01*
X-023493Y008569D01*
X-023527Y008488D01*
X-023538Y008400D01*
X-023527Y008312D01*
X-023493Y008231D01*
X-023439Y008161D01*
X-023369Y008107D01*
X-023288Y008073D01*
X-023200Y008062D01*
X-023112Y008073D01*
X-023031Y008107D01*
X-022961Y008161D01*
X-022907Y008231D01*
X-022873Y008312D01*
X-022862Y008400D01*
X-022873Y008488D01*
X-022907Y008569D01*
X-022961Y008639D01*
X-023031Y008693D01*
X-023112Y008727D01*
X-023200Y008738D01*
D02*
G37*
G36*
X-008628Y008350D02*
X-008950D01*
Y008028D01*
X-008902Y008034D01*
X-008811Y008072D01*
X-008732Y008132D01*
X-008672Y008211D01*
X-008634Y008302D01*
X-008628Y008350D01*
D02*
G37*
G36*
X-010000Y007738D02*
X-010088Y007727D01*
X-010169Y007693D01*
X-010239Y007639D01*
X-010293Y007569D01*
X-010327Y007488D01*
X-010338Y007400D01*
X-010327Y007312D01*
X-010293Y007231D01*
X-010239Y007161D01*
X-010169Y007107D01*
X-010088Y007073D01*
X-010000Y007062D01*
X-009912Y007073D01*
X-009831Y007107D01*
X-009761Y007161D01*
X-009707Y007231D01*
X-009673Y007312D01*
X-009662Y007400D01*
X-009673Y007488D01*
X-009707Y007569D01*
X-009761Y007639D01*
X-009831Y007693D01*
X-009912Y007727D01*
X-010000Y007738D01*
D02*
G37*
G36*
X-013000D02*
X-013088Y007727D01*
X-013169Y007693D01*
X-013239Y007639D01*
X-013293Y007569D01*
X-013327Y007488D01*
X-013338Y007400D01*
X-013327Y007312D01*
X-013293Y007231D01*
X-013239Y007161D01*
X-013169Y007107D01*
X-013088Y007073D01*
X-013000Y007062D01*
X-012912Y007073D01*
X-012831Y007107D01*
X-012761Y007161D01*
X-012707Y007231D01*
X-012673Y007312D01*
X-012662Y007400D01*
X-012673Y007488D01*
X-012707Y007569D01*
X-012761Y007639D01*
X-012831Y007693D01*
X-012912Y007727D01*
X-013000Y007738D01*
D02*
G37*
G36*
X-014234Y008215D02*
X-014766D01*
X-014812Y008196D01*
X-014831Y008150D01*
Y007618D01*
X-014812Y007573D01*
X-014766Y007554D01*
X-014234D01*
X-014188Y007573D01*
X-014169Y007618D01*
Y008150D01*
X-014188Y008196D01*
X-014234Y008215D01*
D02*
G37*
G36*
X-002016Y008263D02*
X-002110Y008251D01*
X-002197Y008214D01*
X-002272Y008157D01*
X-002330Y008082D01*
X-002366Y007994D01*
X-002379Y007900D01*
X-002366Y007806D01*
X-002330Y007718D01*
X-002272Y007643D01*
X-002197Y007586D01*
X-002110Y007549D01*
X-002016Y007537D01*
X-001922Y007549D01*
X-001834Y007586D01*
X-001759Y007643D01*
X-001701Y007718D01*
X-001665Y007806D01*
X-001653Y007900D01*
X-001665Y007994D01*
X-001701Y008082D01*
X-001759Y008157D01*
X-001834Y008214D01*
X-001922Y008251D01*
X-002016Y008263D01*
D02*
G37*
G36*
X-026750Y012650D02*
X-027072D01*
X-027066Y012602D01*
X-027028Y012511D01*
X-026968Y012432D01*
X-026889Y012372D01*
X-026798Y012334D01*
X-026750Y012328D01*
Y012650D01*
D02*
G37*
G36*
X-018800Y013177D02*
X-018924Y013161D01*
X-019039Y013113D01*
X-019138Y013038D01*
X-019214Y012939D01*
X-019261Y012824D01*
X-019277Y012700D01*
X-019261Y012576D01*
X-019214Y012461D01*
X-019138Y012362D01*
X-019039Y012286D01*
X-018924Y012239D01*
X-018800Y012223D01*
X-018676Y012239D01*
X-018561Y012286D01*
X-018462Y012362D01*
X-018386Y012461D01*
X-018339Y012576D01*
X-018323Y012700D01*
X-018339Y012824D01*
X-018386Y012939D01*
X-018462Y013038D01*
X-018561Y013113D01*
X-018676Y013161D01*
X-018800Y013177D01*
D02*
G37*
G36*
X-025934Y012650D02*
X-026247D01*
X-026241Y012605D01*
X-026204Y012516D01*
X-026145Y012439D01*
X-026069Y012381D01*
X-025980Y012344D01*
X-025934Y012338D01*
Y012650D01*
D02*
G37*
G36*
X-026328Y012650D02*
X-026650D01*
Y012328D01*
X-026602Y012334D01*
X-026511Y012372D01*
X-026432Y012432D01*
X-026372Y012511D01*
X-026334Y012602D01*
X-026328Y012650D01*
D02*
G37*
G36*
X-017500Y012838D02*
X-017588Y012827D01*
X-017669Y012793D01*
X-017739Y012739D01*
X-017793Y012669D01*
X-017827Y012588D01*
X-017838Y012500D01*
X-017827Y012412D01*
X-017793Y012331D01*
X-017739Y012261D01*
X-017669Y012207D01*
X-017588Y012173D01*
X-017500Y012162D01*
X-017412Y012173D01*
X-017331Y012207D01*
X-017261Y012261D01*
X-017207Y012331D01*
X-017173Y012412D01*
X-017162Y012500D01*
X-017173Y012588D01*
X-017207Y012669D01*
X-017261Y012739D01*
X-017331Y012793D01*
X-017412Y012827D01*
X-017500Y012838D01*
D02*
G37*
G36*
X-012128Y012450D02*
X-012450D01*
Y012128D01*
X-012402Y012134D01*
X-012311Y012172D01*
X-012232Y012232D01*
X-012172Y012311D01*
X-012134Y012402D01*
X-012128Y012450D01*
D02*
G37*
G36*
X-013500Y012838D02*
X-013588Y012827D01*
X-013669Y012793D01*
X-013739Y012739D01*
X-013793Y012669D01*
X-013827Y012588D01*
X-013838Y012500D01*
X-013827Y012412D01*
X-013793Y012331D01*
X-013739Y012261D01*
X-013669Y012207D01*
X-013588Y012173D01*
X-013500Y012162D01*
X-013412Y012173D01*
X-013331Y012207D01*
X-013261Y012261D01*
X-013207Y012331D01*
X-013173Y012412D01*
X-013162Y012500D01*
X-013173Y012588D01*
X-013207Y012669D01*
X-013261Y012739D01*
X-013331Y012793D01*
X-013412Y012827D01*
X-013500Y012838D01*
D02*
G37*
G36*
X-014500D02*
X-014588Y012827D01*
X-014669Y012793D01*
X-014739Y012739D01*
X-014793Y012669D01*
X-014827Y012588D01*
X-014838Y012500D01*
X-014827Y012412D01*
X-014793Y012331D01*
X-014739Y012261D01*
X-014669Y012207D01*
X-014588Y012173D01*
X-014500Y012162D01*
X-014412Y012173D01*
X-014331Y012207D01*
X-014261Y012261D01*
X-014207Y012331D01*
X-014173Y012412D01*
X-014162Y012500D01*
X-014173Y012588D01*
X-014207Y012669D01*
X-014261Y012739D01*
X-014331Y012793D01*
X-014412Y012827D01*
X-014500Y012838D01*
D02*
G37*
G36*
X-012550Y012872D02*
X-012598Y012866D01*
X-012689Y012828D01*
X-012768Y012768D01*
X-012828Y012689D01*
X-012866Y012598D01*
X-012872Y012550D01*
X-012550D01*
Y012872D01*
D02*
G37*
G36*
X-023650Y013031D02*
X-024181D01*
X-024227Y013012D01*
X-024246Y012966D01*
Y012434D01*
X-024227Y012388D01*
X-024181Y012369D01*
X-023650D01*
X-023604Y012388D01*
X-023585Y012434D01*
Y012966D01*
X-023604Y013012D01*
X-023650Y013031D01*
D02*
G37*
G36*
X-026750Y013072D02*
X-026798Y013066D01*
X-026889Y013028D01*
X-026968Y012968D01*
X-027028Y012889D01*
X-027066Y012798D01*
X-027072Y012750D01*
X-026750D01*
Y013072D01*
D02*
G37*
G36*
X-012450Y012872D02*
Y012550D01*
X-012128D01*
X-012134Y012598D01*
X-012172Y012689D01*
X-012232Y012768D01*
X-012311Y012828D01*
X-012402Y012866D01*
X-012450Y012872D01*
D02*
G37*
G36*
X-027600Y013038D02*
X-027688Y013027D01*
X-027769Y012993D01*
X-027839Y012939D01*
X-027893Y012869D01*
X-027927Y012788D01*
X-027938Y012700D01*
X-027927Y012612D01*
X-027893Y012531D01*
X-027839Y012461D01*
X-027769Y012407D01*
X-027688Y012373D01*
X-027600Y012362D01*
X-027512Y012373D01*
X-027431Y012407D01*
X-027361Y012461D01*
X-027307Y012531D01*
X-027273Y012612D01*
X-027262Y012700D01*
X-027273Y012788D01*
X-027307Y012869D01*
X-027361Y012939D01*
X-027431Y012993D01*
X-027512Y013027D01*
X-027600Y013038D01*
D02*
G37*
G36*
X-025522Y012650D02*
X-025834D01*
Y012338D01*
X-025789Y012344D01*
X-025700Y012381D01*
X-025623Y012439D01*
X-025565Y012516D01*
X-025528Y012605D01*
X-025522Y012650D01*
D02*
G37*
G36*
X-020100Y013038D02*
X-020188Y013027D01*
X-020269Y012993D01*
X-020339Y012939D01*
X-020393Y012869D01*
X-020427Y012788D01*
X-020438Y012700D01*
X-020427Y012612D01*
X-020393Y012531D01*
X-020339Y012461D01*
X-020269Y012407D01*
X-020188Y012373D01*
X-020100Y012362D01*
X-020012Y012373D01*
X-019931Y012407D01*
X-019861Y012461D01*
X-019807Y012531D01*
X-019773Y012612D01*
X-019762Y012700D01*
X-019773Y012788D01*
X-019807Y012869D01*
X-019861Y012939D01*
X-019931Y012993D01*
X-020012Y013027D01*
X-020100Y013038D01*
D02*
G37*
G36*
X-023100D02*
X-023188Y013027D01*
X-023269Y012993D01*
X-023339Y012939D01*
X-023393Y012869D01*
X-023427Y012788D01*
X-023438Y012700D01*
X-023427Y012612D01*
X-023393Y012531D01*
X-023339Y012461D01*
X-023269Y012407D01*
X-023188Y012373D01*
X-023100Y012362D01*
X-023012Y012373D01*
X-022931Y012407D01*
X-022861Y012461D01*
X-022807Y012531D01*
X-022773Y012612D01*
X-022762Y012700D01*
X-022773Y012788D01*
X-022807Y012869D01*
X-022861Y012939D01*
X-022931Y012993D01*
X-023012Y013027D01*
X-023100Y013038D01*
D02*
G37*
G36*
X-012550Y012450D02*
X-012872D01*
X-012866Y012402D01*
X-012828Y012311D01*
X-012768Y012232D01*
X-012689Y012172D01*
X-012598Y012134D01*
X-012550Y012128D01*
Y012450D01*
D02*
G37*
G36*
X-015750Y011650D02*
X-016092D01*
X-016085Y011597D01*
X-016045Y011501D01*
X-015982Y011418D01*
X-015899Y011355D01*
X-015803Y011315D01*
X-015750Y011308D01*
Y011650D01*
D02*
G37*
G36*
X-023100Y012238D02*
X-023188Y012227D01*
X-023269Y012193D01*
X-023339Y012139D01*
X-023393Y012069D01*
X-023427Y011988D01*
X-023438Y011900D01*
X-023427Y011812D01*
X-023393Y011731D01*
X-023339Y011661D01*
X-023269Y011607D01*
X-023188Y011573D01*
X-023100Y011562D01*
X-023012Y011573D01*
X-022955Y011597D01*
X-022827Y011468D01*
Y011227D01*
X-022877Y011202D01*
X-022911Y011228D01*
X-023002Y011266D01*
X-023050Y011272D01*
Y010900D01*
X-023100D01*
Y010850D01*
X-023472D01*
X-023466Y010802D01*
X-023428Y010711D01*
X-023368Y010632D01*
X-023297Y010578D01*
X-023280Y010525D01*
X-023280Y010524D01*
X-023565Y010239D01*
X-023589Y010203D01*
X-023598Y010160D01*
X-023598Y010160D01*
Y009821D01*
X-023683Y009735D01*
X-023728Y009757D01*
X-023723Y009800D01*
X-023739Y009924D01*
X-023786Y010039D01*
X-023862Y010138D01*
X-023961Y010214D01*
X-024076Y010261D01*
X-024200Y010277D01*
X-024324Y010261D01*
X-024439Y010214D01*
X-024538Y010138D01*
X-024613Y010039D01*
X-024661Y009924D01*
X-024677Y009800D01*
X-024661Y009676D01*
X-024613Y009561D01*
X-024538Y009462D01*
X-024439Y009387D01*
X-024324Y009339D01*
X-024200Y009323D01*
X-024157Y009328D01*
X-024135Y009283D01*
X-024473Y008946D01*
X-024561Y009014D01*
X-024676Y009061D01*
X-024800Y009077D01*
X-024924Y009061D01*
X-025039Y009014D01*
X-025138Y008938D01*
X-025213Y008839D01*
X-025261Y008724D01*
X-025277Y008600D01*
X-025261Y008476D01*
X-025213Y008361D01*
X-025138Y008262D01*
X-025039Y008187D01*
X-024924Y008139D01*
X-024800Y008123D01*
X-024676Y008139D01*
X-024561Y008187D01*
X-024462Y008262D01*
X-024386Y008361D01*
X-024339Y008476D01*
X-024323Y008600D01*
X-024339Y008724D01*
X-024350Y008751D01*
X-023406Y009695D01*
X-023403Y009699D01*
X-023402Y009700D01*
X-023339Y009710D01*
X-023289Y009672D01*
X-023198Y009634D01*
X-023150Y009628D01*
Y010000D01*
X-023100D01*
Y010050D01*
X-022728D01*
X-022734Y010098D01*
X-022772Y010189D01*
X-022832Y010268D01*
X-022911Y010328D01*
X-022927Y010335D01*
X-022944Y010396D01*
X-022940Y010402D01*
X-022897Y010411D01*
X-022861Y010435D01*
X-022635Y010661D01*
X-022611Y010697D01*
X-022602Y010740D01*
X-022602Y010740D01*
Y011514D01*
X-022602Y011514D01*
X-022611Y011557D01*
X-022635Y011594D01*
X-022797Y011755D01*
X-022773Y011812D01*
X-022762Y011900D01*
X-022773Y011988D01*
X-022807Y012069D01*
X-022861Y012139D01*
X-022931Y012193D01*
X-023012Y012227D01*
X-023100Y012238D01*
D02*
G37*
G36*
X-018700Y012058D02*
X-018793Y012046D01*
X-018879Y012010D01*
X-018953Y011953D01*
X-019010Y011879D01*
X-019046Y011793D01*
X-019058Y011700D01*
X-019046Y011607D01*
X-019010Y011521D01*
X-018953Y011447D01*
X-018879Y011390D01*
X-018793Y011354D01*
X-018700Y011342D01*
X-018607Y011354D01*
X-018521Y011390D01*
X-018447Y011447D01*
X-018390Y011521D01*
X-018354Y011607D01*
X-018342Y011700D01*
X-018354Y011793D01*
X-018390Y011879D01*
X-018447Y011953D01*
X-018521Y012010D01*
X-018607Y012046D01*
X-018700Y012058D01*
D02*
G37*
G36*
X-015308Y011650D02*
X-015650D01*
Y011308D01*
X-015597Y011315D01*
X-015501Y011355D01*
X-015418Y011418D01*
X-015355Y011501D01*
X-015315Y011597D01*
X-015308Y011650D01*
D02*
G37*
G36*
X-011050Y011281D02*
X-011104Y011274D01*
X-011202Y011234D01*
X-011285Y011170D01*
X-011349Y011086D01*
X-011390Y010989D01*
X-011397Y010934D01*
X-011050D01*
Y011281D01*
D02*
G37*
G36*
X-020100Y011238D02*
X-020188Y011227D01*
X-020269Y011193D01*
X-020339Y011139D01*
X-020393Y011069D01*
X-020427Y010988D01*
X-020438Y010900D01*
X-020427Y010812D01*
X-020393Y010731D01*
X-020339Y010661D01*
X-020269Y010607D01*
X-020188Y010573D01*
X-020100Y010562D01*
X-020012Y010573D01*
X-019931Y010607D01*
X-019861Y010661D01*
X-019807Y010731D01*
X-019773Y010812D01*
X-019762Y010900D01*
X-019773Y010988D01*
X-019807Y011069D01*
X-019861Y011139D01*
X-019931Y011193D01*
X-020012Y011227D01*
X-020100Y011238D01*
D02*
G37*
G36*
X-023150Y011272D02*
X-023198Y011266D01*
X-023289Y011228D01*
X-023368Y011168D01*
X-023428Y011089D01*
X-023466Y010998D01*
X-023472Y010950D01*
X-023150D01*
Y011272D01*
D02*
G37*
G36*
X-010950Y011281D02*
Y010934D01*
X-010603D01*
X-010610Y010989D01*
X-010651Y011086D01*
X-010715Y011170D01*
X-010798Y011234D01*
X-010896Y011274D01*
X-010950Y011281D01*
D02*
G37*
G36*
X-000700Y012338D02*
X-000788Y012327D01*
X-000869Y012293D01*
X-000939Y012239D01*
X-000993Y012169D01*
X-001027Y012088D01*
X-001038Y012000D01*
X-001027Y011912D01*
X-000993Y011831D01*
X-000939Y011761D01*
X-000869Y011707D01*
X-000788Y011673D01*
X-000700Y011662D01*
X-000612Y011673D01*
X-000531Y011707D01*
X-000461Y011761D01*
X-000407Y011831D01*
X-000373Y011912D01*
X-000362Y012000D01*
X-000373Y012088D01*
X-000407Y012169D01*
X-000461Y012239D01*
X-000531Y012293D01*
X-000612Y012327D01*
X-000700Y012338D01*
D02*
G37*
G36*
X-020100Y012238D02*
X-020188Y012227D01*
X-020269Y012193D01*
X-020339Y012139D01*
X-020393Y012069D01*
X-020427Y011988D01*
X-020438Y011900D01*
X-020427Y011812D01*
X-020393Y011731D01*
X-020339Y011661D01*
X-020269Y011607D01*
X-020188Y011573D01*
X-020100Y011562D01*
X-020012Y011573D01*
X-019931Y011607D01*
X-019861Y011661D01*
X-019807Y011731D01*
X-019773Y011812D01*
X-019762Y011900D01*
X-019773Y011988D01*
X-019807Y012069D01*
X-019861Y012139D01*
X-019931Y012193D01*
X-020012Y012227D01*
X-020100Y012238D01*
D02*
G37*
G36*
X-016500Y012738D02*
X-016588Y012727D01*
X-016669Y012693D01*
X-016739Y012639D01*
X-016793Y012569D01*
X-016827Y012488D01*
X-016838Y012400D01*
X-016827Y012312D01*
X-016793Y012231D01*
X-016739Y012161D01*
X-016669Y012107D01*
X-016662Y012104D01*
X-016675Y012055D01*
X-016700Y012058D01*
X-016793Y012046D01*
X-016879Y012010D01*
X-016953Y011953D01*
X-017010Y011879D01*
X-017046Y011793D01*
X-017058Y011700D01*
X-017046Y011607D01*
X-017010Y011521D01*
X-016953Y011447D01*
X-016879Y011390D01*
X-016793Y011354D01*
X-016700Y011342D01*
X-016607Y011354D01*
X-016521Y011390D01*
X-016447Y011447D01*
X-016390Y011521D01*
X-016354Y011607D01*
X-016342Y011700D01*
X-016354Y011793D01*
X-016390Y011879D01*
X-016447Y011953D01*
X-016521Y012010D01*
X-016533Y012015D01*
X-016520Y012064D01*
X-016500Y012062D01*
X-016412Y012073D01*
X-016331Y012107D01*
X-016261Y012161D01*
X-016207Y012231D01*
X-016173Y012312D01*
X-016162Y012400D01*
X-016173Y012488D01*
X-016207Y012569D01*
X-016261Y012639D01*
X-016331Y012693D01*
X-016412Y012727D01*
X-016500Y012738D01*
D02*
G37*
G36*
X-015500D02*
X-015588Y012727D01*
X-015669Y012693D01*
X-015739Y012639D01*
X-015793Y012569D01*
X-015827Y012488D01*
X-015838Y012400D01*
X-015827Y012312D01*
X-015793Y012231D01*
X-015739Y012161D01*
X-015721Y012146D01*
X-015735Y012094D01*
X-015803Y012085D01*
X-015899Y012045D01*
X-015982Y011982D01*
X-016045Y011899D01*
X-016085Y011803D01*
X-016092Y011750D01*
X-015700D01*
Y011700D01*
D01*
Y011750D01*
X-015308D01*
X-015315Y011803D01*
X-015355Y011899D01*
X-015418Y011982D01*
X-015463Y012016D01*
X-015449Y012068D01*
X-015412Y012073D01*
X-015331Y012107D01*
X-015261Y012161D01*
X-015207Y012231D01*
X-015173Y012312D01*
X-015162Y012400D01*
X-015173Y012488D01*
X-015207Y012569D01*
X-015261Y012639D01*
X-015331Y012693D01*
X-015412Y012727D01*
X-015500Y012738D01*
D02*
G37*
G36*
X-014700Y012058D02*
X-014793Y012046D01*
X-014879Y012010D01*
X-014953Y011953D01*
X-015010Y011879D01*
X-015046Y011793D01*
X-015058Y011700D01*
X-015046Y011607D01*
X-015010Y011521D01*
X-014953Y011447D01*
X-014879Y011390D01*
X-014793Y011354D01*
X-014700Y011342D01*
X-014607Y011354D01*
X-014521Y011390D01*
X-014447Y011447D01*
X-014390Y011521D01*
X-014354Y011607D01*
X-014342Y011700D01*
X-014354Y011793D01*
X-014390Y011879D01*
X-014447Y011953D01*
X-014521Y012010D01*
X-014607Y012046D01*
X-014700Y012058D01*
D02*
G37*
G36*
X-017700D02*
X-017793Y012046D01*
X-017879Y012010D01*
X-017953Y011953D01*
X-018010Y011879D01*
X-018046Y011793D01*
X-018058Y011700D01*
X-018046Y011607D01*
X-018010Y011521D01*
X-017953Y011447D01*
X-017879Y011390D01*
X-017793Y011354D01*
X-017700Y011342D01*
X-017607Y011354D01*
X-017521Y011390D01*
X-017447Y011447D01*
X-017390Y011521D01*
X-017354Y011607D01*
X-017342Y011700D01*
X-017354Y011793D01*
X-017390Y011879D01*
X-017447Y011953D01*
X-017521Y012010D01*
X-017607Y012046D01*
X-017700Y012058D01*
D02*
G37*
G36*
X-012700D02*
X-012793Y012046D01*
X-012879Y012010D01*
X-012953Y011953D01*
X-013010Y011879D01*
X-013046Y011793D01*
X-013058Y011700D01*
X-013046Y011607D01*
X-013010Y011521D01*
X-012953Y011447D01*
X-012879Y011390D01*
X-012793Y011354D01*
X-012700Y011342D01*
X-012607Y011354D01*
X-012521Y011390D01*
X-012447Y011447D01*
X-012390Y011521D01*
X-012354Y011607D01*
X-012342Y011700D01*
X-012354Y011793D01*
X-012390Y011879D01*
X-012447Y011953D01*
X-012521Y012010D01*
X-012607Y012046D01*
X-012700Y012058D01*
D02*
G37*
G36*
X-013700D02*
X-013793Y012046D01*
X-013879Y012010D01*
X-013953Y011953D01*
X-014010Y011879D01*
X-014046Y011793D01*
X-014058Y011700D01*
X-014046Y011607D01*
X-014010Y011521D01*
X-013953Y011447D01*
X-013879Y011390D01*
X-013793Y011354D01*
X-013700Y011342D01*
X-013607Y011354D01*
X-013521Y011390D01*
X-013447Y011447D01*
X-013390Y011521D01*
X-013354Y011607D01*
X-013342Y011700D01*
X-013354Y011793D01*
X-013390Y011879D01*
X-013447Y011953D01*
X-013521Y012010D01*
X-013607Y012046D01*
X-013700Y012058D01*
D02*
G37*
G36*
X-014500Y002738D02*
X-014588Y002727D01*
X-014669Y002693D01*
X-014739Y002639D01*
X-014793Y002569D01*
X-014827Y002488D01*
X-014838Y002400D01*
X-014827Y002312D01*
X-014793Y002231D01*
X-014739Y002161D01*
X-014669Y002107D01*
X-014588Y002073D01*
X-014500Y002062D01*
X-014412Y002073D01*
X-014331Y002107D01*
X-014261Y002161D01*
X-014207Y002231D01*
X-014173Y002312D01*
X-014162Y002400D01*
X-014173Y002488D01*
X-014207Y002569D01*
X-014261Y002639D01*
X-014331Y002693D01*
X-014412Y002727D01*
X-014500Y002738D01*
D02*
G37*
G36*
X-002000Y002238D02*
X-002088Y002227D01*
X-002169Y002193D01*
X-002239Y002139D01*
X-002293Y002069D01*
X-002317Y002012D01*
X-002683D01*
X-002707Y002069D01*
X-002761Y002139D01*
X-002831Y002193D01*
X-002912Y002227D01*
X-003000Y002238D01*
X-003088Y002227D01*
X-003169Y002193D01*
X-003239Y002139D01*
X-003293Y002069D01*
X-003327Y001988D01*
X-003338Y001900D01*
X-003327Y001812D01*
X-003293Y001731D01*
X-003239Y001661D01*
X-003169Y001607D01*
X-003088Y001573D01*
X-003000Y001562D01*
X-002912Y001573D01*
X-002831Y001607D01*
X-002761Y001661D01*
X-002707Y001731D01*
X-002683Y001788D01*
X-002317D01*
X-002293Y001731D01*
X-002239Y001661D01*
X-002169Y001607D01*
X-002088Y001573D01*
X-002000Y001562D01*
X-001912Y001573D01*
X-001831Y001607D01*
X-001761Y001661D01*
X-001707Y001731D01*
X-001673Y001812D01*
X-001662Y001900D01*
X-001673Y001988D01*
X-001707Y002069D01*
X-001761Y002139D01*
X-001831Y002193D01*
X-001912Y002227D01*
X-002000Y002238D01*
D02*
G37*
G36*
X-008000Y002738D02*
X-008088Y002727D01*
X-008169Y002693D01*
X-008239Y002639D01*
X-008293Y002569D01*
X-008327Y002488D01*
X-008338Y002400D01*
X-008327Y002312D01*
X-008293Y002231D01*
X-008239Y002161D01*
X-008169Y002107D01*
X-008088Y002073D01*
X-008000Y002062D01*
X-007912Y002073D01*
X-007831Y002107D01*
X-007761Y002161D01*
X-007707Y002231D01*
X-007673Y002312D01*
X-007662Y002400D01*
X-007673Y002488D01*
X-007707Y002569D01*
X-007761Y002639D01*
X-007831Y002693D01*
X-007912Y002727D01*
X-008000Y002738D01*
D02*
G37*
G36*
X-011500D02*
X-011588Y002727D01*
X-011669Y002693D01*
X-011739Y002639D01*
X-011793Y002569D01*
X-011827Y002488D01*
X-011838Y002400D01*
X-011827Y002312D01*
X-011793Y002231D01*
X-011739Y002161D01*
X-011669Y002107D01*
X-011588Y002073D01*
X-011500Y002062D01*
X-011412Y002073D01*
X-011331Y002107D01*
X-011261Y002161D01*
X-011207Y002231D01*
X-011173Y002312D01*
X-011162Y002400D01*
X-011173Y002488D01*
X-011207Y002569D01*
X-011261Y002639D01*
X-011331Y002693D01*
X-011412Y002727D01*
X-011500Y002738D01*
D02*
G37*
G36*
X-020000Y002877D02*
X-020124Y002861D01*
X-020239Y002813D01*
X-020338Y002738D01*
X-020413Y002639D01*
X-020461Y002524D01*
X-020477Y002400D01*
X-020461Y002276D01*
X-020413Y002161D01*
X-020338Y002062D01*
X-020239Y001987D01*
X-020124Y001939D01*
X-020000Y001923D01*
X-019876Y001939D01*
X-019761Y001987D01*
X-019662Y002062D01*
X-019586Y002161D01*
X-019539Y002276D01*
X-019523Y002400D01*
X-019539Y002524D01*
X-019586Y002639D01*
X-019662Y002738D01*
X-019761Y002813D01*
X-019876Y002861D01*
X-020000Y002877D01*
D02*
G37*
G36*
X-021200D02*
X-021324Y002861D01*
X-021439Y002813D01*
X-021538Y002738D01*
X-021614Y002639D01*
X-021661Y002524D01*
X-021677Y002400D01*
X-021661Y002276D01*
X-021614Y002161D01*
X-021538Y002062D01*
X-021439Y001987D01*
X-021324Y001939D01*
X-021200Y001923D01*
X-021076Y001939D01*
X-020961Y001987D01*
X-020862Y002062D01*
X-020786Y002161D01*
X-020739Y002276D01*
X-020723Y002400D01*
X-020739Y002524D01*
X-020786Y002639D01*
X-020862Y002738D01*
X-020961Y002813D01*
X-021076Y002861D01*
X-021200Y002877D01*
D02*
G37*
G36*
X-000628Y002250D02*
X-000950D01*
Y001928D01*
X-000902Y001934D01*
X-000811Y001972D01*
X-000732Y002032D01*
X-000672Y002111D01*
X-000634Y002202D01*
X-000628Y002250D01*
D02*
G37*
G36*
X-001050D02*
X-001372D01*
X-001366Y002202D01*
X-001328Y002111D01*
X-001268Y002032D01*
X-001189Y001972D01*
X-001098Y001934D01*
X-001050Y001928D01*
Y002250D01*
D02*
G37*
G36*
X-019700Y003814D02*
X-019807Y003799D01*
X-019907Y003758D01*
X-019992Y003692D01*
X-020058Y003607D01*
X-020099Y003507D01*
X-020114Y003400D01*
X-020099Y003293D01*
X-020058Y003193D01*
X-019992Y003108D01*
X-019907Y003042D01*
X-019807Y003001D01*
X-019700Y002986D01*
X-019593Y003001D01*
X-019493Y003042D01*
X-019408Y003108D01*
X-019342Y003193D01*
X-019301Y003293D01*
X-019286Y003400D01*
X-019301Y003507D01*
X-019342Y003607D01*
X-019408Y003692D01*
X-019493Y003758D01*
X-019593Y003799D01*
X-019700Y003814D01*
D02*
G37*
G36*
X-023500Y003538D02*
X-023588Y003527D01*
X-023669Y003493D01*
X-023739Y003439D01*
X-023793Y003369D01*
X-023827Y003288D01*
X-023838Y003200D01*
X-023827Y003112D01*
X-023793Y003031D01*
X-023739Y002961D01*
X-023669Y002907D01*
X-023588Y002873D01*
X-023500Y002862D01*
X-023412Y002873D01*
X-023331Y002907D01*
X-023261Y002961D01*
X-023207Y003031D01*
X-023173Y003112D01*
X-023162Y003200D01*
X-023173Y003288D01*
X-023207Y003369D01*
X-023261Y003439D01*
X-023331Y003493D01*
X-023412Y003527D01*
X-023500Y003538D01*
D02*
G37*
G36*
X-011128Y003350D02*
X-011450D01*
Y003028D01*
X-011402Y003034D01*
X-011311Y003072D01*
X-011232Y003132D01*
X-011172Y003211D01*
X-011134Y003302D01*
X-011128Y003350D01*
D02*
G37*
G36*
X-011550D02*
X-011872D01*
X-011866Y003302D01*
X-011828Y003211D01*
X-011768Y003132D01*
X-011689Y003072D01*
X-011598Y003034D01*
X-011550Y003028D01*
Y003350D01*
D02*
G37*
G36*
X-001050Y002672D02*
X-001098Y002666D01*
X-001189Y002628D01*
X-001268Y002568D01*
X-001328Y002489D01*
X-001366Y002398D01*
X-001372Y002350D01*
X-001050D01*
Y002672D01*
D02*
G37*
G36*
X-005000Y002738D02*
X-005088Y002727D01*
X-005169Y002693D01*
X-005239Y002639D01*
X-005293Y002569D01*
X-005327Y002488D01*
X-005338Y002400D01*
X-005327Y002312D01*
X-005293Y002231D01*
X-005239Y002161D01*
X-005169Y002107D01*
X-005088Y002073D01*
X-005000Y002062D01*
X-004912Y002073D01*
X-004831Y002107D01*
X-004761Y002161D01*
X-004707Y002231D01*
X-004673Y002312D01*
X-004662Y002400D01*
X-004673Y002488D01*
X-004707Y002569D01*
X-004761Y002639D01*
X-004831Y002693D01*
X-004912Y002727D01*
X-005000Y002738D01*
D02*
G37*
G36*
X-026500Y003538D02*
X-026588Y003527D01*
X-026669Y003493D01*
X-026739Y003439D01*
X-026793Y003369D01*
X-026827Y003288D01*
X-026838Y003200D01*
X-026827Y003112D01*
X-026793Y003031D01*
X-026739Y002961D01*
X-026669Y002907D01*
X-026588Y002873D01*
X-026500Y002862D01*
X-026412Y002873D01*
X-026331Y002907D01*
X-026261Y002961D01*
X-026207Y003031D01*
X-026173Y003112D01*
X-026162Y003200D01*
X-026173Y003288D01*
X-026207Y003369D01*
X-026261Y003439D01*
X-026331Y003493D01*
X-026412Y003527D01*
X-026500Y003538D01*
D02*
G37*
G36*
X-000950Y002672D02*
Y002350D01*
X-000628D01*
X-000634Y002398D01*
X-000672Y002489D01*
X-000732Y002568D01*
X-000811Y002628D01*
X-000902Y002666D01*
X-000950Y002672D01*
D02*
G37*
G36*
X-009800Y002377D02*
X-009924Y002361D01*
X-010039Y002314D01*
X-010138Y002238D01*
X-010214Y002139D01*
X-010261Y002024D01*
X-010277Y001900D01*
X-010261Y001776D01*
X-010214Y001661D01*
X-010138Y001562D01*
X-010039Y001487D01*
X-009924Y001439D01*
X-009800Y001423D01*
X-009676Y001439D01*
X-009561Y001487D01*
X-009462Y001562D01*
X-009387Y001661D01*
X-009339Y001776D01*
X-009323Y001900D01*
X-009339Y002024D01*
X-009387Y002139D01*
X-009462Y002238D01*
X-009561Y002314D01*
X-009676Y002361D01*
X-009800Y002377D01*
D02*
G37*
G36*
X-026400Y000800D02*
X-026696D01*
X-026691Y000759D01*
X-026656Y000673D01*
X-026600Y000600D01*
X-026527Y000544D01*
X-026441Y000509D01*
X-026400Y000504D01*
Y000800D01*
D02*
G37*
G36*
X-003602Y001158D02*
X-003695Y001146D01*
X-003782Y001110D01*
X-003856Y001053D01*
X-003913Y000979D01*
X-003948Y000893D01*
X-003961Y000800D01*
X-003948Y000707D01*
X-003913Y000621D01*
X-003856Y000547D01*
X-003782Y000490D01*
X-003695Y000454D01*
X-003602Y000442D01*
X-003510Y000454D01*
X-003423Y000490D01*
X-003349Y000547D01*
X-003292Y000621D01*
X-003256Y000707D01*
X-003244Y000800D01*
X-003256Y000893D01*
X-003292Y000979D01*
X-003349Y001053D01*
X-003423Y001110D01*
X-003510Y001146D01*
X-003602Y001158D01*
D02*
G37*
G36*
X-010520Y001238D02*
X-010608Y001227D01*
X-010689Y001193D01*
X-010759Y001139D01*
X-010813Y001069D01*
X-010847Y000988D01*
X-010859Y000900D01*
X-010847Y000812D01*
X-010813Y000731D01*
X-010759Y000661D01*
X-010689Y000607D01*
X-010608Y000573D01*
X-010520Y000562D01*
X-010432Y000573D01*
X-010351Y000607D01*
X-010281Y000661D01*
X-010227Y000731D01*
X-010193Y000812D01*
X-010182Y000900D01*
X-010193Y000988D01*
X-010227Y001069D01*
X-010281Y001139D01*
X-010351Y001193D01*
X-010432Y001227D01*
X-010520Y001238D01*
D02*
G37*
G36*
X-026004Y000800D02*
X-026300D01*
Y000504D01*
X-026259Y000509D01*
X-026173Y000544D01*
X-026100Y000600D01*
X-026044Y000673D01*
X-026009Y000759D01*
X-026004Y000800D01*
D02*
G37*
G36*
X-028000Y001654D02*
X-028128Y001641D01*
X-028250Y001604D01*
X-028363Y001544D01*
X-028462Y001462D01*
X-028544Y001363D01*
X-028604Y001250D01*
X-028641Y001128D01*
X-028654Y001000D01*
X-028641Y000872D01*
X-028604Y000750D01*
X-028544Y000637D01*
X-028462Y000538D01*
X-028363Y000456D01*
X-028250Y000396D01*
X-028128Y000359D01*
X-028000Y000346D01*
X-027872Y000359D01*
X-027750Y000396D01*
X-027637Y000456D01*
X-027538Y000538D01*
X-027456Y000637D01*
X-027396Y000750D01*
X-027359Y000872D01*
X-027346Y001000D01*
X-027359Y001128D01*
X-027396Y001250D01*
X-027456Y001363D01*
X-027538Y001462D01*
X-027637Y001544D01*
X-027750Y001604D01*
X-027872Y001641D01*
X-028000Y001654D01*
D02*
G37*
G36*
X-015400Y001277D02*
X-015524Y001261D01*
X-015639Y001213D01*
X-015738Y001138D01*
X-015813Y001039D01*
X-015861Y000924D01*
X-015877Y000800D01*
X-015861Y000676D01*
X-015813Y000561D01*
X-015738Y000462D01*
X-015639Y000386D01*
X-015524Y000339D01*
X-015400Y000323D01*
X-015276Y000339D01*
X-015161Y000386D01*
X-015062Y000462D01*
X-014986Y000561D01*
X-014939Y000676D01*
X-014923Y000800D01*
X-014939Y000924D01*
X-014986Y001039D01*
X-015062Y001138D01*
X-015161Y001213D01*
X-015276Y001261D01*
X-015400Y001277D01*
D02*
G37*
G36*
X-006102Y001160D02*
X-006693D01*
X-006739Y001141D01*
X-006758Y001095D01*
Y000505D01*
X-006739Y000459D01*
X-006693Y000440D01*
X-006102D01*
X-006056Y000459D01*
X-006037Y000505D01*
Y001095D01*
X-006056Y001141D01*
X-006102Y001160D01*
D02*
G37*
G36*
X-001000Y001654D02*
X-001128Y001641D01*
X-001250Y001604D01*
X-001363Y001544D01*
X-001462Y001462D01*
X-001544Y001363D01*
X-001604Y001250D01*
X-001641Y001128D01*
X-001654Y001000D01*
X-001641Y000872D01*
X-001604Y000750D01*
X-001544Y000637D01*
X-001462Y000538D01*
X-001363Y000456D01*
X-001250Y000396D01*
X-001128Y000359D01*
X-001000Y000346D01*
X-000872Y000359D01*
X-000750Y000396D01*
X-000637Y000456D01*
X-000538Y000538D01*
X-000456Y000637D01*
X-000396Y000750D01*
X-000359Y000872D01*
X-000346Y001000D01*
X-000359Y001128D01*
X-000396Y001250D01*
X-000456Y001363D01*
X-000538Y001462D01*
X-000637Y001544D01*
X-000750Y001604D01*
X-000872Y001641D01*
X-001000Y001654D01*
D02*
G37*
G36*
X-014500Y001738D02*
X-014588Y001727D01*
X-014669Y001693D01*
X-014739Y001639D01*
X-014793Y001569D01*
X-014827Y001488D01*
X-014838Y001400D01*
X-014827Y001312D01*
X-014793Y001231D01*
X-014739Y001161D01*
X-014669Y001107D01*
X-014588Y001073D01*
X-014500Y001062D01*
X-014412Y001073D01*
X-014331Y001107D01*
X-014261Y001161D01*
X-014207Y001231D01*
X-014173Y001312D01*
X-014162Y001400D01*
X-014173Y001488D01*
X-014207Y001569D01*
X-014261Y001639D01*
X-014331Y001693D01*
X-014412Y001727D01*
X-014500Y001738D01*
D02*
G37*
G36*
X-019700D02*
X-019788Y001727D01*
X-019869Y001693D01*
X-019939Y001639D01*
X-019993Y001569D01*
X-020027Y001488D01*
X-020038Y001400D01*
X-020027Y001312D01*
X-019993Y001231D01*
X-019939Y001161D01*
X-019869Y001107D01*
X-019788Y001073D01*
X-019700Y001062D01*
X-019612Y001073D01*
X-019531Y001107D01*
X-019461Y001161D01*
X-019407Y001231D01*
X-019373Y001312D01*
X-019362Y001400D01*
X-019373Y001488D01*
X-019407Y001569D01*
X-019461Y001639D01*
X-019531Y001693D01*
X-019612Y001727D01*
X-019700Y001738D01*
D02*
G37*
G36*
X-018600Y001979D02*
X-018694Y001966D01*
X-018782Y001930D01*
X-018857Y001873D01*
X-018914Y001797D01*
X-018951Y001710D01*
X-018963Y001616D01*
X-018951Y001522D01*
X-018914Y001434D01*
X-018857Y001359D01*
X-018782Y001301D01*
X-018694Y001265D01*
X-018600Y001253D01*
X-018506Y001265D01*
X-018418Y001301D01*
X-018343Y001359D01*
X-018286Y001434D01*
X-018249Y001522D01*
X-018237Y001616D01*
X-018249Y001710D01*
X-018286Y001797D01*
X-018343Y001873D01*
X-018418Y001930D01*
X-018506Y001966D01*
X-018600Y001979D01*
D02*
G37*
G36*
X-011500Y001738D02*
X-011588Y001727D01*
X-011669Y001693D01*
X-011739Y001639D01*
X-011793Y001569D01*
X-011827Y001488D01*
X-011838Y001400D01*
X-011827Y001312D01*
X-011793Y001231D01*
X-011739Y001161D01*
X-011669Y001107D01*
X-011588Y001073D01*
X-011500Y001062D01*
X-011412Y001073D01*
X-011331Y001107D01*
X-011261Y001161D01*
X-011207Y001231D01*
X-011173Y001312D01*
X-011162Y001400D01*
X-011173Y001488D01*
X-011207Y001569D01*
X-011261Y001639D01*
X-011331Y001693D01*
X-011412Y001727D01*
X-011500Y001738D01*
D02*
G37*
G36*
X-026400Y001196D02*
X-026441Y001191D01*
X-026527Y001156D01*
X-026600Y001100D01*
X-026656Y001027D01*
X-026691Y000941D01*
X-026696Y000900D01*
X-026400D01*
Y001196D01*
D02*
G37*
G36*
X-007520Y001238D02*
X-007608Y001227D01*
X-007689Y001193D01*
X-007759Y001139D01*
X-007813Y001069D01*
X-007847Y000988D01*
X-007859Y000900D01*
X-007847Y000812D01*
X-007813Y000731D01*
X-007759Y000661D01*
X-007689Y000607D01*
X-007608Y000573D01*
X-007520Y000562D01*
X-007432Y000573D01*
X-007351Y000607D01*
X-007281Y000661D01*
X-007227Y000731D01*
X-007193Y000812D01*
X-007182Y000900D01*
X-007193Y000988D01*
X-007227Y001069D01*
X-007281Y001139D01*
X-007351Y001193D01*
X-007432Y001227D01*
X-007520Y001238D01*
D02*
G37*
G36*
X-022700Y001738D02*
X-022788Y001727D01*
X-022869Y001693D01*
X-022939Y001639D01*
X-022993Y001569D01*
X-023027Y001488D01*
X-023038Y001400D01*
X-023027Y001312D01*
X-022993Y001231D01*
X-022939Y001161D01*
X-022869Y001107D01*
X-022788Y001073D01*
X-022700Y001062D01*
X-022612Y001073D01*
X-022531Y001107D01*
X-022461Y001161D01*
X-022407Y001231D01*
X-022373Y001312D01*
X-022362Y001400D01*
X-022373Y001488D01*
X-022407Y001569D01*
X-022461Y001639D01*
X-022531Y001693D01*
X-022612Y001727D01*
X-022700Y001738D01*
D02*
G37*
G36*
X-026300Y001196D02*
Y000900D01*
X-026004D01*
X-026009Y000941D01*
X-026044Y001027D01*
X-026100Y001100D01*
X-026173Y001156D01*
X-026259Y001191D01*
X-026300Y001196D01*
D02*
G37*
G36*
X-001000Y005638D02*
X-001088Y005627D01*
X-001169Y005593D01*
X-001239Y005539D01*
X-001293Y005469D01*
X-001327Y005388D01*
X-001338Y005300D01*
X-001327Y005212D01*
X-001293Y005131D01*
X-001239Y005061D01*
X-001169Y005007D01*
X-001088Y004973D01*
X-001000Y004962D01*
X-000912Y004973D01*
X-000831Y005007D01*
X-000761Y005061D01*
X-000707Y005131D01*
X-000673Y005212D01*
X-000662Y005300D01*
X-000673Y005388D01*
X-000707Y005469D01*
X-000761Y005539D01*
X-000831Y005593D01*
X-000912Y005627D01*
X-001000Y005638D01*
D02*
G37*
G36*
X-017216Y005363D02*
X-017310Y005351D01*
X-017397Y005314D01*
X-017472Y005257D01*
X-017530Y005182D01*
X-017566Y005094D01*
X-017579Y005000D01*
X-017566Y004906D01*
X-017530Y004818D01*
X-017472Y004743D01*
X-017397Y004686D01*
X-017310Y004649D01*
X-017216Y004637D01*
X-017122Y004649D01*
X-017034Y004686D01*
X-016959Y004743D01*
X-016901Y004818D01*
X-016865Y004906D01*
X-016853Y005000D01*
X-016865Y005094D01*
X-016901Y005182D01*
X-016959Y005257D01*
X-017034Y005314D01*
X-017122Y005351D01*
X-017216Y005363D01*
D02*
G37*
G36*
X-007484Y006263D02*
X-007578Y006251D01*
X-007666Y006214D01*
X-007741Y006157D01*
X-007799Y006082D01*
X-007835Y005994D01*
X-007847Y005900D01*
X-007835Y005806D01*
X-007799Y005718D01*
X-007741Y005643D01*
X-007666Y005586D01*
X-007578Y005549D01*
X-007484Y005537D01*
X-007390Y005549D01*
X-007303Y005586D01*
X-007228Y005643D01*
X-007170Y005718D01*
X-007134Y005806D01*
X-007121Y005900D01*
X-007134Y005994D01*
X-007170Y006082D01*
X-007228Y006157D01*
X-007303Y006214D01*
X-007390Y006251D01*
X-007484Y006263D01*
D02*
G37*
G36*
X-009000Y005738D02*
X-009088Y005727D01*
X-009169Y005693D01*
X-009239Y005639D01*
X-009293Y005569D01*
X-009327Y005488D01*
X-009338Y005400D01*
X-009327Y005312D01*
X-009293Y005231D01*
X-009239Y005161D01*
X-009169Y005107D01*
X-009088Y005073D01*
X-009000Y005062D01*
X-008912Y005073D01*
X-008831Y005107D01*
X-008761Y005161D01*
X-008707Y005231D01*
X-008673Y005312D01*
X-008662Y005400D01*
X-008673Y005488D01*
X-008707Y005569D01*
X-008761Y005639D01*
X-008831Y005693D01*
X-008912Y005727D01*
X-009000Y005738D01*
D02*
G37*
G36*
X-003000Y005238D02*
X-003088Y005227D01*
X-003169Y005193D01*
X-003239Y005139D01*
X-003293Y005069D01*
X-003327Y004988D01*
X-003338Y004900D01*
X-003327Y004812D01*
X-003293Y004731D01*
X-003239Y004661D01*
X-003169Y004607D01*
X-003088Y004573D01*
X-003000Y004562D01*
X-002912Y004573D01*
X-002831Y004607D01*
X-002761Y004661D01*
X-002707Y004731D01*
X-002673Y004812D01*
X-002662Y004900D01*
X-002673Y004988D01*
X-002707Y005069D01*
X-002761Y005139D01*
X-002831Y005193D01*
X-002912Y005227D01*
X-003000Y005238D01*
D02*
G37*
G36*
X-003628Y004850D02*
X-003950D01*
Y004528D01*
X-003902Y004534D01*
X-003811Y004572D01*
X-003732Y004632D01*
X-003672Y004711D01*
X-003634Y004802D01*
X-003628Y004850D01*
D02*
G37*
G36*
X-019184Y005363D02*
X-019278Y005351D01*
X-019366Y005314D01*
X-019441Y005257D01*
X-019499Y005182D01*
X-019535Y005094D01*
X-019547Y005000D01*
X-019535Y004906D01*
X-019499Y004818D01*
X-019441Y004743D01*
X-019366Y004686D01*
X-019278Y004649D01*
X-019184Y004637D01*
X-019090Y004649D01*
X-019003Y004686D01*
X-018928Y004743D01*
X-018870Y004818D01*
X-018834Y004906D01*
X-018821Y005000D01*
X-018834Y005094D01*
X-018870Y005182D01*
X-018928Y005257D01*
X-019003Y005314D01*
X-019090Y005351D01*
X-019184Y005363D01*
D02*
G37*
G36*
X-002000Y005238D02*
X-002088Y005227D01*
X-002169Y005193D01*
X-002239Y005139D01*
X-002293Y005069D01*
X-002327Y004988D01*
X-002338Y004900D01*
X-002327Y004812D01*
X-002293Y004731D01*
X-002239Y004661D01*
X-002169Y004607D01*
X-002088Y004573D01*
X-002000Y004562D01*
X-001912Y004573D01*
X-001831Y004607D01*
X-001761Y004661D01*
X-001707Y004731D01*
X-001673Y004812D01*
X-001662Y004900D01*
X-001673Y004988D01*
X-001707Y005069D01*
X-001761Y005139D01*
X-001831Y005193D01*
X-001912Y005227D01*
X-002000Y005238D01*
D02*
G37*
G36*
X-017216Y006763D02*
X-017310Y006751D01*
X-017397Y006714D01*
X-017472Y006657D01*
X-017530Y006582D01*
X-017566Y006494D01*
X-017579Y006400D01*
X-017566Y006306D01*
X-017530Y006218D01*
X-017472Y006143D01*
X-017397Y006086D01*
X-017310Y006049D01*
X-017216Y006037D01*
X-017122Y006049D01*
X-017034Y006086D01*
X-016959Y006143D01*
X-016901Y006218D01*
X-016865Y006306D01*
X-016853Y006400D01*
X-016865Y006494D01*
X-016901Y006582D01*
X-016959Y006657D01*
X-017034Y006714D01*
X-017122Y006751D01*
X-017216Y006763D01*
D02*
G37*
G36*
X-019184D02*
X-019278Y006751D01*
X-019366Y006714D01*
X-019441Y006657D01*
X-019499Y006582D01*
X-019535Y006494D01*
X-019547Y006400D01*
X-019535Y006306D01*
X-019499Y006218D01*
X-019441Y006143D01*
X-019366Y006086D01*
X-019278Y006049D01*
X-019184Y006037D01*
X-019090Y006049D01*
X-019003Y006086D01*
X-018928Y006143D01*
X-018870Y006218D01*
X-018834Y006306D01*
X-018821Y006400D01*
X-018834Y006494D01*
X-018870Y006582D01*
X-018928Y006657D01*
X-019003Y006714D01*
X-019090Y006751D01*
X-019184Y006763D01*
D02*
G37*
G36*
X-013000Y006838D02*
X-013088Y006827D01*
X-013169Y006793D01*
X-013239Y006739D01*
X-013293Y006669D01*
X-013327Y006588D01*
X-013338Y006500D01*
X-013327Y006412D01*
X-013293Y006331D01*
X-013239Y006261D01*
X-013169Y006207D01*
X-013088Y006173D01*
X-013000Y006162D01*
X-012912Y006173D01*
X-012831Y006207D01*
X-012761Y006261D01*
X-012707Y006331D01*
X-012673Y006412D01*
X-012662Y006500D01*
X-012673Y006588D01*
X-012707Y006669D01*
X-012761Y006739D01*
X-012831Y006793D01*
X-012912Y006827D01*
X-013000Y006838D01*
D02*
G37*
G36*
X-004350Y006472D02*
X-004398Y006466D01*
X-004489Y006428D01*
X-004568Y006368D01*
X-004628Y006289D01*
X-004666Y006198D01*
X-004672Y006150D01*
X-004350D01*
Y006472D01*
D02*
G37*
G36*
X-001300Y006438D02*
X-001388Y006427D01*
X-001469Y006393D01*
X-001539Y006339D01*
X-001593Y006269D01*
X-001627Y006188D01*
X-001638Y006100D01*
X-001627Y006012D01*
X-001593Y005931D01*
X-001539Y005861D01*
X-001469Y005807D01*
X-001388Y005773D01*
X-001300Y005762D01*
X-001212Y005773D01*
X-001131Y005807D01*
X-001061Y005861D01*
X-001007Y005931D01*
X-000973Y006012D01*
X-000962Y006100D01*
X-000973Y006188D01*
X-001007Y006269D01*
X-001061Y006339D01*
X-001131Y006393D01*
X-001212Y006427D01*
X-001300Y006438D01*
D02*
G37*
G36*
X-004350Y006050D02*
X-004672D01*
X-004666Y006002D01*
X-004628Y005911D01*
X-004568Y005832D01*
X-004489Y005772D01*
X-004398Y005734D01*
X-004350Y005728D01*
Y006050D01*
D02*
G37*
G36*
X-024000Y006747D02*
X-024094Y006735D01*
X-024182Y006699D01*
X-024257Y006641D01*
X-024314Y006566D01*
X-024351Y006478D01*
X-024363Y006384D01*
X-024351Y006290D01*
X-024314Y006203D01*
X-024257Y006127D01*
X-024182Y006070D01*
X-024094Y006034D01*
X-024000Y006021D01*
X-023906Y006034D01*
X-023818Y006070D01*
X-023743Y006127D01*
X-023686Y006203D01*
X-023649Y006290D01*
X-023637Y006384D01*
X-023649Y006478D01*
X-023686Y006566D01*
X-023743Y006641D01*
X-023818Y006699D01*
X-023906Y006735D01*
X-024000Y006747D01*
D02*
G37*
G36*
X-026500D02*
X-026594Y006735D01*
X-026682Y006699D01*
X-026757Y006641D01*
X-026814Y006566D01*
X-026851Y006478D01*
X-026863Y006384D01*
X-026851Y006290D01*
X-026814Y006203D01*
X-026757Y006127D01*
X-026682Y006070D01*
X-026594Y006034D01*
X-026500Y006021D01*
X-026406Y006034D01*
X-026318Y006070D01*
X-026243Y006127D01*
X-026186Y006203D01*
X-026149Y006290D01*
X-026137Y006384D01*
X-026149Y006478D01*
X-026186Y006566D01*
X-026243Y006641D01*
X-026318Y006699D01*
X-026406Y006735D01*
X-026500Y006747D01*
D02*
G37*
G36*
X-011330Y004798D02*
X-011418Y004787D01*
X-011499Y004753D01*
X-011569Y004699D01*
X-011623Y004629D01*
X-011657Y004548D01*
X-011668Y004460D01*
X-011657Y004372D01*
X-011623Y004291D01*
X-011569Y004221D01*
X-011499Y004167D01*
X-011418Y004133D01*
X-011330Y004122D01*
X-011242Y004133D01*
X-011161Y004167D01*
X-011091Y004221D01*
X-011037Y004291D01*
X-011003Y004372D01*
X-010992Y004460D01*
X-011003Y004548D01*
X-011037Y004629D01*
X-011091Y004699D01*
X-011161Y004753D01*
X-011242Y004787D01*
X-011330Y004798D01*
D02*
G37*
G36*
X-011550Y003772D02*
X-011598Y003766D01*
X-011689Y003728D01*
X-011768Y003668D01*
X-011828Y003589D01*
X-011866Y003498D01*
X-011872Y003450D01*
X-011550D01*
Y003772D01*
D02*
G37*
G36*
X-018600Y003947D02*
X-018694Y003935D01*
X-018782Y003899D01*
X-018857Y003841D01*
X-018914Y003766D01*
X-018951Y003678D01*
X-018963Y003584D01*
X-018951Y003490D01*
X-018914Y003403D01*
X-018857Y003327D01*
X-018782Y003270D01*
X-018694Y003234D01*
X-018600Y003221D01*
X-018506Y003234D01*
X-018418Y003270D01*
X-018343Y003327D01*
X-018286Y003403D01*
X-018249Y003490D01*
X-018237Y003584D01*
X-018249Y003678D01*
X-018286Y003766D01*
X-018343Y003841D01*
X-018418Y003899D01*
X-018506Y003935D01*
X-018600Y003947D01*
D02*
G37*
G36*
X-022800Y004638D02*
X-022888Y004627D01*
X-022969Y004593D01*
X-023039Y004539D01*
X-023093Y004469D01*
X-023127Y004388D01*
X-023138Y004300D01*
X-023127Y004212D01*
X-023093Y004131D01*
X-023039Y004061D01*
X-022969Y004007D01*
X-022888Y003973D01*
X-022800Y003962D01*
X-022712Y003973D01*
X-022631Y004007D01*
X-022561Y004061D01*
X-022507Y004131D01*
X-022473Y004212D01*
X-022462Y004300D01*
X-022473Y004388D01*
X-022507Y004469D01*
X-022561Y004539D01*
X-022631Y004593D01*
X-022712Y004627D01*
X-022800Y004638D01*
D02*
G37*
G36*
X-011450Y003772D02*
Y003450D01*
X-011128D01*
X-011134Y003498D01*
X-011172Y003589D01*
X-011232Y003668D01*
X-011311Y003728D01*
X-011402Y003766D01*
X-011450Y003772D01*
D02*
G37*
G36*
X-008000Y003738D02*
X-008088Y003727D01*
X-008169Y003693D01*
X-008239Y003639D01*
X-008293Y003569D01*
X-008327Y003488D01*
X-008338Y003400D01*
X-008327Y003312D01*
X-008293Y003231D01*
X-008239Y003161D01*
X-008169Y003107D01*
X-008088Y003073D01*
X-008000Y003062D01*
X-007912Y003073D01*
X-007831Y003107D01*
X-007761Y003161D01*
X-007707Y003231D01*
X-007673Y003312D01*
X-007662Y003400D01*
X-007673Y003488D01*
X-007707Y003569D01*
X-007761Y003639D01*
X-007831Y003693D01*
X-007912Y003727D01*
X-008000Y003738D01*
D02*
G37*
G36*
X-014500D02*
X-014588Y003727D01*
X-014669Y003693D01*
X-014739Y003639D01*
X-014793Y003569D01*
X-014827Y003488D01*
X-014838Y003400D01*
X-014827Y003312D01*
X-014793Y003231D01*
X-014739Y003161D01*
X-014669Y003107D01*
X-014588Y003073D01*
X-014500Y003062D01*
X-014412Y003073D01*
X-014331Y003107D01*
X-014261Y003161D01*
X-014207Y003231D01*
X-014173Y003312D01*
X-014162Y003400D01*
X-014173Y003488D01*
X-014207Y003569D01*
X-014261Y003639D01*
X-014331Y003693D01*
X-014412Y003727D01*
X-014500Y003738D01*
D02*
G37*
G36*
X-016600Y003838D02*
X-016688Y003827D01*
X-016769Y003793D01*
X-016839Y003739D01*
X-016893Y003669D01*
X-016927Y003588D01*
X-016938Y003500D01*
X-016927Y003412D01*
X-016893Y003331D01*
X-016839Y003261D01*
X-016769Y003207D01*
X-016688Y003173D01*
X-016600Y003162D01*
X-016512Y003173D01*
X-016431Y003207D01*
X-016361Y003261D01*
X-016307Y003331D01*
X-016273Y003412D01*
X-016262Y003500D01*
X-016273Y003588D01*
X-016307Y003669D01*
X-016361Y003739D01*
X-016431Y003793D01*
X-016512Y003827D01*
X-016600Y003838D01*
D02*
G37*
G36*
X-017400D02*
X-017488Y003827D01*
X-017569Y003793D01*
X-017639Y003739D01*
X-017693Y003669D01*
X-017727Y003588D01*
X-017738Y003500D01*
X-017727Y003412D01*
X-017693Y003331D01*
X-017639Y003261D01*
X-017569Y003207D01*
X-017488Y003173D01*
X-017400Y003162D01*
X-017312Y003173D01*
X-017231Y003207D01*
X-017161Y003261D01*
X-017107Y003331D01*
X-017073Y003412D01*
X-017062Y003500D01*
X-017073Y003588D01*
X-017107Y003669D01*
X-017161Y003739D01*
X-017231Y003793D01*
X-017312Y003827D01*
X-017400Y003838D01*
D02*
G37*
G36*
X-027500Y004738D02*
X-027588Y004727D01*
X-027669Y004693D01*
X-027739Y004639D01*
X-027793Y004569D01*
X-027827Y004488D01*
X-027838Y004400D01*
X-027827Y004312D01*
X-027793Y004231D01*
X-027739Y004161D01*
X-027669Y004107D01*
X-027588Y004073D01*
X-027500Y004062D01*
X-027412Y004073D01*
X-027331Y004107D01*
X-027261Y004161D01*
X-027207Y004231D01*
X-027173Y004312D01*
X-027162Y004400D01*
X-027173Y004488D01*
X-027207Y004569D01*
X-027261Y004639D01*
X-027331Y004693D01*
X-027412Y004727D01*
X-027500Y004738D01*
D02*
G37*
G36*
X-024000Y004779D02*
X-024094Y004766D01*
X-024182Y004730D01*
X-024257Y004672D01*
X-024314Y004597D01*
X-024351Y004510D01*
X-024363Y004416D01*
X-024351Y004322D01*
X-024314Y004234D01*
X-024257Y004159D01*
X-024182Y004101D01*
X-024094Y004065D01*
X-024000Y004053D01*
X-023906Y004065D01*
X-023818Y004101D01*
X-023743Y004159D01*
X-023686Y004234D01*
X-023649Y004322D01*
X-023637Y004416D01*
X-023649Y004510D01*
X-023686Y004597D01*
X-023743Y004672D01*
X-023818Y004730D01*
X-023906Y004766D01*
X-024000Y004779D01*
D02*
G37*
G36*
X-014330Y004798D02*
X-014418Y004787D01*
X-014499Y004753D01*
X-014569Y004699D01*
X-014623Y004629D01*
X-014657Y004548D01*
X-014668Y004460D01*
X-014657Y004372D01*
X-014623Y004291D01*
X-014569Y004221D01*
X-014499Y004167D01*
X-014418Y004133D01*
X-014330Y004122D01*
X-014242Y004133D01*
X-014161Y004167D01*
X-014091Y004221D01*
X-014037Y004291D01*
X-014003Y004372D01*
X-013992Y004460D01*
X-014003Y004548D01*
X-014037Y004629D01*
X-014091Y004699D01*
X-014161Y004753D01*
X-014242Y004787D01*
X-014330Y004798D01*
D02*
G37*
G36*
X-025000Y004738D02*
X-025088Y004727D01*
X-025169Y004693D01*
X-025239Y004639D01*
X-025293Y004569D01*
X-025327Y004488D01*
X-025338Y004400D01*
X-025327Y004312D01*
X-025293Y004231D01*
X-025239Y004161D01*
X-025169Y004107D01*
X-025088Y004073D01*
X-025000Y004062D01*
X-024912Y004073D01*
X-024831Y004107D01*
X-024761Y004161D01*
X-024707Y004231D01*
X-024673Y004312D01*
X-024662Y004400D01*
X-024673Y004488D01*
X-024707Y004569D01*
X-024761Y004639D01*
X-024831Y004693D01*
X-024912Y004727D01*
X-025000Y004738D01*
D02*
G37*
G36*
X-021200Y004638D02*
X-021288Y004627D01*
X-021369Y004593D01*
X-021439Y004539D01*
X-021493Y004469D01*
X-021527Y004388D01*
X-021538Y004300D01*
X-021527Y004212D01*
X-021493Y004131D01*
X-021439Y004061D01*
X-021369Y004007D01*
X-021288Y003973D01*
X-021200Y003962D01*
X-021112Y003973D01*
X-021031Y004007D01*
X-020961Y004061D01*
X-020907Y004131D01*
X-020873Y004212D01*
X-020862Y004300D01*
X-020873Y004388D01*
X-020907Y004469D01*
X-020961Y004539D01*
X-021031Y004593D01*
X-021112Y004627D01*
X-021200Y004638D01*
D02*
G37*
G36*
X-022000D02*
X-022088Y004627D01*
X-022169Y004593D01*
X-022239Y004539D01*
X-022293Y004469D01*
X-022327Y004388D01*
X-022338Y004300D01*
X-022327Y004212D01*
X-022293Y004131D01*
X-022239Y004061D01*
X-022169Y004007D01*
X-022088Y003973D01*
X-022000Y003962D01*
X-021912Y003973D01*
X-021831Y004007D01*
X-021761Y004061D01*
X-021707Y004131D01*
X-021673Y004212D01*
X-021662Y004300D01*
X-021673Y004388D01*
X-021707Y004469D01*
X-021761Y004539D01*
X-021831Y004593D01*
X-021912Y004627D01*
X-022000Y004638D01*
D02*
G37*
G36*
X-026500Y004779D02*
X-026594Y004766D01*
X-026682Y004730D01*
X-026757Y004672D01*
X-026814Y004597D01*
X-026851Y004510D01*
X-026863Y004416D01*
X-026851Y004322D01*
X-026814Y004234D01*
X-026757Y004159D01*
X-026682Y004101D01*
X-026594Y004065D01*
X-026500Y004053D01*
X-026406Y004065D01*
X-026318Y004101D01*
X-026243Y004159D01*
X-026186Y004234D01*
X-026149Y004322D01*
X-026137Y004416D01*
X-026149Y004510D01*
X-026186Y004597D01*
X-026243Y004672D01*
X-026318Y004730D01*
X-026406Y004766D01*
X-026500Y004779D01*
D02*
G37*
G36*
X-020300Y004638D02*
X-020388Y004627D01*
X-020469Y004593D01*
X-020539Y004539D01*
X-020593Y004469D01*
X-020627Y004388D01*
X-020638Y004300D01*
X-020627Y004212D01*
X-020593Y004131D01*
X-020539Y004061D01*
X-020469Y004007D01*
X-020388Y003973D01*
X-020300Y003962D01*
X-020212Y003973D01*
X-020131Y004007D01*
X-020061Y004061D01*
X-020007Y004131D01*
X-019973Y004212D01*
X-019962Y004300D01*
X-019973Y004388D01*
X-020007Y004469D01*
X-020061Y004539D01*
X-020131Y004593D01*
X-020212Y004627D01*
X-020300Y004638D01*
D02*
G37*
G36*
X-008626Y019682D02*
X-008671Y019676D01*
X-008760Y019639D01*
X-008837Y019581D01*
X-008895Y019504D01*
X-008932Y019415D01*
X-008938Y019370D01*
X-008626D01*
Y019682D01*
D02*
G37*
G36*
X-026400Y020277D02*
X-026524Y020261D01*
X-026639Y020213D01*
X-026738Y020138D01*
X-026813Y020039D01*
X-026861Y019924D01*
X-026877Y019800D01*
X-026861Y019676D01*
X-026813Y019561D01*
X-026738Y019462D01*
X-026639Y019387D01*
X-026524Y019339D01*
X-026400Y019323D01*
X-026276Y019339D01*
X-026161Y019387D01*
X-026062Y019462D01*
X-025986Y019561D01*
X-025939Y019676D01*
X-025923Y019800D01*
X-025939Y019924D01*
X-025986Y020039D01*
X-026062Y020138D01*
X-026161Y020213D01*
X-026276Y020261D01*
X-026400Y020277D01*
D02*
G37*
G36*
X-000628Y020084D02*
X-000940D01*
Y019772D01*
X-000895Y019778D01*
X-000806Y019815D01*
X-000729Y019873D01*
X-000671Y019950D01*
X-000634Y020039D01*
X-000628Y020084D01*
D02*
G37*
G36*
X-008526Y019682D02*
Y019370D01*
X-008213D01*
X-008219Y019415D01*
X-008256Y019504D01*
X-008315Y019581D01*
X-008391Y019639D01*
X-008480Y019676D01*
X-008526Y019682D01*
D02*
G37*
G36*
X-002500Y019838D02*
X-002588Y019827D01*
X-002669Y019793D01*
X-002739Y019739D01*
X-002793Y019669D01*
X-002827Y019588D01*
X-002838Y019500D01*
X-002827Y019412D01*
X-002793Y019331D01*
X-002739Y019261D01*
X-002669Y019207D01*
X-002588Y019173D01*
X-002500Y019162D01*
X-002412Y019173D01*
X-002331Y019207D01*
X-002261Y019261D01*
X-002207Y019331D01*
X-002173Y019412D01*
X-002162Y019500D01*
X-002173Y019588D01*
X-002207Y019669D01*
X-002261Y019739D01*
X-002331Y019793D01*
X-002412Y019827D01*
X-002500Y019838D01*
D02*
G37*
G36*
X-005500D02*
X-005588Y019827D01*
X-005669Y019793D01*
X-005739Y019739D01*
X-005793Y019669D01*
X-005827Y019588D01*
X-005838Y019500D01*
X-005827Y019412D01*
X-005793Y019331D01*
X-005739Y019261D01*
X-005669Y019207D01*
X-005588Y019173D01*
X-005500Y019162D01*
X-005412Y019173D01*
X-005331Y019207D01*
X-005261Y019261D01*
X-005207Y019331D01*
X-005173Y019412D01*
X-005162Y019500D01*
X-005173Y019588D01*
X-005207Y019669D01*
X-005261Y019739D01*
X-005331Y019793D01*
X-005412Y019827D01*
X-005500Y019838D01*
D02*
G37*
G36*
X-014200Y019596D02*
Y019300D01*
X-013904D01*
X-013909Y019341D01*
X-013944Y019427D01*
X-014000Y019500D01*
X-014073Y019556D01*
X-014159Y019591D01*
X-014200Y019596D01*
D02*
G37*
G36*
X-014300D02*
X-014341Y019591D01*
X-014427Y019556D01*
X-014500Y019500D01*
X-014556Y019427D01*
X-014591Y019341D01*
X-014596Y019300D01*
X-014300D01*
Y019596D01*
D02*
G37*
G36*
X-001040Y020497D02*
X-001085Y020491D01*
X-001174Y020454D01*
X-001251Y020395D01*
X-001309Y020319D01*
X-001346Y020230D01*
X-001352Y020184D01*
X-001040D01*
Y020497D01*
D02*
G37*
G36*
X-023216Y020763D02*
X-023310Y020751D01*
X-023397Y020714D01*
X-023472Y020657D01*
X-023530Y020582D01*
X-023566Y020494D01*
X-023579Y020400D01*
X-023566Y020306D01*
X-023530Y020218D01*
X-023472Y020143D01*
X-023397Y020086D01*
X-023310Y020049D01*
X-023216Y020037D01*
X-023122Y020049D01*
X-023034Y020086D01*
X-022959Y020143D01*
X-022901Y020218D01*
X-022865Y020306D01*
X-022853Y020400D01*
X-022865Y020494D01*
X-022901Y020582D01*
X-022959Y020657D01*
X-023034Y020714D01*
X-023122Y020751D01*
X-023216Y020763D01*
D02*
G37*
G36*
X-009590Y021227D02*
X-009714Y021211D01*
X-009829Y021163D01*
X-009928Y021088D01*
X-010003Y020989D01*
X-010051Y020874D01*
X-010067Y020750D01*
X-010051Y020626D01*
X-010003Y020511D01*
X-009928Y020412D01*
X-009829Y020336D01*
X-009714Y020289D01*
X-009590Y020273D01*
X-009466Y020289D01*
X-009351Y020336D01*
X-009252Y020412D01*
X-009176Y020511D01*
X-009129Y020626D01*
X-009113Y020750D01*
X-009129Y020874D01*
X-009176Y020989D01*
X-009252Y021088D01*
X-009351Y021163D01*
X-009466Y021211D01*
X-009590Y021227D01*
D02*
G37*
G36*
X-000940Y020497D02*
Y020184D01*
X-000628D01*
X-000634Y020230D01*
X-000671Y020319D01*
X-000729Y020395D01*
X-000806Y020454D01*
X-000895Y020491D01*
X-000940Y020497D01*
D02*
G37*
G36*
X-013918Y020531D02*
X-014450D01*
X-014496Y020512D01*
X-014515Y020466D01*
Y019934D01*
X-014496Y019888D01*
X-014450Y019869D01*
X-013918D01*
X-013873Y019888D01*
X-013854Y019934D01*
Y020466D01*
X-013873Y020512D01*
X-013918Y020531D01*
D02*
G37*
G36*
X-001040Y020084D02*
X-001352D01*
X-001346Y020039D01*
X-001309Y019950D01*
X-001251Y019873D01*
X-001174Y019815D01*
X-001085Y019778D01*
X-001040Y019772D01*
Y020084D01*
D02*
G37*
G36*
X-025184Y020763D02*
X-025278Y020751D01*
X-025366Y020714D01*
X-025441Y020657D01*
X-025499Y020582D01*
X-025535Y020494D01*
X-025547Y020400D01*
X-025535Y020306D01*
X-025499Y020218D01*
X-025441Y020143D01*
X-025366Y020086D01*
X-025278Y020049D01*
X-025184Y020037D01*
X-025090Y020049D01*
X-025003Y020086D01*
X-024927Y020143D01*
X-024870Y020218D01*
X-024834Y020306D01*
X-024821Y020400D01*
X-024834Y020494D01*
X-024870Y020582D01*
X-024927Y020657D01*
X-025003Y020714D01*
X-025090Y020751D01*
X-025184Y020763D01*
D02*
G37*
G36*
X-012216Y020529D02*
X-012301Y020517D01*
X-012380Y020485D01*
X-012448Y020432D01*
X-012500Y020364D01*
X-012533Y020285D01*
X-012544Y020200D01*
X-012533Y020115D01*
X-012500Y020036D01*
X-012448Y019968D01*
X-012380Y019915D01*
X-012301Y019883D01*
X-012216Y019871D01*
X-012131Y019883D01*
X-012051Y019915D01*
X-011983Y019968D01*
X-011931Y020036D01*
X-011898Y020115D01*
X-011887Y020200D01*
X-011898Y020285D01*
X-011931Y020364D01*
X-011983Y020432D01*
X-012051Y020485D01*
X-012131Y020517D01*
X-012216Y020529D01*
D02*
G37*
G36*
X-007500Y019869D02*
X-007594Y019856D01*
X-007682Y019820D01*
X-007757Y019763D01*
X-007814Y019687D01*
X-007851Y019600D01*
X-007863Y019506D01*
X-007851Y019412D01*
X-007814Y019324D01*
X-007757Y019249D01*
X-007682Y019191D01*
X-007594Y019155D01*
X-007500Y019143D01*
X-007406Y019155D01*
X-007318Y019191D01*
X-007243Y019249D01*
X-007186Y019324D01*
X-007149Y019412D01*
X-007137Y019506D01*
X-007149Y019600D01*
X-007186Y019687D01*
X-007243Y019763D01*
X-007318Y019820D01*
X-007406Y019856D01*
X-007500Y019869D01*
D02*
G37*
G36*
X-006950Y018847D02*
X-006995Y018841D01*
X-007084Y018804D01*
X-007161Y018745D01*
X-007219Y018669D01*
X-007256Y018580D01*
X-007262Y018534D01*
X-006950D01*
Y018847D01*
D02*
G37*
G36*
X-015230Y018512D02*
Y018170D01*
X-014888D01*
X-014895Y018223D01*
X-014935Y018319D01*
X-014998Y018402D01*
X-015081Y018465D01*
X-015177Y018505D01*
X-015230Y018512D01*
D02*
G37*
G36*
X-026500Y019238D02*
X-026588Y019227D01*
X-026669Y019193D01*
X-026739Y019139D01*
X-026793Y019069D01*
X-026827Y018988D01*
X-026838Y018900D01*
X-026827Y018812D01*
X-026793Y018731D01*
X-026739Y018661D01*
X-026669Y018607D01*
X-026588Y018573D01*
X-026500Y018562D01*
X-026412Y018573D01*
X-026331Y018607D01*
X-026261Y018661D01*
X-026207Y018731D01*
X-026173Y018812D01*
X-026162Y018900D01*
X-026173Y018988D01*
X-026207Y019069D01*
X-026261Y019139D01*
X-026331Y019193D01*
X-026412Y019227D01*
X-026500Y019238D01*
D02*
G37*
G36*
X-006850Y018847D02*
Y018534D01*
X-006538D01*
X-006544Y018580D01*
X-006581Y018669D01*
X-006639Y018745D01*
X-006716Y018804D01*
X-006805Y018841D01*
X-006850Y018847D01*
D02*
G37*
G36*
X-017330Y018512D02*
X-017383Y018505D01*
X-017479Y018465D01*
X-017562Y018402D01*
X-017625Y018319D01*
X-017665Y018223D01*
X-017672Y018170D01*
X-017330D01*
Y018512D01*
D02*
G37*
G36*
X-002500Y018838D02*
X-002588Y018827D01*
X-002669Y018793D01*
X-002739Y018739D01*
X-002793Y018669D01*
X-002827Y018588D01*
X-002838Y018500D01*
X-002827Y018412D01*
X-002793Y018331D01*
X-002739Y018261D01*
X-002669Y018207D01*
X-002588Y018173D01*
X-002500Y018162D01*
X-002412Y018173D01*
X-002331Y018207D01*
X-002261Y018261D01*
X-002207Y018331D01*
X-002173Y018412D01*
X-002162Y018500D01*
X-002173Y018588D01*
X-002207Y018669D01*
X-002261Y018739D01*
X-002331Y018793D01*
X-002412Y018827D01*
X-002500Y018838D01*
D02*
G37*
G36*
X-017230Y018512D02*
Y018170D01*
X-016888D01*
X-016895Y018223D01*
X-016935Y018319D01*
X-016998Y018402D01*
X-017081Y018465D01*
X-017177Y018505D01*
X-017230Y018512D01*
D02*
G37*
G36*
X-015330D02*
X-015383Y018505D01*
X-015479Y018465D01*
X-015562Y018402D01*
X-015625Y018319D01*
X-015665Y018223D01*
X-015672Y018170D01*
X-015330D01*
Y018512D01*
D02*
G37*
G36*
X-008213Y019270D02*
X-008526D01*
Y018958D01*
X-008480Y018964D01*
X-008391Y019001D01*
X-008315Y019059D01*
X-008256Y019136D01*
X-008219Y019225D01*
X-008213Y019270D01*
D02*
G37*
G36*
X-008626D02*
X-008938D01*
X-008932Y019225D01*
X-008895Y019136D01*
X-008837Y019059D01*
X-008760Y019001D01*
X-008671Y018964D01*
X-008626Y018958D01*
Y019270D01*
D02*
G37*
G36*
X-019150Y019731D02*
X-019682D01*
X-019727Y019712D01*
X-019746Y019666D01*
Y019134D01*
X-019727Y019088D01*
X-019682Y019069D01*
X-019150D01*
X-019104Y019088D01*
X-019085Y019134D01*
Y019666D01*
X-019104Y019712D01*
X-019150Y019731D01*
D02*
G37*
G36*
X-027574Y019715D02*
X-028106D01*
X-028152Y019696D01*
X-028171Y019650D01*
Y019118D01*
X-028152Y019073D01*
X-028106Y019054D01*
X-027574D01*
X-027528Y019073D01*
X-027509Y019118D01*
Y019650D01*
X-027528Y019696D01*
X-027574Y019715D01*
D02*
G37*
G36*
X-022400Y019677D02*
X-022524Y019661D01*
X-022639Y019613D01*
X-022738Y019538D01*
X-022813Y019439D01*
X-022861Y019324D01*
X-022877Y019200D01*
X-022861Y019076D01*
X-022813Y018961D01*
X-022738Y018862D01*
X-022639Y018786D01*
X-022524Y018739D01*
X-022400Y018723D01*
X-022276Y018739D01*
X-022161Y018786D01*
X-022062Y018862D01*
X-021986Y018961D01*
X-021939Y019076D01*
X-021923Y019200D01*
X-021939Y019324D01*
X-021986Y019439D01*
X-022062Y019538D01*
X-022161Y019613D01*
X-022276Y019661D01*
X-022400Y019677D01*
D02*
G37*
G36*
X-023500Y019238D02*
X-023588Y019227D01*
X-023669Y019193D01*
X-023739Y019139D01*
X-023793Y019069D01*
X-023827Y018988D01*
X-023838Y018900D01*
X-023827Y018812D01*
X-023793Y018731D01*
X-023739Y018661D01*
X-023669Y018607D01*
X-023588Y018573D01*
X-023500Y018562D01*
X-023412Y018573D01*
X-023331Y018607D01*
X-023261Y018661D01*
X-023207Y018731D01*
X-023173Y018812D01*
X-023162Y018900D01*
X-023173Y018988D01*
X-023207Y019069D01*
X-023261Y019139D01*
X-023331Y019193D01*
X-023412Y019227D01*
X-023500Y019238D01*
D02*
G37*
G36*
X-013904Y019200D02*
X-014200D01*
Y018904D01*
X-014159Y018909D01*
X-014073Y018944D01*
X-014000Y019000D01*
X-013944Y019073D01*
X-013909Y019159D01*
X-013904Y019200D01*
D02*
G37*
G36*
X-014300D02*
X-014596D01*
X-014591Y019159D01*
X-014556Y019073D01*
X-014500Y019000D01*
X-014427Y018944D01*
X-014341Y018909D01*
X-014300Y018904D01*
Y019200D01*
D02*
G37*
G36*
X-021600Y021277D02*
X-021724Y021261D01*
X-021839Y021214D01*
X-021938Y021138D01*
X-022013Y021039D01*
X-022061Y020924D01*
X-022077Y020800D01*
X-022061Y020676D01*
X-022013Y020561D01*
X-021938Y020462D01*
X-021839Y020387D01*
X-021724Y020339D01*
X-021600Y020323D01*
X-021476Y020339D01*
X-021361Y020387D01*
X-021262Y020462D01*
X-021186Y020561D01*
X-021139Y020676D01*
X-021123Y020800D01*
X-021139Y020924D01*
X-021186Y021039D01*
X-021262Y021138D01*
X-021361Y021214D01*
X-021476Y021261D01*
X-021600Y021277D01*
D02*
G37*
G36*
X-026250Y022863D02*
X-026344Y022851D01*
X-026432Y022814D01*
X-026507Y022757D01*
X-026564Y022682D01*
X-026601Y022594D01*
X-026613Y022500D01*
X-026601Y022406D01*
X-026564Y022318D01*
X-026507Y022243D01*
X-026432Y022186D01*
X-026344Y022149D01*
X-026250Y022137D01*
X-026156Y022149D01*
X-026068Y022186D01*
X-025993Y022243D01*
X-025936Y022318D01*
X-025899Y022406D01*
X-025887Y022500D01*
X-025899Y022594D01*
X-025936Y022682D01*
X-025993Y022757D01*
X-026068Y022814D01*
X-026156Y022851D01*
X-026250Y022863D01*
D02*
G37*
G36*
X-006050Y022172D02*
Y021850D01*
X-005728D01*
X-005734Y021898D01*
X-005772Y021989D01*
X-005832Y022068D01*
X-005911Y022128D01*
X-006002Y022166D01*
X-006050Y022172D01*
D02*
G37*
G36*
X-023750Y022863D02*
X-023844Y022851D01*
X-023932Y022814D01*
X-024007Y022757D01*
X-024064Y022682D01*
X-024101Y022594D01*
X-024113Y022500D01*
X-024101Y022406D01*
X-024064Y022318D01*
X-024007Y022243D01*
X-023932Y022186D01*
X-023844Y022149D01*
X-023750Y022137D01*
X-023656Y022149D01*
X-023568Y022186D01*
X-023493Y022243D01*
X-023436Y022318D01*
X-023399Y022406D01*
X-023387Y022500D01*
X-023399Y022594D01*
X-023436Y022682D01*
X-023493Y022757D01*
X-023568Y022814D01*
X-023656Y022851D01*
X-023750Y022863D01*
D02*
G37*
G36*
X-025000D02*
X-025094Y022851D01*
X-025182Y022814D01*
X-025257Y022757D01*
X-025314Y022682D01*
X-025351Y022594D01*
X-025363Y022500D01*
X-025351Y022406D01*
X-025314Y022318D01*
X-025257Y022243D01*
X-025182Y022186D01*
X-025094Y022149D01*
X-025000Y022137D01*
X-024906Y022149D01*
X-024818Y022186D01*
X-024743Y022243D01*
X-024686Y022318D01*
X-024649Y022406D01*
X-024637Y022500D01*
X-024649Y022594D01*
X-024686Y022682D01*
X-024743Y022757D01*
X-024818Y022814D01*
X-024906Y022851D01*
X-025000Y022863D01*
D02*
G37*
G36*
X-028000Y023154D02*
X-028128Y023141D01*
X-028250Y023104D01*
X-028363Y023044D01*
X-028462Y022962D01*
X-028544Y022863D01*
X-028604Y022750D01*
X-028641Y022628D01*
X-028654Y022500D01*
X-028641Y022372D01*
X-028604Y022250D01*
X-028544Y022137D01*
X-028462Y022038D01*
X-028363Y021956D01*
X-028250Y021896D01*
X-028128Y021859D01*
X-028000Y021846D01*
X-027872Y021859D01*
X-027750Y021896D01*
X-027637Y021956D01*
X-027538Y022038D01*
X-027456Y022137D01*
X-027396Y022250D01*
X-027359Y022372D01*
X-027346Y022500D01*
X-027359Y022628D01*
X-027396Y022750D01*
X-027456Y022863D01*
X-027538Y022962D01*
X-027637Y023044D01*
X-027750Y023104D01*
X-027872Y023141D01*
X-028000Y023154D01*
D02*
G37*
G36*
X-007450Y021871D02*
Y021524D01*
X-007103D01*
X-007110Y021579D01*
X-007151Y021676D01*
X-007215Y021760D01*
X-007298Y021824D01*
X-007396Y021864D01*
X-007450Y021871D01*
D02*
G37*
G36*
X-006150Y022172D02*
X-006198Y022166D01*
X-006289Y022128D01*
X-006368Y022068D01*
X-006428Y021989D01*
X-006466Y021898D01*
X-006472Y021850D01*
X-006150D01*
Y022172D01*
D02*
G37*
G36*
X-001000Y023154D02*
X-001128Y023141D01*
X-001250Y023104D01*
X-001363Y023044D01*
X-001462Y022962D01*
X-001544Y022863D01*
X-001604Y022750D01*
X-001641Y022628D01*
X-001654Y022500D01*
X-001641Y022372D01*
X-001604Y022250D01*
X-001544Y022137D01*
X-001462Y022038D01*
X-001363Y021956D01*
X-001250Y021896D01*
X-001128Y021859D01*
X-001000Y021846D01*
X-000872Y021859D01*
X-000750Y021896D01*
X-000637Y021956D01*
X-000538Y022038D01*
X-000456Y022137D01*
X-000396Y022250D01*
X-000359Y022372D01*
X-000346Y022500D01*
X-000359Y022628D01*
X-000396Y022750D01*
X-000456Y022863D01*
X-000538Y022962D01*
X-000637Y023044D01*
X-000750Y023104D01*
X-000872Y023141D01*
X-001000Y023154D01*
D02*
G37*
G36*
X-015066Y022862D02*
X-015111Y022856D01*
X-015200Y022819D01*
X-015277Y022761D01*
X-015335Y022684D01*
X-015372Y022595D01*
X-015378Y022550D01*
X-015066D01*
Y022862D01*
D02*
G37*
G36*
X-016718Y022831D02*
X-017250D01*
X-017296Y022812D01*
X-017315Y022766D01*
Y022234D01*
X-017296Y022188D01*
X-017250Y022169D01*
X-016718D01*
X-016673Y022188D01*
X-016654Y022234D01*
Y022766D01*
X-016673Y022812D01*
X-016718Y022831D01*
D02*
G37*
G36*
X-010000Y022863D02*
X-010094Y022851D01*
X-010182Y022814D01*
X-010257Y022757D01*
X-010314Y022682D01*
X-010343Y022612D01*
X-010907D01*
X-010936Y022682D01*
X-010993Y022757D01*
X-011068Y022814D01*
X-011156Y022851D01*
X-011250Y022863D01*
X-011344Y022851D01*
X-011432Y022814D01*
X-011507Y022757D01*
X-011564Y022682D01*
X-011593Y022612D01*
X-012157D01*
X-012186Y022682D01*
X-012243Y022757D01*
X-012318Y022814D01*
X-012406Y022851D01*
X-012500Y022863D01*
X-012594Y022851D01*
X-012682Y022814D01*
X-012757Y022757D01*
X-012814Y022682D01*
X-012851Y022594D01*
X-012863Y022500D01*
X-012851Y022406D01*
X-012814Y022318D01*
X-012757Y022243D01*
X-012682Y022186D01*
X-012594Y022149D01*
X-012500Y022137D01*
X-012406Y022149D01*
X-012318Y022186D01*
X-012243Y022243D01*
X-012186Y022318D01*
X-012157Y022388D01*
X-011593D01*
X-011572Y022337D01*
X-013639Y020269D01*
X-013664Y020233D01*
X-013672Y020190D01*
X-013672Y020190D01*
Y018314D01*
X-013664Y018271D01*
X-013639Y018235D01*
X-013639Y018235D01*
X-011085Y015681D01*
X-011049Y015656D01*
X-011006Y015648D01*
X-011006Y015648D01*
X-010322D01*
X-010297Y015598D01*
X-010319Y015569D01*
X-010356Y015480D01*
X-010362Y015434D01*
X-010000D01*
Y015384D01*
X-009950D01*
Y015022D01*
X-009905Y015028D01*
X-009816Y015065D01*
X-009786Y015087D01*
X-009736Y015062D01*
Y013838D01*
X-009828Y013746D01*
X-010266D01*
X-010312Y013727D01*
X-010331Y013681D01*
Y013244D01*
X-011117Y012458D01*
X-011164Y012481D01*
X-011162Y012500D01*
X-011173Y012588D01*
X-011207Y012669D01*
X-011261Y012739D01*
X-011331Y012793D01*
X-011412Y012827D01*
X-011500Y012838D01*
X-011588Y012827D01*
X-011669Y012793D01*
X-011739Y012739D01*
X-011793Y012669D01*
X-011827Y012588D01*
X-011838Y012500D01*
X-011827Y012412D01*
X-011793Y012331D01*
X-011739Y012261D01*
X-011669Y012207D01*
X-011588Y012173D01*
X-011500Y012162D01*
X-011481Y012164D01*
X-011458Y012117D01*
X-012465Y011109D01*
X-014403D01*
X-014446Y011101D01*
X-014482Y011076D01*
X-014482Y011076D01*
X-016540Y009018D01*
X-016607Y009046D01*
X-016700Y009058D01*
X-016793Y009046D01*
X-016879Y009010D01*
X-016953Y008953D01*
X-017010Y008879D01*
X-017046Y008793D01*
X-017058Y008700D01*
X-017046Y008607D01*
X-017010Y008521D01*
X-016953Y008447D01*
X-016879Y008390D01*
X-016793Y008354D01*
X-016700Y008342D01*
X-016607Y008354D01*
X-016521Y008390D01*
X-016447Y008447D01*
X-016390Y008521D01*
X-016354Y008607D01*
X-016342Y008700D01*
X-016354Y008793D01*
X-016382Y008860D01*
X-014357Y010885D01*
X-012419D01*
X-012419Y010885D01*
X-012376Y010893D01*
X-012340Y010918D01*
X-010172Y013085D01*
X-009734D01*
X-009688Y013104D01*
X-009669Y013150D01*
Y013588D01*
X-009567Y013690D01*
X-009517Y013669D01*
Y010805D01*
X-009517Y010805D01*
X-009509Y010762D01*
X-009485Y010726D01*
X-008318Y009560D01*
X-008346Y009493D01*
X-008358Y009400D01*
X-008346Y009307D01*
X-008310Y009221D01*
X-008261Y009157D01*
X-008277Y009107D01*
X-008640D01*
Y009695D01*
X-008659Y009741D01*
X-008705Y009760D01*
X-009295D01*
X-009341Y009741D01*
X-009360Y009695D01*
Y009105D01*
X-009341Y009059D01*
X-009295Y009040D01*
X-009129D01*
X-009110Y008994D01*
X-009486Y008618D01*
X-010722D01*
X-010736Y008668D01*
X-010686Y008734D01*
X-010649Y008822D01*
X-010637Y008916D01*
X-010649Y009010D01*
X-010686Y009097D01*
X-010743Y009172D01*
X-010818Y009230D01*
X-010906Y009266D01*
X-011000Y009279D01*
X-011094Y009266D01*
X-011182Y009230D01*
X-011257Y009172D01*
X-011314Y009097D01*
X-011351Y009010D01*
X-011363Y008916D01*
X-011356Y008861D01*
X-011356Y008858D01*
X-011399Y008812D01*
X-012362D01*
X-012390Y008879D01*
X-012447Y008953D01*
X-012521Y009010D01*
X-012607Y009046D01*
X-012700Y009058D01*
X-012793Y009046D01*
X-012879Y009010D01*
X-012953Y008953D01*
X-013010Y008879D01*
X-013046Y008793D01*
X-013058Y008700D01*
X-013046Y008607D01*
X-013010Y008521D01*
X-012953Y008447D01*
X-012879Y008390D01*
X-012793Y008354D01*
X-012700Y008342D01*
X-012607Y008354D01*
X-012521Y008390D01*
X-012447Y008447D01*
X-012390Y008521D01*
X-012362Y008588D01*
X-011411D01*
X-011249Y008426D01*
X-011249Y008426D01*
X-011213Y008402D01*
X-011170Y008394D01*
X-011170Y008394D01*
X-009440D01*
X-009440Y008394D01*
X-009428Y008396D01*
X-009375Y008363D01*
X-009374Y008360D01*
X-009366Y008302D01*
X-009328Y008211D01*
X-009268Y008132D01*
X-009189Y008072D01*
X-009098Y008034D01*
X-009050Y008028D01*
Y008400D01*
X-009000D01*
Y008450D01*
X-008628D01*
X-008634Y008498D01*
X-008672Y008589D01*
X-008732Y008668D01*
X-008811Y008728D01*
X-008902Y008766D01*
X-008944Y008772D01*
X-008962Y008824D01*
X-008904Y008883D01*
X-005832D01*
X-005832Y008883D01*
X-005789Y008891D01*
X-005753Y008915D01*
X-005404Y009265D01*
X-005350Y009252D01*
X-005340Y009219D01*
X-006583Y007976D01*
X-006607Y007939D01*
X-006616Y007896D01*
X-006616Y007896D01*
Y005943D01*
X-007855Y004703D01*
X-007912Y004727D01*
X-008000Y004738D01*
X-008088Y004727D01*
X-008169Y004693D01*
X-008239Y004639D01*
X-008293Y004569D01*
X-008327Y004488D01*
X-008338Y004400D01*
X-008327Y004312D01*
X-008293Y004231D01*
X-008239Y004161D01*
X-008169Y004107D01*
X-008088Y004073D01*
X-008000Y004062D01*
X-007912Y004073D01*
X-007831Y004107D01*
X-007761Y004161D01*
X-007707Y004231D01*
X-007673Y004312D01*
X-007662Y004400D01*
X-007673Y004488D01*
X-007697Y004545D01*
X-006424Y005817D01*
X-006424Y005817D01*
X-006400Y005853D01*
X-006392Y005896D01*
Y007850D01*
X-005160Y009082D01*
X-005093Y009054D01*
X-005000Y009042D01*
X-004907Y009054D01*
X-004821Y009090D01*
X-004747Y009147D01*
X-004690Y009221D01*
X-004654Y009307D01*
X-004642Y009400D01*
X-004654Y009493D01*
X-004690Y009579D01*
X-004747Y009653D01*
X-004821Y009710D01*
X-004907Y009746D01*
X-004987Y009757D01*
X-005011Y009803D01*
X-003535Y011280D01*
X-003435D01*
X-003435Y011280D01*
X-003392Y011288D01*
X-003356Y011313D01*
X-001593Y013075D01*
X-001588Y013073D01*
X-001500Y013062D01*
X-001412Y013073D01*
X-001331Y013107D01*
X-001261Y013161D01*
X-001207Y013231D01*
X-001173Y013312D01*
X-001162Y013400D01*
X-001173Y013488D01*
X-001207Y013569D01*
X-001261Y013639D01*
X-001331Y013693D01*
X-001412Y013727D01*
X-001500Y013738D01*
X-001588Y013727D01*
X-001669Y013693D01*
X-001739Y013639D01*
X-001793Y013569D01*
X-001827Y013488D01*
X-001838Y013400D01*
X-001827Y013312D01*
X-001793Y013231D01*
X-001776Y013209D01*
X-002597Y012389D01*
X-002643Y012413D01*
X-002654Y012493D01*
X-002690Y012579D01*
X-002747Y012653D01*
X-002821Y012710D01*
X-002888Y012738D01*
Y015545D01*
X-002888Y015545D01*
X-002896Y015588D01*
X-002921Y015625D01*
X-002921Y015625D01*
X-005423Y018127D01*
X-005403Y018177D01*
X-005331Y018207D01*
X-005261Y018261D01*
X-005207Y018331D01*
X-005173Y018412D01*
X-005162Y018500D01*
X-005173Y018588D01*
X-005207Y018669D01*
X-005261Y018739D01*
X-005331Y018793D01*
X-005412Y018827D01*
X-005500Y018838D01*
X-005588Y018827D01*
X-005669Y018793D01*
X-005739Y018739D01*
X-005793Y018669D01*
X-005827Y018588D01*
X-005838Y018500D01*
X-005827Y018412D01*
X-005793Y018331D01*
X-005747Y018271D01*
X-005762Y018221D01*
X-006578D01*
X-006603Y018271D01*
X-006581Y018300D01*
X-006544Y018389D01*
X-006538Y018434D01*
X-006900D01*
Y018484D01*
D01*
Y018434D01*
X-007262D01*
X-007256Y018389D01*
X-007219Y018300D01*
X-007197Y018271D01*
X-007222Y018221D01*
X-008117D01*
X-009671Y019775D01*
X-009708Y019799D01*
X-009750Y019808D01*
X-009750Y019808D01*
X-012504D01*
X-012504Y019808D01*
X-012547Y019799D01*
X-012584Y019775D01*
X-013075Y019284D01*
X-013119Y019302D01*
X-013200Y019313D01*
X-013281Y019302D01*
X-013356Y019271D01*
X-013398Y019239D01*
X-013448Y019264D01*
Y020144D01*
X-011413Y022178D01*
X-011344Y022149D01*
X-011250Y022137D01*
X-011156Y022149D01*
X-011068Y022186D01*
X-010993Y022243D01*
X-010936Y022318D01*
X-010907Y022388D01*
X-010343D01*
X-010314Y022318D01*
X-010257Y022243D01*
X-010182Y022186D01*
X-010094Y022149D01*
X-010000Y022137D01*
X-009906Y022149D01*
X-009818Y022186D01*
X-009743Y022243D01*
X-009686Y022318D01*
X-009649Y022406D01*
X-009637Y022500D01*
X-009649Y022594D01*
X-009686Y022682D01*
X-009743Y022757D01*
X-009818Y022814D01*
X-009906Y022851D01*
X-010000Y022863D01*
D02*
G37*
G36*
X-014966Y022862D02*
Y022550D01*
X-014653D01*
X-014659Y022595D01*
X-014696Y022684D01*
X-014755Y022761D01*
X-014831Y022819D01*
X-014920Y022856D01*
X-014966Y022862D01*
D02*
G37*
G36*
X-008750Y022863D02*
X-008844Y022851D01*
X-008932Y022814D01*
X-009007Y022757D01*
X-009064Y022682D01*
X-009101Y022594D01*
X-009113Y022500D01*
X-009101Y022406D01*
X-009064Y022318D01*
X-009007Y022243D01*
X-008932Y022186D01*
X-008844Y022149D01*
X-008750Y022137D01*
X-008656Y022149D01*
X-008568Y022186D01*
X-008493Y022243D01*
X-008436Y022318D01*
X-008399Y022406D01*
X-008387Y022500D01*
X-008399Y022594D01*
X-008436Y022682D01*
X-008493Y022757D01*
X-008568Y022814D01*
X-008656Y022851D01*
X-008750Y022863D01*
D02*
G37*
G36*
X-022500D02*
X-022594Y022851D01*
X-022682Y022814D01*
X-022757Y022757D01*
X-022814Y022682D01*
X-022851Y022594D01*
X-022863Y022500D01*
X-022851Y022406D01*
X-022814Y022318D01*
X-022757Y022243D01*
X-022682Y022186D01*
X-022594Y022149D01*
X-022500Y022137D01*
X-022406Y022149D01*
X-022318Y022186D01*
X-022243Y022243D01*
X-022186Y022318D01*
X-022149Y022406D01*
X-022137Y022500D01*
X-022149Y022594D01*
X-022186Y022682D01*
X-022243Y022757D01*
X-022318Y022814D01*
X-022406Y022851D01*
X-022500Y022863D01*
D02*
G37*
G36*
X-014653Y022450D02*
X-014966D01*
Y022138D01*
X-014920Y022144D01*
X-014831Y022181D01*
X-014755Y022239D01*
X-014696Y022316D01*
X-014659Y022405D01*
X-014653Y022450D01*
D02*
G37*
G36*
X-015066D02*
X-015378D01*
X-015372Y022405D01*
X-015335Y022316D01*
X-015277Y022239D01*
X-015200Y022181D01*
X-015111Y022144D01*
X-015066Y022138D01*
Y022450D01*
D02*
G37*
G36*
X-007550Y021871D02*
X-007604Y021864D01*
X-007702Y021824D01*
X-007785Y021760D01*
X-007849Y021676D01*
X-007890Y021579D01*
X-007897Y021524D01*
X-007550D01*
Y021871D01*
D02*
G37*
G36*
X-016280Y021478D02*
X-016373Y021466D01*
X-016459Y021430D01*
X-016533Y021373D01*
X-016590Y021299D01*
X-016626Y021213D01*
X-016638Y021120D01*
X-016626Y021027D01*
X-016598Y020960D01*
X-016765Y020794D01*
X-016789Y020758D01*
X-016797Y020715D01*
X-016797Y020715D01*
Y017952D01*
X-016797Y017952D01*
X-016789Y017909D01*
X-016765Y017873D01*
X-016612Y017720D01*
Y015717D01*
X-016669Y015693D01*
X-016739Y015639D01*
X-016793Y015569D01*
X-016827Y015488D01*
X-016838Y015400D01*
X-016827Y015312D01*
X-016793Y015231D01*
X-016739Y015161D01*
X-016669Y015107D01*
X-016588Y015073D01*
X-016500Y015062D01*
X-016412Y015073D01*
X-016331Y015107D01*
X-016261Y015161D01*
X-016207Y015231D01*
X-016173Y015312D01*
X-016162Y015400D01*
X-016173Y015488D01*
X-016207Y015569D01*
X-016261Y015639D01*
X-016331Y015693D01*
X-016388Y015717D01*
Y017728D01*
X-016387Y017730D01*
X-016339Y017769D01*
X-016280Y017762D01*
X-016187Y017774D01*
X-016101Y017810D01*
X-016027Y017867D01*
X-015970Y017941D01*
X-015934Y018027D01*
X-015922Y018120D01*
X-015934Y018213D01*
X-015970Y018299D01*
X-016027Y018373D01*
X-016101Y018430D01*
X-016187Y018466D01*
X-016280Y018478D01*
X-016373Y018466D01*
X-016459Y018430D01*
X-016523Y018381D01*
X-016573Y018397D01*
Y020668D01*
X-016440Y020802D01*
X-016373Y020774D01*
X-016280Y020762D01*
X-016187Y020774D01*
X-016101Y020810D01*
X-016027Y020867D01*
X-015970Y020941D01*
X-015934Y021027D01*
X-015922Y021120D01*
X-015934Y021213D01*
X-015970Y021299D01*
X-016027Y021373D01*
X-016101Y021430D01*
X-016187Y021466D01*
X-016280Y021478D01*
D02*
G37*
G36*
X-017280D02*
X-017373Y021466D01*
X-017459Y021430D01*
X-017533Y021373D01*
X-017590Y021299D01*
X-017626Y021213D01*
X-017638Y021120D01*
X-017626Y021027D01*
X-017590Y020941D01*
X-017533Y020867D01*
X-017459Y020810D01*
X-017373Y020774D01*
X-017280Y020762D01*
X-017187Y020774D01*
X-017101Y020810D01*
X-017027Y020867D01*
X-016970Y020941D01*
X-016934Y021027D01*
X-016922Y021120D01*
X-016934Y021213D01*
X-016970Y021299D01*
X-017027Y021373D01*
X-017101Y021430D01*
X-017187Y021466D01*
X-017280Y021478D01*
D02*
G37*
G36*
X-007550Y021424D02*
X-007897D01*
X-007890Y021370D01*
X-007849Y021273D01*
X-007785Y021189D01*
X-007702Y021125D01*
X-007604Y021085D01*
X-007550Y021077D01*
Y021424D01*
D02*
G37*
G36*
X-015280Y021478D02*
X-015373Y021466D01*
X-015459Y021430D01*
X-015533Y021373D01*
X-015590Y021299D01*
X-015626Y021213D01*
X-015638Y021120D01*
X-015626Y021027D01*
X-015590Y020941D01*
X-015533Y020867D01*
X-015459Y020810D01*
X-015373Y020774D01*
X-015280Y020762D01*
X-015187Y020774D01*
X-015101Y020810D01*
X-015027Y020867D01*
X-014970Y020941D01*
X-014934Y021027D01*
X-014922Y021120D01*
X-014934Y021213D01*
X-014970Y021299D01*
X-015027Y021373D01*
X-015101Y021430D01*
X-015187Y021466D01*
X-015280Y021478D01*
D02*
G37*
G36*
X-003016Y021163D02*
X-003110Y021151D01*
X-003197Y021114D01*
X-003273Y021057D01*
X-003330Y020982D01*
X-003366Y020894D01*
X-003379Y020800D01*
X-003366Y020706D01*
X-003330Y020618D01*
X-003273Y020543D01*
X-003197Y020486D01*
X-003110Y020449D01*
X-003016Y020437D01*
X-002922Y020449D01*
X-002834Y020486D01*
X-002759Y020543D01*
X-002701Y020618D01*
X-002665Y020706D01*
X-002653Y020800D01*
X-002665Y020894D01*
X-002701Y020982D01*
X-002759Y021057D01*
X-002834Y021114D01*
X-002922Y021151D01*
X-003016Y021163D01*
D02*
G37*
G36*
X-004984D02*
X-005078Y021151D01*
X-005166Y021114D01*
X-005241Y021057D01*
X-005299Y020982D01*
X-005335Y020894D01*
X-005347Y020800D01*
X-005335Y020706D01*
X-005299Y020618D01*
X-005241Y020543D01*
X-005166Y020486D01*
X-005078Y020449D01*
X-004984Y020437D01*
X-004890Y020449D01*
X-004803Y020486D01*
X-004728Y020543D01*
X-004670Y020618D01*
X-004634Y020706D01*
X-004621Y020800D01*
X-004634Y020894D01*
X-004670Y020982D01*
X-004728Y021057D01*
X-004803Y021114D01*
X-004890Y021151D01*
X-004984Y021163D01*
D02*
G37*
G36*
X-018280Y021478D02*
X-018373Y021466D01*
X-018459Y021430D01*
X-018533Y021373D01*
X-018590Y021299D01*
X-018618Y021232D01*
X-019664D01*
X-019707Y021224D01*
X-019744Y021199D01*
X-019744Y021199D01*
X-021247Y019696D01*
X-021299Y019717D01*
X-021384Y019729D01*
X-021469Y019717D01*
X-021549Y019685D01*
X-021617Y019632D01*
X-021669Y019564D01*
X-021702Y019485D01*
X-021713Y019400D01*
X-021702Y019315D01*
X-021669Y019236D01*
X-021617Y019168D01*
X-021549Y019115D01*
X-021469Y019083D01*
X-021384Y019071D01*
X-021299Y019083D01*
X-021220Y019115D01*
X-021152Y019168D01*
X-021100Y019236D01*
X-021067Y019315D01*
X-021056Y019400D01*
X-021067Y019485D01*
X-021088Y019537D01*
X-019618Y021008D01*
X-018618D01*
X-018590Y020941D01*
X-018533Y020867D01*
X-018459Y020810D01*
X-018373Y020774D01*
X-018280Y020762D01*
X-018187Y020774D01*
X-018101Y020810D01*
X-018027Y020867D01*
X-017970Y020941D01*
X-017934Y021027D01*
X-017922Y021120D01*
X-017934Y021213D01*
X-017970Y021299D01*
X-018027Y021373D01*
X-018101Y021430D01*
X-018187Y021466D01*
X-018280Y021478D01*
D02*
G37*
G36*
X-001460Y021567D02*
X-001584Y021551D01*
X-001699Y021504D01*
X-001798Y021428D01*
X-001874Y021329D01*
X-001921Y021214D01*
X-001937Y021090D01*
X-001921Y020966D01*
X-001874Y020851D01*
X-001798Y020752D01*
X-001699Y020677D01*
X-001584Y020629D01*
X-001460Y020613D01*
X-001336Y020629D01*
X-001221Y020677D01*
X-001122Y020752D01*
X-001046Y020851D01*
X-000999Y020966D01*
X-000983Y021090D01*
X-000999Y021214D01*
X-001046Y021329D01*
X-001122Y021428D01*
X-001221Y021504D01*
X-001336Y021551D01*
X-001460Y021567D01*
D02*
G37*
G36*
X-006150Y021750D02*
X-006472D01*
X-006466Y021702D01*
X-006428Y021611D01*
X-006368Y021532D01*
X-006289Y021472D01*
X-006198Y021434D01*
X-006150Y021428D01*
Y021750D01*
D02*
G37*
G36*
X-022500Y021863D02*
X-022594Y021851D01*
X-022682Y021814D01*
X-022757Y021757D01*
X-022814Y021682D01*
X-022851Y021594D01*
X-022863Y021500D01*
X-022851Y021406D01*
X-022814Y021318D01*
X-022757Y021243D01*
X-022682Y021186D01*
X-022594Y021149D01*
X-022500Y021137D01*
X-022406Y021149D01*
X-022318Y021186D01*
X-022243Y021243D01*
X-022186Y021318D01*
X-022149Y021406D01*
X-022137Y021500D01*
X-022149Y021594D01*
X-022186Y021682D01*
X-022243Y021757D01*
X-022318Y021814D01*
X-022406Y021851D01*
X-022500Y021863D01*
D02*
G37*
G36*
X-003100Y022138D02*
X-003188Y022127D01*
X-003269Y022093D01*
X-003339Y022039D01*
X-003393Y021969D01*
X-003427Y021888D01*
X-003438Y021800D01*
X-003427Y021712D01*
X-003393Y021631D01*
X-003339Y021561D01*
X-003269Y021507D01*
X-003188Y021473D01*
X-003100Y021462D01*
X-003012Y021473D01*
X-002931Y021507D01*
X-002861Y021561D01*
X-002807Y021631D01*
X-002773Y021712D01*
X-002762Y021800D01*
X-002773Y021888D01*
X-002807Y021969D01*
X-002861Y022039D01*
X-002931Y022093D01*
X-003012Y022127D01*
X-003100Y022138D01*
D02*
G37*
G36*
X-005728Y021750D02*
X-006050D01*
Y021428D01*
X-006002Y021434D01*
X-005911Y021472D01*
X-005832Y021532D01*
X-005772Y021611D01*
X-005734Y021702D01*
X-005728Y021750D01*
D02*
G37*
G36*
X-026250Y021863D02*
X-026344Y021851D01*
X-026432Y021814D01*
X-026507Y021757D01*
X-026564Y021682D01*
X-026601Y021594D01*
X-026613Y021500D01*
X-026601Y021406D01*
X-026564Y021318D01*
X-026507Y021243D01*
X-026432Y021186D01*
X-026344Y021149D01*
X-026250Y021137D01*
X-026156Y021149D01*
X-026068Y021186D01*
X-025993Y021243D01*
X-025936Y021318D01*
X-025899Y021406D01*
X-025887Y021500D01*
X-025899Y021594D01*
X-025936Y021682D01*
X-025993Y021757D01*
X-026068Y021814D01*
X-026156Y021851D01*
X-026250Y021863D01*
D02*
G37*
G36*
X-007103Y021424D02*
X-007450D01*
Y021077D01*
X-007396Y021085D01*
X-007298Y021125D01*
X-007215Y021189D01*
X-007151Y021273D01*
X-007110Y021370D01*
X-007103Y021424D01*
D02*
G37*
G36*
X-023750Y021863D02*
X-023844Y021851D01*
X-023932Y021814D01*
X-024007Y021757D01*
X-024064Y021682D01*
X-024101Y021594D01*
X-024113Y021500D01*
X-024101Y021406D01*
X-024064Y021318D01*
X-024007Y021243D01*
X-023932Y021186D01*
X-023844Y021149D01*
X-023750Y021137D01*
X-023656Y021149D01*
X-023568Y021186D01*
X-023493Y021243D01*
X-023436Y021318D01*
X-023399Y021406D01*
X-023387Y021500D01*
X-023399Y021594D01*
X-023436Y021682D01*
X-023493Y021757D01*
X-023568Y021814D01*
X-023656Y021851D01*
X-023750Y021863D01*
D02*
G37*
G36*
X-025000D02*
X-025094Y021851D01*
X-025182Y021814D01*
X-025257Y021757D01*
X-025314Y021682D01*
X-025351Y021594D01*
X-025363Y021500D01*
X-025351Y021406D01*
X-025314Y021318D01*
X-025257Y021243D01*
X-025182Y021186D01*
X-025094Y021149D01*
X-025000Y021137D01*
X-024906Y021149D01*
X-024818Y021186D01*
X-024743Y021243D01*
X-024686Y021318D01*
X-024649Y021406D01*
X-024637Y021500D01*
X-024649Y021594D01*
X-024686Y021682D01*
X-024743Y021757D01*
X-024818Y021814D01*
X-024906Y021851D01*
X-025000Y021863D01*
D02*
G37*
G36*
X-017985Y018480D02*
X-018575D01*
X-018621Y018461D01*
X-018640Y018415D01*
Y017825D01*
X-018621Y017779D01*
X-018575Y017760D01*
X-017985D01*
X-017939Y017779D01*
X-017920Y017825D01*
Y018415D01*
X-017939Y018461D01*
X-017985Y018480D01*
D02*
G37*
G36*
X-027100Y015877D02*
X-027224Y015861D01*
X-027339Y015813D01*
X-027438Y015738D01*
X-027513Y015639D01*
X-027561Y015524D01*
X-027577Y015400D01*
X-027561Y015276D01*
X-027513Y015161D01*
X-027438Y015062D01*
X-027339Y014986D01*
X-027224Y014939D01*
X-027100Y014923D01*
X-026976Y014939D01*
X-026861Y014986D01*
X-026762Y015062D01*
X-026686Y015161D01*
X-026639Y015276D01*
X-026623Y015400D01*
X-026639Y015524D01*
X-026686Y015639D01*
X-026762Y015738D01*
X-026861Y015813D01*
X-026976Y015861D01*
X-027100Y015877D01*
D02*
G37*
G36*
X-025764Y015673D02*
X-025858Y015661D01*
X-025946Y015624D01*
X-026021Y015567D01*
X-026079Y015492D01*
X-026115Y015404D01*
X-026127Y015310D01*
X-026115Y015216D01*
X-026079Y015128D01*
X-026021Y015053D01*
X-025946Y014996D01*
X-025858Y014959D01*
X-025764Y014947D01*
X-025670Y014959D01*
X-025583Y014996D01*
X-025508Y015053D01*
X-025450Y015128D01*
X-025414Y015216D01*
X-025401Y015310D01*
X-025414Y015404D01*
X-025450Y015492D01*
X-025508Y015567D01*
X-025583Y015624D01*
X-025670Y015661D01*
X-025764Y015673D01*
D02*
G37*
G36*
X-010050Y015334D02*
X-010362D01*
X-010356Y015289D01*
X-010319Y015200D01*
X-010261Y015123D01*
X-010184Y015065D01*
X-010095Y015028D01*
X-010050Y015022D01*
Y015334D01*
D02*
G37*
G36*
X-023399Y015260D02*
X-023746D01*
Y014913D01*
X-023691Y014920D01*
X-023594Y014961D01*
X-023510Y015025D01*
X-023446Y015108D01*
X-023406Y015206D01*
X-023399Y015260D01*
D02*
G37*
G36*
X-019760Y014752D02*
Y014430D01*
X-019438D01*
X-019444Y014478D01*
X-019482Y014569D01*
X-019542Y014648D01*
X-019621Y014708D01*
X-019712Y014746D01*
X-019760Y014752D01*
D02*
G37*
G36*
X-000700Y015338D02*
X-000788Y015327D01*
X-000869Y015293D01*
X-000939Y015239D01*
X-000993Y015169D01*
X-001027Y015088D01*
X-001038Y015000D01*
X-001027Y014912D01*
X-000993Y014831D01*
X-000939Y014761D01*
X-000869Y014707D01*
X-000788Y014673D01*
X-000700Y014662D01*
X-000612Y014673D01*
X-000531Y014707D01*
X-000461Y014761D01*
X-000407Y014831D01*
X-000373Y014912D01*
X-000362Y015000D01*
X-000373Y015088D01*
X-000407Y015169D01*
X-000461Y015239D01*
X-000531Y015293D01*
X-000612Y015327D01*
X-000700Y015338D01*
D02*
G37*
G36*
X-023846Y015260D02*
X-024193D01*
X-024185Y015206D01*
X-024145Y015108D01*
X-024081Y015025D01*
X-023997Y014961D01*
X-023900Y014920D01*
X-023846Y014913D01*
Y015260D01*
D02*
G37*
G36*
X-011500Y015838D02*
X-011588Y015827D01*
X-011669Y015793D01*
X-011739Y015739D01*
X-011793Y015669D01*
X-011827Y015588D01*
X-011838Y015500D01*
X-011827Y015412D01*
X-011793Y015331D01*
X-011739Y015261D01*
X-011669Y015207D01*
X-011588Y015173D01*
X-011500Y015162D01*
X-011412Y015173D01*
X-011331Y015207D01*
X-011261Y015261D01*
X-011207Y015331D01*
X-011173Y015412D01*
X-011162Y015500D01*
X-011173Y015588D01*
X-011207Y015669D01*
X-011261Y015739D01*
X-011331Y015793D01*
X-011412Y015827D01*
X-011500Y015838D01*
D02*
G37*
G36*
X-023846Y015707D02*
X-023900Y015700D01*
X-023997Y015659D01*
X-024081Y015595D01*
X-024145Y015512D01*
X-024185Y015414D01*
X-024193Y015360D01*
X-023846D01*
Y015707D01*
D02*
G37*
G36*
X-023746D02*
Y015360D01*
X-023399D01*
X-023406Y015414D01*
X-023446Y015512D01*
X-023510Y015595D01*
X-023594Y015659D01*
X-023691Y015700D01*
X-023746Y015707D01*
D02*
G37*
G36*
X-012500Y015838D02*
X-012588Y015827D01*
X-012669Y015793D01*
X-012739Y015739D01*
X-012793Y015669D01*
X-012827Y015588D01*
X-012838Y015500D01*
X-012827Y015412D01*
X-012793Y015331D01*
X-012739Y015261D01*
X-012669Y015207D01*
X-012588Y015173D01*
X-012500Y015162D01*
X-012412Y015173D01*
X-012331Y015207D01*
X-012261Y015261D01*
X-012207Y015331D01*
X-012173Y015412D01*
X-012162Y015500D01*
X-012173Y015588D01*
X-012207Y015669D01*
X-012261Y015739D01*
X-012331Y015793D01*
X-012412Y015827D01*
X-012500Y015838D01*
D02*
G37*
G36*
X-015550Y015350D02*
X-015872D01*
X-015866Y015302D01*
X-015828Y015211D01*
X-015768Y015132D01*
X-015689Y015072D01*
X-015598Y015034D01*
X-015550Y015028D01*
Y015350D01*
D02*
G37*
G36*
X-015128D02*
X-015450D01*
Y015028D01*
X-015402Y015034D01*
X-015311Y015072D01*
X-015232Y015132D01*
X-015172Y015211D01*
X-015134Y015302D01*
X-015128Y015350D01*
D02*
G37*
G36*
X-017500Y015838D02*
X-017588Y015827D01*
X-017669Y015793D01*
X-017739Y015739D01*
X-017793Y015669D01*
X-017827Y015588D01*
X-017838Y015500D01*
X-017827Y015412D01*
X-017793Y015331D01*
X-017739Y015261D01*
X-017669Y015207D01*
X-017588Y015173D01*
X-017500Y015162D01*
X-017412Y015173D01*
X-017331Y015207D01*
X-017261Y015261D01*
X-017207Y015331D01*
X-017173Y015412D01*
X-017162Y015500D01*
X-017173Y015588D01*
X-017207Y015669D01*
X-017261Y015739D01*
X-017331Y015793D01*
X-017412Y015827D01*
X-017500Y015838D01*
D02*
G37*
G36*
X-019860Y014752D02*
X-019908Y014746D01*
X-019999Y014708D01*
X-020078Y014648D01*
X-020138Y014569D01*
X-020176Y014478D01*
X-020182Y014430D01*
X-019860D01*
Y014752D01*
D02*
G37*
G36*
X-020100Y013938D02*
X-020188Y013927D01*
X-020269Y013893D01*
X-020339Y013839D01*
X-020393Y013769D01*
X-020427Y013688D01*
X-020438Y013600D01*
X-020427Y013512D01*
X-020393Y013431D01*
X-020339Y013361D01*
X-020269Y013307D01*
X-020188Y013273D01*
X-020100Y013262D01*
X-020012Y013273D01*
X-019931Y013307D01*
X-019861Y013361D01*
X-019807Y013431D01*
X-019773Y013512D01*
X-019762Y013600D01*
X-019773Y013688D01*
X-019807Y013769D01*
X-019861Y013839D01*
X-019931Y013893D01*
X-020012Y013927D01*
X-020100Y013938D01*
D02*
G37*
G36*
X-028350Y013950D02*
X-028692D01*
X-028685Y013897D01*
X-028645Y013801D01*
X-028582Y013718D01*
X-028499Y013655D01*
X-028403Y013615D01*
X-028350Y013608D01*
Y013950D01*
D02*
G37*
G36*
X-027908D02*
X-028250D01*
Y013608D01*
X-028197Y013615D01*
X-028101Y013655D01*
X-028018Y013718D01*
X-027955Y013801D01*
X-027915Y013897D01*
X-027908Y013950D01*
D02*
G37*
G36*
X-023100Y013938D02*
X-023188Y013927D01*
X-023269Y013893D01*
X-023339Y013839D01*
X-023393Y013769D01*
X-023427Y013688D01*
X-023438Y013600D01*
X-023427Y013512D01*
X-023393Y013431D01*
X-023339Y013361D01*
X-023269Y013307D01*
X-023188Y013273D01*
X-023100Y013262D01*
X-023012Y013273D01*
X-022931Y013307D01*
X-022861Y013361D01*
X-022807Y013431D01*
X-022773Y013512D01*
X-022762Y013600D01*
X-022773Y013688D01*
X-022807Y013769D01*
X-022861Y013839D01*
X-022931Y013893D01*
X-023012Y013927D01*
X-023100Y013938D01*
D02*
G37*
G36*
X-026650Y013072D02*
Y012750D01*
X-026328D01*
X-026334Y012798D01*
X-026372Y012889D01*
X-026432Y012968D01*
X-026511Y013028D01*
X-026602Y013066D01*
X-026650Y013072D01*
D02*
G37*
G36*
X-025934Y013062D02*
X-025980Y013056D01*
X-026069Y013019D01*
X-026145Y012961D01*
X-026204Y012884D01*
X-026241Y012795D01*
X-026247Y012750D01*
X-025934D01*
Y013062D01*
D02*
G37*
G36*
X-025834D02*
Y012750D01*
X-025522D01*
X-025528Y012795D01*
X-025565Y012884D01*
X-025623Y012961D01*
X-025700Y013019D01*
X-025789Y013056D01*
X-025834Y013062D01*
D02*
G37*
G36*
X-028350Y014392D02*
X-028403Y014385D01*
X-028499Y014345D01*
X-028582Y014282D01*
X-028645Y014199D01*
X-028685Y014103D01*
X-028692Y014050D01*
X-028350D01*
Y014392D01*
D02*
G37*
G36*
X-028250D02*
Y014050D01*
X-027908D01*
X-027915Y014103D01*
X-027955Y014199D01*
X-028018Y014282D01*
X-028101Y014345D01*
X-028197Y014385D01*
X-028250Y014392D01*
D02*
G37*
G36*
X-001500Y014738D02*
X-001588Y014727D01*
X-001669Y014693D01*
X-001739Y014639D01*
X-001793Y014569D01*
X-001827Y014488D01*
X-001838Y014400D01*
X-001827Y014312D01*
X-001793Y014231D01*
X-001739Y014161D01*
X-001669Y014107D01*
X-001588Y014073D01*
X-001500Y014062D01*
X-001412Y014073D01*
X-001331Y014107D01*
X-001261Y014161D01*
X-001207Y014231D01*
X-001173Y014312D01*
X-001162Y014400D01*
X-001173Y014488D01*
X-001207Y014569D01*
X-001261Y014639D01*
X-001331Y014693D01*
X-001412Y014727D01*
X-001500Y014738D01*
D02*
G37*
G36*
X-019438Y014330D02*
X-019760D01*
Y014008D01*
X-019712Y014014D01*
X-019621Y014052D01*
X-019542Y014112D01*
X-019482Y014191D01*
X-019444Y014282D01*
X-019438Y014330D01*
D02*
G37*
G36*
X-027005Y014360D02*
X-027595D01*
X-027641Y014341D01*
X-027660Y014295D01*
Y013705D01*
X-027641Y013659D01*
X-027595Y013640D01*
X-027005D01*
X-026959Y013659D01*
X-026940Y013705D01*
Y014295D01*
X-026959Y014341D01*
X-027005Y014360D01*
D02*
G37*
G36*
X-018500Y014379D02*
X-018594Y014366D01*
X-018682Y014330D01*
X-018757Y014273D01*
X-018814Y014197D01*
X-018851Y014110D01*
X-018863Y014016D01*
X-018851Y013922D01*
X-018814Y013834D01*
X-018757Y013759D01*
X-018682Y013701D01*
X-018594Y013665D01*
X-018500Y013653D01*
X-018406Y013665D01*
X-018318Y013701D01*
X-018243Y013759D01*
X-018186Y013834D01*
X-018149Y013922D01*
X-018137Y014016D01*
X-018149Y014110D01*
X-018186Y014197D01*
X-018243Y014273D01*
X-018318Y014330D01*
X-018406Y014366D01*
X-018500Y014379D01*
D02*
G37*
G36*
X-019860Y014330D02*
X-020182D01*
X-020176Y014282D01*
X-020138Y014191D01*
X-020078Y014112D01*
X-019999Y014052D01*
X-019908Y014014D01*
X-019860Y014008D01*
Y014330D01*
D02*
G37*
G36*
X-017068Y017310D02*
X-017390D01*
Y016988D01*
X-017342Y016994D01*
X-017251Y017032D01*
X-017172Y017092D01*
X-017112Y017171D01*
X-017074Y017262D01*
X-017068Y017310D01*
D02*
G37*
G36*
X-023500Y018238D02*
X-023588Y018227D01*
X-023669Y018193D01*
X-023739Y018139D01*
X-023793Y018069D01*
X-023827Y017988D01*
X-023838Y017900D01*
X-023827Y017812D01*
X-023793Y017731D01*
X-023739Y017661D01*
X-023669Y017607D01*
X-023588Y017573D01*
X-023500Y017562D01*
X-023412Y017573D01*
X-023331Y017607D01*
X-023261Y017661D01*
X-023207Y017731D01*
X-023173Y017812D01*
X-023162Y017900D01*
X-023173Y017988D01*
X-023207Y018069D01*
X-023261Y018139D01*
X-023331Y018193D01*
X-023412Y018227D01*
X-023500Y018238D01*
D02*
G37*
G36*
X-027890Y017778D02*
X-027935Y017772D01*
X-028024Y017735D01*
X-028101Y017677D01*
X-028159Y017600D01*
X-028196Y017511D01*
X-028202Y017466D01*
X-027890D01*
Y017778D01*
D02*
G37*
G36*
X-018790Y017717D02*
X-018914Y017701D01*
X-019029Y017653D01*
X-019128Y017578D01*
X-019203Y017479D01*
X-019251Y017364D01*
X-019267Y017240D01*
X-019251Y017116D01*
X-019203Y017001D01*
X-019128Y016902D01*
X-019029Y016826D01*
X-018914Y016779D01*
X-018790Y016763D01*
X-018666Y016779D01*
X-018551Y016826D01*
X-018452Y016902D01*
X-018376Y017001D01*
X-018329Y017116D01*
X-018313Y017240D01*
X-018329Y017364D01*
X-018376Y017479D01*
X-018452Y017578D01*
X-018551Y017653D01*
X-018666Y017701D01*
X-018790Y017717D01*
D02*
G37*
G36*
X-017490Y017310D02*
X-017812D01*
X-017806Y017262D01*
X-017768Y017171D01*
X-017708Y017092D01*
X-017629Y017032D01*
X-017538Y016994D01*
X-017490Y016988D01*
Y017310D01*
D02*
G37*
G36*
X-027790Y017778D02*
Y017466D01*
X-027478D01*
X-027484Y017511D01*
X-027521Y017600D01*
X-027579Y017677D01*
X-027656Y017735D01*
X-027745Y017772D01*
X-027790Y017778D01*
D02*
G37*
G36*
X-026500Y018238D02*
X-026588Y018227D01*
X-026669Y018193D01*
X-026739Y018139D01*
X-026793Y018069D01*
X-026827Y017988D01*
X-026838Y017900D01*
X-026827Y017812D01*
X-026793Y017731D01*
X-026739Y017661D01*
X-026669Y017607D01*
X-026588Y017573D01*
X-026500Y017562D01*
X-026412Y017573D01*
X-026331Y017607D01*
X-026261Y017661D01*
X-026207Y017731D01*
X-026173Y017812D01*
X-026162Y017900D01*
X-026173Y017988D01*
X-026207Y018069D01*
X-026261Y018139D01*
X-026331Y018193D01*
X-026412Y018227D01*
X-026500Y018238D01*
D02*
G37*
G36*
X-027890Y017366D02*
X-028202D01*
X-028196Y017320D01*
X-028159Y017231D01*
X-028101Y017155D01*
X-028024Y017096D01*
X-027935Y017059D01*
X-027890Y017053D01*
Y017366D01*
D02*
G37*
G36*
X-027478D02*
X-027790D01*
Y017053D01*
X-027745Y017059D01*
X-027656Y017096D01*
X-027579Y017155D01*
X-027521Y017231D01*
X-027484Y017320D01*
X-027478Y017366D01*
D02*
G37*
G36*
X-002500Y017838D02*
X-002588Y017827D01*
X-002669Y017793D01*
X-002739Y017739D01*
X-002793Y017669D01*
X-002827Y017588D01*
X-002838Y017500D01*
X-002827Y017412D01*
X-002793Y017331D01*
X-002739Y017261D01*
X-002669Y017207D01*
X-002588Y017173D01*
X-002500Y017162D01*
X-002412Y017173D01*
X-002331Y017207D01*
X-002261Y017261D01*
X-002207Y017331D01*
X-002173Y017412D01*
X-002162Y017500D01*
X-002173Y017588D01*
X-002207Y017669D01*
X-002261Y017739D01*
X-002331Y017793D01*
X-002412Y017827D01*
X-002500Y017838D01*
D02*
G37*
G36*
X-016888Y018070D02*
X-017280D01*
X-017672D01*
X-017665Y018017D01*
X-017625Y017921D01*
X-017562Y017838D01*
X-017490Y017783D01*
X-017495Y017743D01*
X-017501Y017731D01*
X-017538Y017726D01*
X-017629Y017688D01*
X-017708Y017628D01*
X-017768Y017549D01*
X-017806Y017458D01*
X-017812Y017410D01*
X-017068D01*
X-017074Y017458D01*
X-017112Y017549D01*
X-017172Y017628D01*
X-017236Y017677D01*
X-017224Y017729D01*
X-017177Y017735D01*
X-017081Y017775D01*
X-016998Y017838D01*
X-016935Y017921D01*
X-016895Y018017D01*
X-016888Y018070D01*
D02*
G37*
G36*
X-014440Y017698D02*
X-014528Y017687D01*
X-014609Y017653D01*
X-014679Y017599D01*
X-014733Y017529D01*
X-014767Y017448D01*
X-014778Y017360D01*
X-014767Y017272D01*
X-014733Y017191D01*
X-014679Y017121D01*
X-014609Y017067D01*
X-014528Y017033D01*
X-014440Y017022D01*
X-014352Y017033D01*
X-014271Y017067D01*
X-014201Y017121D01*
X-014147Y017191D01*
X-014113Y017272D01*
X-014102Y017360D01*
X-014113Y017448D01*
X-014147Y017529D01*
X-014201Y017599D01*
X-014271Y017653D01*
X-014352Y017687D01*
X-014440Y017698D01*
D02*
G37*
G36*
X-019810Y017718D02*
X-019898Y017707D01*
X-019979Y017673D01*
X-020049Y017619D01*
X-020103Y017549D01*
X-020137Y017468D01*
X-020148Y017380D01*
X-020137Y017292D01*
X-020103Y017211D01*
X-020049Y017141D01*
X-019979Y017087D01*
X-019898Y017053D01*
X-019810Y017042D01*
X-019722Y017053D01*
X-019641Y017087D01*
X-019571Y017141D01*
X-019517Y017211D01*
X-019483Y017292D01*
X-019472Y017380D01*
X-019483Y017468D01*
X-019517Y017549D01*
X-019571Y017619D01*
X-019641Y017673D01*
X-019722Y017707D01*
X-019810Y017718D01*
D02*
G37*
G36*
X-013500Y015838D02*
X-013588Y015827D01*
X-013669Y015793D01*
X-013739Y015739D01*
X-013793Y015669D01*
X-013817Y015612D01*
X-014183D01*
X-014207Y015669D01*
X-014261Y015739D01*
X-014331Y015793D01*
X-014412Y015827D01*
X-014500Y015838D01*
X-014588Y015827D01*
X-014669Y015793D01*
X-014739Y015739D01*
X-014793Y015669D01*
X-014827Y015588D01*
X-014838Y015500D01*
X-014827Y015412D01*
X-014793Y015331D01*
X-014739Y015261D01*
X-014669Y015207D01*
X-014588Y015173D01*
X-014500Y015162D01*
X-014412Y015173D01*
X-014331Y015207D01*
X-014261Y015261D01*
X-014207Y015331D01*
X-014183Y015388D01*
X-013817D01*
X-013793Y015331D01*
X-013739Y015261D01*
X-013669Y015207D01*
X-013588Y015173D01*
X-013500Y015162D01*
X-013412Y015173D01*
X-013331Y015207D01*
X-013261Y015261D01*
X-013207Y015331D01*
X-013173Y015412D01*
X-013162Y015500D01*
X-013173Y015588D01*
X-013207Y015669D01*
X-013261Y015739D01*
X-013331Y015793D01*
X-013412Y015827D01*
X-013500Y015838D01*
D02*
G37*
G36*
X-023370Y017227D02*
X-023494Y017211D01*
X-023609Y017163D01*
X-023708Y017088D01*
X-023784Y016989D01*
X-023831Y016874D01*
X-023847Y016750D01*
X-023831Y016626D01*
X-023784Y016511D01*
X-023708Y016412D01*
X-023609Y016336D01*
X-023494Y016289D01*
X-023370Y016273D01*
X-023246Y016289D01*
X-023131Y016336D01*
X-023032Y016412D01*
X-022957Y016511D01*
X-022909Y016626D01*
X-022907Y016638D01*
X-019312D01*
X-018822Y016148D01*
X-018851Y016078D01*
X-018863Y015984D01*
X-018851Y015890D01*
X-018814Y015803D01*
X-018757Y015727D01*
X-018682Y015670D01*
X-018594Y015634D01*
X-018500Y015621D01*
X-018406Y015634D01*
X-018318Y015670D01*
X-018243Y015727D01*
X-018186Y015803D01*
X-018149Y015890D01*
X-018137Y015984D01*
X-018149Y016078D01*
X-018186Y016166D01*
X-018243Y016241D01*
X-018318Y016299D01*
X-018406Y016335D01*
X-018500Y016347D01*
X-018594Y016335D01*
X-018663Y016306D01*
X-019186Y016829D01*
X-019223Y016854D01*
X-019266Y016862D01*
X-019266Y016862D01*
X-022907D01*
X-022909Y016874D01*
X-022957Y016989D01*
X-023032Y017088D01*
X-023131Y017163D01*
X-023246Y017211D01*
X-023370Y017227D01*
D02*
G37*
G36*
X-015330Y018070D02*
X-015672D01*
X-015665Y018017D01*
X-015625Y017921D01*
X-015562Y017838D01*
X-015479Y017775D01*
X-015383Y017735D01*
X-015330Y017728D01*
Y018070D01*
D02*
G37*
G36*
X-014888D02*
X-015230D01*
Y017728D01*
X-015177Y017735D01*
X-015081Y017775D01*
X-014998Y017838D01*
X-014935Y017921D01*
X-014895Y018017D01*
X-014888Y018070D01*
D02*
G37*
G36*
X-015550Y015772D02*
X-015598Y015766D01*
X-015689Y015728D01*
X-015768Y015668D01*
X-015828Y015589D01*
X-015866Y015498D01*
X-015872Y015450D01*
X-015550D01*
Y015772D01*
D02*
G37*
G36*
X-015450D02*
Y015450D01*
X-015128D01*
X-015134Y015498D01*
X-015172Y015589D01*
X-015232Y015668D01*
X-015311Y015728D01*
X-015402Y015766D01*
X-015450Y015772D01*
D02*
G37*
G36*
X-001550Y016350D02*
X-001872D01*
X-001866Y016302D01*
X-001828Y016211D01*
X-001768Y016132D01*
X-001689Y016072D01*
X-001598Y016034D01*
X-001550Y016028D01*
Y016350D01*
D02*
G37*
G36*
X-017410Y016898D02*
X-017498Y016887D01*
X-017579Y016853D01*
X-017649Y016799D01*
X-017703Y016729D01*
X-017737Y016648D01*
X-017748Y016560D01*
X-017737Y016472D01*
X-017703Y016391D01*
X-017649Y016321D01*
X-017579Y016267D01*
X-017498Y016233D01*
X-017410Y016222D01*
X-017322Y016233D01*
X-017241Y016267D01*
X-017171Y016321D01*
X-017117Y016391D01*
X-017083Y016472D01*
X-017072Y016560D01*
X-017083Y016648D01*
X-017117Y016729D01*
X-017171Y016799D01*
X-017241Y016853D01*
X-017322Y016887D01*
X-017410Y016898D01*
D02*
G37*
G36*
X-014410D02*
X-014498Y016887D01*
X-014579Y016853D01*
X-014649Y016799D01*
X-014703Y016729D01*
X-014737Y016648D01*
X-014748Y016560D01*
X-014737Y016472D01*
X-014703Y016391D01*
X-014649Y016321D01*
X-014579Y016267D01*
X-014498Y016233D01*
X-014410Y016222D01*
X-014322Y016233D01*
X-014241Y016267D01*
X-014171Y016321D01*
X-014117Y016391D01*
X-014083Y016472D01*
X-014072Y016560D01*
X-014083Y016648D01*
X-014117Y016729D01*
X-014171Y016799D01*
X-014241Y016853D01*
X-014322Y016887D01*
X-014410Y016898D01*
D02*
G37*
G36*
X-001550Y016772D02*
X-001598Y016766D01*
X-001689Y016728D01*
X-001768Y016668D01*
X-001828Y016589D01*
X-001866Y016498D01*
X-001872Y016450D01*
X-001550D01*
Y016772D01*
D02*
G37*
G36*
X-027500Y016838D02*
X-027588Y016827D01*
X-027669Y016793D01*
X-027739Y016739D01*
X-027793Y016669D01*
X-027827Y016588D01*
X-027838Y016500D01*
X-027827Y016412D01*
X-027793Y016331D01*
X-027739Y016261D01*
X-027669Y016207D01*
X-027588Y016173D01*
X-027500Y016162D01*
X-027412Y016173D01*
X-027331Y016207D01*
X-027261Y016261D01*
X-027207Y016331D01*
X-027173Y016412D01*
X-027162Y016500D01*
X-027173Y016588D01*
X-027207Y016669D01*
X-027261Y016739D01*
X-027331Y016793D01*
X-027412Y016827D01*
X-027500Y016838D01*
D02*
G37*
G36*
X-024500D02*
X-024588Y016827D01*
X-024669Y016793D01*
X-024739Y016739D01*
X-024793Y016669D01*
X-024827Y016588D01*
X-024838Y016500D01*
X-024827Y016412D01*
X-024793Y016331D01*
X-024739Y016261D01*
X-024669Y016207D01*
X-024588Y016173D01*
X-024500Y016162D01*
X-024412Y016173D01*
X-024331Y016207D01*
X-024261Y016261D01*
X-024207Y016331D01*
X-024173Y016412D01*
X-024162Y016500D01*
X-024173Y016588D01*
X-024207Y016669D01*
X-024261Y016739D01*
X-024331Y016793D01*
X-024412Y016827D01*
X-024500Y016838D01*
D02*
G37*
G36*
X-013194Y016923D02*
X-013288Y016911D01*
X-013376Y016874D01*
X-013451Y016817D01*
X-013509Y016742D01*
X-013545Y016654D01*
X-013557Y016560D01*
X-013545Y016466D01*
X-013509Y016378D01*
X-013451Y016303D01*
X-013376Y016246D01*
X-013288Y016209D01*
X-013194Y016197D01*
X-013100Y016209D01*
X-013013Y016246D01*
X-012938Y016303D01*
X-012880Y016378D01*
X-012844Y016466D01*
X-012831Y016560D01*
X-012844Y016654D01*
X-012880Y016742D01*
X-012938Y016817D01*
X-013013Y016874D01*
X-013100Y016911D01*
X-013194Y016923D01*
D02*
G37*
%LPD*%
G36*
X-008399Y018186D02*
X-008420Y018136D01*
X-008488Y018127D01*
X-008569Y018093D01*
X-008639Y018039D01*
X-008693Y017969D01*
X-008727Y017888D01*
X-008738Y017800D01*
X-008727Y017712D01*
X-008693Y017631D01*
X-008639Y017561D01*
X-008569Y017507D01*
X-008488Y017473D01*
X-008400Y017462D01*
X-008312Y017473D01*
X-008231Y017507D01*
X-008161Y017561D01*
X-008107Y017631D01*
X-008073Y017712D01*
X-008062Y017800D01*
X-008073Y017888D01*
X-008097Y017946D01*
X-008069Y017996D01*
X-005610D01*
X-005499Y017886D01*
X-005520Y017836D01*
X-005588Y017827D01*
X-005669Y017793D01*
X-005739Y017739D01*
X-005793Y017669D01*
X-005827Y017588D01*
X-005838Y017500D01*
X-005827Y017412D01*
X-005793Y017331D01*
X-005739Y017261D01*
X-005669Y017207D01*
X-005588Y017173D01*
X-005500Y017162D01*
X-005412Y017173D01*
X-005331Y017207D01*
X-005261Y017261D01*
X-005207Y017331D01*
X-005173Y017412D01*
X-005164Y017480D01*
X-005114Y017501D01*
X-004382Y016768D01*
X-004410Y016726D01*
X-004412Y016727D01*
X-004500Y016738D01*
X-004588Y016727D01*
X-004669Y016693D01*
X-004739Y016639D01*
X-004793Y016569D01*
X-004817Y016512D01*
X-006569D01*
Y016782D01*
X-006588Y016827D01*
X-006634Y016846D01*
X-007166D01*
X-007212Y016827D01*
X-007231Y016782D01*
Y016250D01*
X-007228Y016243D01*
Y016031D01*
X-008375Y014884D01*
X-008419Y014902D01*
X-008500Y014913D01*
X-008581Y014902D01*
X-008656Y014871D01*
X-008721Y014821D01*
X-008771Y014756D01*
X-008802Y014681D01*
X-008813Y014600D01*
X-008802Y014519D01*
X-008771Y014444D01*
X-008721Y014379D01*
X-008656Y014329D01*
X-008581Y014298D01*
X-008500Y014287D01*
X-008419Y014298D01*
X-008344Y014329D01*
X-008279Y014379D01*
X-008229Y014444D01*
X-008198Y014519D01*
X-008187Y014600D01*
X-008198Y014681D01*
X-008216Y014725D01*
X-007036Y015905D01*
X-007036Y015905D01*
X-007012Y015941D01*
X-007004Y015984D01*
X-007004Y015984D01*
Y016185D01*
X-006634D01*
X-006588Y016204D01*
X-006569Y016250D01*
Y016288D01*
X-004817D01*
X-004793Y016231D01*
X-004739Y016161D01*
X-004669Y016107D01*
X-004588Y016073D01*
X-004500Y016062D01*
X-004412Y016073D01*
X-004331Y016107D01*
X-004261Y016161D01*
X-004207Y016231D01*
X-004173Y016312D01*
X-004162Y016400D01*
X-004173Y016488D01*
X-004174Y016490D01*
X-004132Y016518D01*
X-003112Y015499D01*
Y012738D01*
X-003179Y012710D01*
X-003253Y012653D01*
X-003310Y012579D01*
X-003346Y012493D01*
X-003358Y012400D01*
X-003346Y012307D01*
X-003310Y012221D01*
X-003253Y012147D01*
X-003179Y012090D01*
X-003093Y012054D01*
X-003013Y012043D01*
X-002989Y011997D01*
X-003481Y011504D01*
X-003581D01*
X-003581Y011504D01*
X-003624Y011496D01*
X-003660Y011471D01*
X-005485Y009647D01*
X-005509Y009611D01*
X-005517Y009568D01*
X-005517Y009568D01*
Y009468D01*
X-005597Y009389D01*
X-005643Y009413D01*
X-005654Y009493D01*
X-005682Y009560D01*
X-005421Y009821D01*
X-005421Y009821D01*
X-005396Y009857D01*
X-005388Y009900D01*
X-005388Y009900D01*
Y012277D01*
X-005338Y012287D01*
X-005310Y012221D01*
X-005253Y012147D01*
X-005179Y012090D01*
X-005093Y012054D01*
X-005000Y012042D01*
X-004907Y012054D01*
X-004821Y012090D01*
X-004747Y012147D01*
X-004690Y012221D01*
X-004654Y012307D01*
X-004642Y012400D01*
X-004654Y012493D01*
X-004690Y012579D01*
X-004747Y012653D01*
X-004821Y012710D01*
X-004907Y012746D01*
X-005000Y012758D01*
X-005093Y012746D01*
X-005179Y012710D01*
X-005253Y012653D01*
X-005310Y012579D01*
X-005338Y012513D01*
X-005388Y012523D01*
Y015387D01*
X-005360Y015412D01*
X-005272Y015423D01*
X-005191Y015457D01*
X-005121Y015511D01*
X-005067Y015581D01*
X-005033Y015662D01*
X-005022Y015750D01*
X-005033Y015838D01*
X-005067Y015919D01*
X-005121Y015989D01*
X-005191Y016043D01*
X-005272Y016077D01*
X-005360Y016088D01*
X-005448Y016077D01*
X-005529Y016043D01*
X-005599Y015989D01*
X-005653Y015919D01*
X-005687Y015838D01*
X-005698Y015750D01*
X-005687Y015662D01*
X-005653Y015581D01*
X-005612Y015527D01*
Y013904D01*
X-005662Y013891D01*
X-005738Y013949D01*
X-005836Y013990D01*
X-005890Y013997D01*
Y013600D01*
Y013203D01*
X-005836Y013210D01*
X-005738Y013251D01*
X-005662Y013309D01*
X-005612Y013296D01*
Y012622D01*
X-005622Y012617D01*
X-005662Y012609D01*
X-005718Y012682D01*
X-005801Y012745D01*
X-005897Y012785D01*
X-005950Y012792D01*
Y012400D01*
Y012008D01*
X-005897Y012015D01*
X-005801Y012055D01*
X-005718Y012118D01*
X-005662Y012191D01*
X-005622Y012183D01*
X-005612Y012178D01*
Y009946D01*
X-005840Y009718D01*
X-005907Y009746D01*
X-006000Y009758D01*
X-006093Y009746D01*
X-006179Y009710D01*
X-006253Y009653D01*
X-006310Y009579D01*
X-006346Y009493D01*
X-006358Y009400D01*
X-006346Y009307D01*
X-006310Y009221D01*
X-006261Y009157D01*
X-006277Y009107D01*
X-006723D01*
X-006739Y009157D01*
X-006690Y009221D01*
X-006654Y009307D01*
X-006642Y009400D01*
X-006654Y009493D01*
X-006690Y009579D01*
X-006747Y009653D01*
X-006821Y009710D01*
X-006888Y009738D01*
Y012062D01*
X-006821Y012090D01*
X-006747Y012147D01*
X-006690Y012221D01*
X-006654Y012307D01*
X-006642Y012400D01*
X-006654Y012493D01*
X-006690Y012579D01*
X-006747Y012653D01*
X-006821Y012710D01*
X-006907Y012746D01*
X-007000Y012758D01*
X-007093Y012746D01*
X-007179Y012710D01*
X-007253Y012653D01*
X-007310Y012579D01*
X-007346Y012493D01*
X-007358Y012400D01*
X-007346Y012307D01*
X-007310Y012221D01*
X-007253Y012147D01*
X-007179Y012090D01*
X-007112Y012062D01*
Y009738D01*
X-007179Y009710D01*
X-007253Y009653D01*
X-007310Y009579D01*
X-007346Y009493D01*
X-007358Y009400D01*
X-007346Y009307D01*
X-007310Y009221D01*
X-007261Y009157D01*
X-007277Y009107D01*
X-007723D01*
X-007739Y009157D01*
X-007690Y009221D01*
X-007654Y009307D01*
X-007642Y009400D01*
X-007654Y009493D01*
X-007690Y009579D01*
X-007747Y009653D01*
X-007821Y009710D01*
X-007907Y009746D01*
X-008000Y009758D01*
X-008093Y009746D01*
X-008160Y009718D01*
X-009293Y010852D01*
Y012123D01*
X-009243Y012139D01*
X-009179Y012090D01*
X-009093Y012054D01*
X-009000Y012042D01*
X-008907Y012054D01*
X-008821Y012090D01*
X-008747Y012147D01*
X-008690Y012221D01*
X-008654Y012307D01*
X-008642Y012400D01*
X-008654Y012493D01*
X-008690Y012579D01*
X-008747Y012653D01*
X-008821Y012710D01*
X-008907Y012746D01*
X-009000Y012758D01*
X-009093Y012746D01*
X-009179Y012710D01*
X-009243Y012661D01*
X-009293Y012677D01*
Y016905D01*
X-009293Y016905D01*
X-009302Y016948D01*
X-009326Y016985D01*
X-009326Y016985D01*
X-010316Y017975D01*
X-010298Y018019D01*
X-010287Y018100D01*
X-010298Y018181D01*
X-010329Y018256D01*
X-010379Y018321D01*
X-010444Y018371D01*
X-010519Y018402D01*
X-010600Y018413D01*
X-010681Y018402D01*
X-010756Y018371D01*
X-010821Y018321D01*
X-010871Y018256D01*
X-010902Y018181D01*
X-010913Y018100D01*
X-010902Y018019D01*
X-010871Y017944D01*
X-010821Y017879D01*
X-010756Y017829D01*
X-010681Y017798D01*
X-010600Y017787D01*
X-010519Y017798D01*
X-010475Y017816D01*
X-009517Y016859D01*
Y016603D01*
X-009567Y016593D01*
X-009586Y016639D01*
X-009662Y016738D01*
X-009761Y016813D01*
X-009876Y016861D01*
X-010000Y016877D01*
X-010124Y016861D01*
X-010239Y016813D01*
X-010338Y016738D01*
X-010414Y016639D01*
X-010461Y016524D01*
X-010477Y016400D01*
X-010461Y016276D01*
X-010414Y016161D01*
X-010338Y016062D01*
X-010239Y015986D01*
X-010124Y015939D01*
X-010000Y015923D01*
X-009876Y015939D01*
X-009761Y015986D01*
X-009662Y016062D01*
X-009586Y016161D01*
X-009567Y016207D01*
X-009517Y016197D01*
Y015662D01*
X-009567Y015642D01*
X-009765Y015839D01*
X-009801Y015864D01*
X-009844Y015872D01*
X-009844Y015872D01*
X-010959D01*
X-011240Y016153D01*
X-011215Y016198D01*
X-011132Y016209D01*
X-011044Y016246D01*
X-010969Y016303D01*
X-010911Y016378D01*
X-010875Y016466D01*
X-010863Y016560D01*
X-010875Y016654D01*
X-010911Y016742D01*
X-010969Y016817D01*
X-011044Y016874D01*
X-011132Y016911D01*
X-011226Y016923D01*
X-011320Y016911D01*
X-011407Y016874D01*
X-011482Y016817D01*
X-011540Y016742D01*
X-011576Y016654D01*
X-011587Y016571D01*
X-011633Y016546D01*
X-013448Y018361D01*
Y018736D01*
X-013398Y018761D01*
X-013356Y018729D01*
X-013281Y018698D01*
X-013200Y018687D01*
X-013119Y018698D01*
X-013044Y018729D01*
X-012979Y018779D01*
X-012929Y018844D01*
X-012898Y018919D01*
X-012887Y019000D01*
X-012898Y019081D01*
X-012916Y019125D01*
X-012458Y019584D01*
X-010875D01*
Y019054D01*
X-010856Y019008D01*
X-010810Y018989D01*
X-010279D01*
X-010233Y019008D01*
X-010214Y019054D01*
Y019584D01*
X-009797D01*
X-008399Y018186D01*
D02*
G37*
%LPC*%
G36*
X-006050Y012792D02*
X-006103Y012785D01*
X-006199Y012745D01*
X-006282Y012682D01*
X-006345Y012599D01*
X-006385Y012503D01*
X-006392Y012450D01*
X-006050D01*
Y012792D01*
D02*
G37*
G36*
X-004500Y013738D02*
X-004588Y013727D01*
X-004669Y013693D01*
X-004739Y013639D01*
X-004793Y013569D01*
X-004827Y013488D01*
X-004838Y013400D01*
X-004827Y013312D01*
X-004793Y013231D01*
X-004739Y013161D01*
X-004669Y013107D01*
X-004588Y013073D01*
X-004500Y013062D01*
X-004412Y013073D01*
X-004331Y013107D01*
X-004261Y013161D01*
X-004207Y013231D01*
X-004173Y013312D01*
X-004162Y013400D01*
X-004173Y013488D01*
X-004207Y013569D01*
X-004261Y013639D01*
X-004331Y013693D01*
X-004412Y013727D01*
X-004500Y013738D01*
D02*
G37*
G36*
X-007908Y013963D02*
X-008002Y013951D01*
X-008090Y013914D01*
X-008165Y013857D01*
X-008223Y013782D01*
X-008259Y013694D01*
X-008272Y013600D01*
X-008259Y013506D01*
X-008223Y013418D01*
X-008165Y013343D01*
X-008090Y013286D01*
X-008002Y013249D01*
X-007908Y013237D01*
X-007815Y013249D01*
X-007727Y013286D01*
X-007652Y013343D01*
X-007594Y013418D01*
X-007558Y013506D01*
X-007545Y013600D01*
X-007558Y013694D01*
X-007594Y013782D01*
X-007652Y013857D01*
X-007727Y013914D01*
X-007815Y013951D01*
X-007908Y013963D01*
D02*
G37*
G36*
X-005990Y013550D02*
X-006337D01*
X-006330Y013496D01*
X-006289Y013398D01*
X-006225Y013315D01*
X-006142Y013251D01*
X-006044Y013210D01*
X-005990Y013203D01*
Y013550D01*
D02*
G37*
G36*
X-006050Y012350D02*
X-006392D01*
X-006385Y012297D01*
X-006345Y012201D01*
X-006282Y012118D01*
X-006199Y012055D01*
X-006103Y012015D01*
X-006050Y012008D01*
Y012350D01*
D02*
G37*
G36*
X-008000Y012758D02*
X-008093Y012746D01*
X-008179Y012710D01*
X-008253Y012653D01*
X-008310Y012579D01*
X-008346Y012493D01*
X-008358Y012400D01*
X-008346Y012307D01*
X-008310Y012221D01*
X-008253Y012147D01*
X-008179Y012090D01*
X-008093Y012054D01*
X-008000Y012042D01*
X-007907Y012054D01*
X-007821Y012090D01*
X-007747Y012147D01*
X-007690Y012221D01*
X-007654Y012307D01*
X-007642Y012400D01*
X-007654Y012493D01*
X-007690Y012579D01*
X-007747Y012653D01*
X-007821Y012710D01*
X-007907Y012746D01*
X-008000Y012758D01*
D02*
G37*
G36*
X-008360Y016088D02*
X-008448Y016077D01*
X-008529Y016043D01*
X-008599Y015989D01*
X-008653Y015919D01*
X-008687Y015838D01*
X-008698Y015750D01*
X-008687Y015662D01*
X-008653Y015581D01*
X-008599Y015511D01*
X-008529Y015457D01*
X-008448Y015423D01*
X-008360Y015412D01*
X-008272Y015423D01*
X-008191Y015457D01*
X-008121Y015511D01*
X-008067Y015581D01*
X-008033Y015662D01*
X-008022Y015750D01*
X-008033Y015838D01*
X-008067Y015919D01*
X-008121Y015989D01*
X-008191Y016043D01*
X-008272Y016077D01*
X-008360Y016088D01*
D02*
G37*
G36*
X-004500Y015738D02*
X-004588Y015727D01*
X-004669Y015693D01*
X-004739Y015639D01*
X-004793Y015569D01*
X-004827Y015488D01*
X-004838Y015400D01*
X-004827Y015312D01*
X-004793Y015231D01*
X-004739Y015161D01*
X-004669Y015107D01*
X-004588Y015073D01*
X-004500Y015062D01*
X-004412Y015073D01*
X-004331Y015107D01*
X-004261Y015161D01*
X-004207Y015231D01*
X-004173Y015312D01*
X-004162Y015400D01*
X-004173Y015488D01*
X-004207Y015569D01*
X-004261Y015639D01*
X-004331Y015693D01*
X-004412Y015727D01*
X-004500Y015738D01*
D02*
G37*
G36*
X-005990Y013997D02*
X-006044Y013990D01*
X-006142Y013949D01*
X-006225Y013885D01*
X-006289Y013802D01*
X-006330Y013704D01*
X-006337Y013650D01*
X-005990D01*
Y013997D01*
D02*
G37*
G36*
X-011400Y018138D02*
X-011488Y018127D01*
X-011569Y018093D01*
X-011639Y018039D01*
X-011693Y017969D01*
X-011727Y017888D01*
X-011738Y017800D01*
X-011727Y017712D01*
X-011693Y017631D01*
X-011639Y017561D01*
X-011569Y017507D01*
X-011488Y017473D01*
X-011400Y017462D01*
X-011312Y017473D01*
X-011231Y017507D01*
X-011161Y017561D01*
X-011107Y017631D01*
X-011073Y017712D01*
X-011062Y017800D01*
X-011073Y017888D01*
X-011107Y017969D01*
X-011161Y018039D01*
X-011231Y018093D01*
X-011312Y018127D01*
X-011400Y018138D01*
D02*
G37*
G36*
X-004000Y012758D02*
X-004093Y012746D01*
X-004179Y012710D01*
X-004253Y012653D01*
X-004310Y012579D01*
X-004346Y012493D01*
X-004358Y012400D01*
X-004346Y012307D01*
X-004310Y012221D01*
X-004253Y012147D01*
X-004179Y012090D01*
X-004093Y012054D01*
X-004000Y012042D01*
X-003907Y012054D01*
X-003821Y012090D01*
X-003747Y012147D01*
X-003690Y012221D01*
X-003654Y012307D01*
X-003642Y012400D01*
X-003654Y012493D01*
X-003690Y012579D01*
X-003747Y012653D01*
X-003821Y012710D01*
X-003907Y012746D01*
X-004000Y012758D01*
D02*
G37*
G36*
X-004500Y014738D02*
X-004588Y014727D01*
X-004669Y014693D01*
X-004739Y014639D01*
X-004793Y014569D01*
X-004827Y014488D01*
X-004838Y014400D01*
X-004827Y014312D01*
X-004793Y014231D01*
X-004739Y014161D01*
X-004669Y014107D01*
X-004588Y014073D01*
X-004500Y014062D01*
X-004412Y014073D01*
X-004331Y014107D01*
X-004261Y014161D01*
X-004207Y014231D01*
X-004173Y014312D01*
X-004162Y014400D01*
X-004173Y014488D01*
X-004207Y014569D01*
X-004261Y014639D01*
X-004331Y014693D01*
X-004412Y014727D01*
X-004500Y014738D01*
D02*
G37*
%LPD*%
D13*
X-012500Y022500D02*
X-011250D01*
X-010000D01*
X-013560Y020190D02*
X-011250Y022500D01*
X-001114Y018041D02*
X-000990Y018166D01*
X-001500Y015400D02*
X-001114Y015786D01*
Y018041D01*
X-013200Y019000D02*
X-012504Y019696D01*
X-023131Y010514D02*
X-022940D01*
X-023486Y010160D02*
X-023131Y010514D01*
X-023486Y009774D02*
Y010160D01*
X-022940Y010514D02*
X-022714Y010740D01*
X-014500Y015500D02*
X-013500D01*
X-016685Y017952D02*
Y020715D01*
X-016280Y021120D01*
X-016685Y017952D02*
X-016500Y017767D01*
Y015400D02*
Y017767D01*
X-005563Y018109D02*
X-003000Y015545D01*
X-007000Y009400D02*
Y012400D01*
X-001500Y013327D02*
Y013400D01*
X-003435Y011392D02*
X-001500Y013327D01*
X-003581Y011392D02*
X-003435D01*
X-005405Y009422D02*
Y009568D01*
X-003581Y011392D01*
X-011170Y008506D02*
X-009440D01*
X-011364Y008700D02*
X-011170Y008506D01*
X-012700Y008700D02*
X-011364D01*
X-008000Y004400D02*
X-006504Y005896D01*
X-019266Y016750D02*
X-018500Y015984D01*
X-019591Y008945D02*
X-018945D01*
X-018700Y008700D01*
X-017216Y007600D02*
X-016413Y006798D01*
X-018206Y007190D02*
X-017386Y008010D01*
X-016594D02*
X-014500Y005916D01*
X-020200Y007300D02*
X-019464D01*
X-017386Y008010D02*
X-016594D01*
X-024800Y008600D02*
X-024660D01*
X-023486Y009774D01*
X-023100Y011900D02*
X-022714Y011514D01*
Y010740D02*
Y011514D01*
X-006504Y007896D02*
X-005000Y009400D01*
X-006504Y005896D02*
Y007896D01*
X-005516Y007900D02*
X-005106Y007490D01*
Y004840D02*
Y007490D01*
X-005386Y003786D02*
Y004560D01*
Y003786D02*
X-005000Y003400D01*
X-005386Y004560D02*
X-005106Y004840D01*
X-016700Y008700D02*
X-014403Y010997D01*
X-004386Y002286D02*
Y005060D01*
Y002286D02*
X-004000Y001900D01*
X-003984Y007900D02*
X-003914Y007830D01*
X-004386Y005060D02*
X-003914Y005531D01*
Y007830D01*
X-003000Y001900D02*
X-002000D01*
X-003000Y012400D02*
Y015545D01*
X-016413Y004886D02*
X-015400Y003873D01*
X-016413Y004886D02*
Y006798D01*
X-015400Y001900D02*
Y003873D01*
X-023370Y016750D02*
X-019266D01*
X-021400Y010755D02*
X-019591Y008945D01*
X-021400Y010755D02*
Y016000D01*
X-021384Y019400D02*
X-019664Y021120D01*
X-018280D01*
X-020250Y007350D02*
X-020200Y007300D01*
X-008163Y018109D02*
X-005563D01*
X-009750Y019696D02*
X-008163Y018109D01*
X-012504Y019696D02*
X-009750D01*
X-006784Y016400D02*
X-004500D01*
X-006900Y016516D02*
X-006784Y016400D01*
X-013560Y018314D02*
X-011006Y015760D01*
X-009405Y010805D02*
X-008000Y009400D01*
X-005832Y008995D02*
X-005405Y009422D01*
X-009440Y008506D02*
X-008951Y008995D01*
X-005832D01*
X-009405Y010805D02*
Y016905D01*
X-010600Y018100D02*
X-009405Y016905D01*
X-013560Y018314D02*
Y020190D01*
X-007116Y015984D02*
Y016300D01*
X-006900Y016516D01*
X-008500Y014600D02*
X-007116Y015984D01*
X-019464Y007300D02*
X-019354Y007190D01*
X-018206D01*
X-006000Y009400D02*
X-005500Y009900D01*
Y015610D01*
X-005360Y015750D01*
X-014403Y010997D02*
X-012419D01*
X-009624Y013792D01*
X-011006Y015760D02*
X-009844D01*
X-009624Y013792D02*
Y015540D01*
X-009844Y015760D02*
X-009624Y015540D01*
D14*
X-028300Y014000D02*
D03*
X-003602Y000800D02*
D03*
X-017700Y008700D02*
D03*
X-016700D02*
D03*
X-015700D02*
D03*
X-014700D02*
D03*
X-013700D02*
D03*
X-012700D02*
D03*
X-018700Y011700D02*
D03*
X-017700D02*
D03*
X-016700D02*
D03*
X-015700D02*
D03*
X-014700D02*
D03*
X-013700D02*
D03*
X-012700D02*
D03*
X-008000Y009400D02*
D03*
X-007000D02*
D03*
X-006000D02*
D03*
X-005000D02*
D03*
X-004000D02*
D03*
X-003000D02*
D03*
X-009000Y012400D02*
D03*
X-008000D02*
D03*
X-007000D02*
D03*
X-006000D02*
D03*
X-005000D02*
D03*
X-004000D02*
D03*
X-003000D02*
D03*
X-017280Y018120D02*
D03*
X-016280D02*
D03*
X-015280D02*
D03*
X-018280Y021120D02*
D03*
X-017280D02*
D03*
X-016280D02*
D03*
X-015280D02*
D03*
D15*
X-027300Y014000D02*
D03*
X-006398Y000800D02*
D03*
D16*
X-002600Y022800D02*
D03*
X-001460Y021090D02*
D03*
X-000590Y016880D02*
D03*
X-024800Y008600D02*
D03*
X-024200Y010900D02*
D03*
X-027000Y008300D02*
D03*
X-009800Y001900D02*
D03*
X-010000Y016400D02*
D03*
X-018800Y012700D02*
D03*
X-018790Y017240D02*
D03*
X-009590Y020750D02*
D03*
X-023370Y016750D02*
D03*
X-022400Y019200D02*
D03*
X-021600Y020800D02*
D03*
X-026400Y019800D02*
D03*
X-028390Y016330D02*
D03*
X-027100Y015400D02*
D03*
X-025800Y010500D02*
D03*
X-024200Y009800D02*
D03*
X-015890Y006310D02*
D03*
X-015400Y001900D02*
D03*
Y000800D02*
D03*
X-020000Y002400D02*
D03*
X-021200D02*
D03*
X-000700Y008500D02*
D03*
X-001000Y010500D02*
D03*
D17*
X-005516Y005900D02*
D03*
X-007484D02*
D03*
X-019184Y006400D02*
D03*
X-017216D02*
D03*
Y007600D02*
D03*
X-019184D02*
D03*
X-007908Y013600D02*
D03*
X-005940D02*
D03*
X-007500Y019506D02*
D03*
Y021474D02*
D03*
X-004984Y020800D02*
D03*
X-003016D02*
D03*
X-003984Y007900D02*
D03*
X-002016D02*
D03*
X-017216Y005000D02*
D03*
X-019184D02*
D03*
X-018500Y015984D02*
D03*
Y014016D02*
D03*
X-011226Y016560D02*
D03*
X-013194D02*
D03*
X-025184Y020400D02*
D03*
X-023216D02*
D03*
X-025764Y015310D02*
D03*
X-023796D02*
D03*
X-011000Y008916D02*
D03*
Y010884D02*
D03*
X-018600Y001616D02*
D03*
Y003584D02*
D03*
X-026500Y004416D02*
D03*
Y006384D02*
D03*
X-024000Y004416D02*
D03*
Y006384D02*
D03*
X-008750Y022500D02*
D03*
X-010000D02*
D03*
X-011250D02*
D03*
X-012500D02*
D03*
X-023750D02*
D03*
X-022500D02*
D03*
X-025000D02*
D03*
X-022500Y021500D02*
D03*
X-023750D02*
D03*
X-025000D02*
D03*
X-026250D02*
D03*
Y022500D02*
D03*
D18*
X-020100Y010900D02*
D03*
X-023100D02*
D03*
X-020100Y013600D02*
D03*
X-023100D02*
D03*
X-020100Y012700D02*
D03*
X-023100D02*
D03*
X-008360Y015750D02*
D03*
X-005360D02*
D03*
X-003100Y021800D02*
D03*
X-006100D02*
D03*
X-005500Y019500D02*
D03*
X-002500D02*
D03*
X-005500Y018500D02*
D03*
X-002500D02*
D03*
X-005500Y017500D02*
D03*
X-002500D02*
D03*
X-001500Y016400D02*
D03*
X-004500D02*
D03*
X-001500Y015400D02*
D03*
X-004500D02*
D03*
Y014400D02*
D03*
X-001500D02*
D03*
X-004500Y013400D02*
D03*
X-001500D02*
D03*
X-000700Y012000D02*
D03*
Y015000D02*
D03*
X-004300Y006100D02*
D03*
X-001300D02*
D03*
X-026700Y009700D02*
D03*
Y012700D02*
D03*
X-027600D02*
D03*
Y009700D02*
D03*
X-028500Y012700D02*
D03*
Y009700D02*
D03*
X-007520Y000900D02*
D03*
X-010520D02*
D03*
X-001000Y005300D02*
D03*
Y002300D02*
D03*
X-002000Y004900D02*
D03*
Y001900D02*
D03*
X-003000D02*
D03*
Y004900D02*
D03*
X-004000D02*
D03*
Y001900D02*
D03*
X-008000Y002400D02*
D03*
X-005000D02*
D03*
X-008000Y003400D02*
D03*
X-005000D02*
D03*
Y004400D02*
D03*
X-008000D02*
D03*
X-009000Y005400D02*
D03*
Y008400D02*
D03*
X-013000Y007400D02*
D03*
X-010000D02*
D03*
X-011500Y015500D02*
D03*
Y012500D02*
D03*
X-012500Y015500D02*
D03*
Y012500D02*
D03*
X-013500D02*
D03*
Y015500D02*
D03*
X-014500D02*
D03*
Y012500D02*
D03*
X-015500Y015400D02*
D03*
Y012400D02*
D03*
X-017500Y015500D02*
D03*
Y012500D02*
D03*
X-016500Y015400D02*
D03*
Y012400D02*
D03*
X-019810Y017380D02*
D03*
Y014380D02*
D03*
X-014410Y016560D02*
D03*
X-017410D02*
D03*
X-024500Y016500D02*
D03*
X-027500D02*
D03*
X-023500Y018900D02*
D03*
X-026500D02*
D03*
Y017900D02*
D03*
X-023500D02*
D03*
X-020100Y011900D02*
D03*
X-023100D02*
D03*
X-020100Y010000D02*
D03*
X-023100D02*
D03*
X-023200Y008400D02*
D03*
X-020200D02*
D03*
X-013000Y006500D02*
D03*
X-010000D02*
D03*
X-014330Y004460D02*
D03*
X-011330D02*
D03*
X-014500Y003400D02*
D03*
X-011500D02*
D03*
X-014500Y002400D02*
D03*
X-011500D02*
D03*
Y001400D02*
D03*
X-014500D02*
D03*
X-016600Y003500D02*
D03*
Y000500D02*
D03*
X-017400Y003500D02*
D03*
Y000500D02*
D03*
X-023500Y003200D02*
D03*
X-026500D02*
D03*
X-027500Y007400D02*
D03*
Y004400D02*
D03*
X-025000Y007400D02*
D03*
Y004400D02*
D03*
X-020300Y007300D02*
D03*
Y004300D02*
D03*
X-021200Y007300D02*
D03*
Y004300D02*
D03*
X-022000Y007300D02*
D03*
Y004300D02*
D03*
X-022800Y007300D02*
D03*
Y004300D02*
D03*
X-019700Y001400D02*
D03*
X-022700D02*
D03*
X-014440Y017360D02*
D03*
X-017440D02*
D03*
X-011400Y017800D02*
D03*
X-008400D02*
D03*
D19*
X-006900Y018484D02*
D03*
X-000990Y020134D02*
D03*
X-005516Y007900D02*
D03*
X-010000Y015384D02*
D03*
X-008576Y019320D02*
D03*
X-012216Y020200D02*
D03*
X-015016Y022500D02*
D03*
X-021384Y019400D02*
D03*
X-027840Y017416D02*
D03*
X-025884Y012700D02*
D03*
X-014500Y005916D02*
D03*
D20*
X-006900Y016516D02*
D03*
X-000990Y018166D02*
D03*
X-010000Y013416D02*
D03*
X-027840Y019384D02*
D03*
X-014500Y007884D02*
D03*
D21*
X-007484Y007900D02*
D03*
X-010544Y019320D02*
D03*
X-014184Y020200D02*
D03*
X-016984Y022500D02*
D03*
X-019416Y019400D02*
D03*
X-023916Y012700D02*
D03*
D22*
X-018700Y008700D02*
D03*
X-009000Y009400D02*
D03*
X-018280Y018120D02*
D03*
D23*
X-019700Y003400D02*
D03*
D24*
X-028000Y001000D02*
D03*
X-001000D02*
D03*
Y022500D02*
D03*
X-028000D02*
D03*
D25*
X-013200Y019000D02*
D03*
X-021400Y016000D02*
D03*
X-010600Y018100D02*
D03*
X-008500Y014600D02*
D03*
X-026350Y000850D02*
D03*
X-014250Y019250D02*
D03*
M02*
