G04 Layer_Physical_Order=1*
G04 Layer_Color=255*
%FSAX24Y24*%
%MOIN*%
G70*
G01*
G75*
%ADD10R,0.0354X0.0315*%
%ADD11R,0.0140X0.0200*%
%ADD12R,0.0315X0.0354*%
%ADD13C,0.0100*%
%ADD14C,0.0591*%
%ADD15R,0.0591X0.0591*%
%ADD16C,0.0827*%
%ADD17C,0.0600*%
%ADD18C,0.0551*%
%ADD19C,0.0531*%
%ADD20R,0.0531X0.0531*%
%ADD21R,0.0531X0.0531*%
%ADD22R,0.0591X0.0591*%
%ADD23C,0.0700*%
%ADD24C,0.1181*%
%ADD25C,0.0500*%
D10*
X-022194Y014800D02*
D03*
X-021406Y015174D02*
D03*
Y014426D02*
D03*
X-010394Y003400D02*
D03*
X-009606Y003774D02*
D03*
Y003026D02*
D03*
D11*
X-013403Y018255D02*
D03*
X-013797D02*
D03*
X-013600Y017745D02*
D03*
X-012403Y018255D02*
D03*
X-012797D02*
D03*
X-012600Y017745D02*
D03*
X-025603Y014255D02*
D03*
X-025997D02*
D03*
X-025800Y013745D02*
D03*
X-024203Y002255D02*
D03*
X-024597D02*
D03*
X-024400Y001745D02*
D03*
X-025603Y002255D02*
D03*
X-025997D02*
D03*
X-025800Y001745D02*
D03*
X-027003Y002255D02*
D03*
X-027397D02*
D03*
X-027200Y001745D02*
D03*
D12*
X-021400Y017406D02*
D03*
X-021774Y018194D02*
D03*
X-021026D02*
D03*
X-015400Y004594D02*
D03*
X-015026Y003806D02*
D03*
X-015774D02*
D03*
D13*
X-017356Y003656D02*
X-017200Y003500D01*
X-017365Y003647D02*
X-017356Y003656D01*
X-018287Y004387D02*
Y006703D01*
X-016214Y000886D02*
Y003999D01*
X-016530Y000570D02*
X-016214Y000886D01*
X-016740Y000570D02*
X-016530D01*
X-024586Y007014D02*
X-023200Y008400D01*
X-027000Y008300D02*
X-025714Y007014D01*
X-024586D01*
X-027523Y008517D02*
X-027217Y008823D01*
X-027523Y007423D02*
X-027500Y007400D01*
X-026423Y008823D02*
X-025000Y007400D01*
X-025099Y001014D02*
X-022540D01*
X-025800Y001715D02*
X-025099Y001014D01*
X-025800Y001715D02*
Y001745D01*
X-020546Y009454D02*
X-020200Y009800D01*
X-024778Y001400D02*
X-022750D01*
X-022800Y004300D02*
X-022750Y004250D01*
X-014555Y003455D02*
X-014500Y003400D01*
X-014555Y003455D02*
Y003826D01*
X-014919Y004093D02*
X-014823D01*
X-010267Y004133D02*
X-009000Y005400D01*
X-010267Y003507D02*
Y004133D01*
X-022674Y019074D02*
X-022500Y018900D01*
X-022963Y019074D02*
X-022674D01*
X-023074Y018963D02*
X-022963Y019074D01*
X-023437Y018963D02*
X-023074D01*
X-022213Y014800D02*
X-022194D01*
X-024883Y010483D02*
Y012646D01*
X-022462Y015067D01*
X-021400Y017800D02*
X-020500D01*
X-021400Y015996D02*
Y016000D01*
X-026622Y014910D02*
X-025997Y014285D01*
X-010000Y003659D02*
Y003800D01*
X-016600Y005400D02*
X-016541Y005341D01*
X-020174Y001874D02*
X-019700Y001400D01*
X-008100Y005900D02*
X-007484D01*
X-024200Y009800D02*
X-024094D01*
X-009000Y012400D02*
X-008595Y011995D01*
X-007832D01*
X-007746Y015362D02*
Y017146D01*
Y015362D02*
X-007179Y014795D01*
Y013021D02*
Y014795D01*
X-007405Y012422D02*
Y012794D01*
X-008400Y017800D02*
X-007746Y017146D01*
X-007405Y012794D02*
X-007179Y013021D01*
X-007832Y011995D02*
X-007405Y012422D01*
X-007436Y015278D02*
Y017381D01*
Y015278D02*
X-007000Y014843D01*
X-010544Y019320D02*
X-010329Y019104D01*
X-008000Y012400D02*
Y012426D01*
X-007339Y013087D01*
X-012797Y017616D02*
Y019106D01*
X-012671Y017083D02*
X-009693D01*
X-013194Y016560D02*
X-012671Y017083D01*
X-011500Y015500D02*
X-010600Y016400D01*
X-007498Y013430D02*
Y014108D01*
X-010862Y016923D02*
X-009783D01*
X-011226Y016560D02*
X-010862Y016923D01*
X-010600Y016400D02*
X-010000D01*
X-006603Y017500D02*
X-005500D01*
X-020919Y018301D02*
Y018584D01*
X-021026Y018194D02*
X-020919Y018301D01*
X-019698Y019805D02*
X-017595D01*
X-016280Y021120D01*
X-020919Y018584D02*
X-019698Y019805D01*
X-010000Y022500D02*
X-008750D01*
X-026250Y021500D02*
Y022500D01*
X-022500D02*
X-022124Y022876D01*
X-012876D01*
X-012500Y022500D01*
X-013277Y018923D02*
X-013200Y019000D01*
X-013277Y018613D02*
Y018923D01*
X-013385Y018505D02*
X-013277Y018613D01*
X-013051Y019360D02*
X-012797Y019106D01*
X-002425Y016880D02*
X-000590D01*
X-003046Y018954D02*
X-002500Y019500D01*
X-003046Y017500D02*
Y018954D01*
Y017500D02*
X-002425Y016880D01*
X-001460Y021040D02*
X-001150Y021350D01*
X-001460Y019540D02*
Y021040D01*
X-012216Y020200D02*
X-011666Y020750D01*
X-009590D01*
X-015280Y021120D02*
X-014881Y020721D01*
X-014705D02*
X-014184Y020200D01*
X-014881Y020721D02*
X-014705D01*
X-025800Y020400D02*
X-025184D01*
X-026400Y019800D02*
X-025800Y020400D01*
X-017200Y003500D02*
X-016808D01*
X-014629Y008700D02*
X-013795Y007867D01*
Y007295D02*
Y007867D01*
Y007295D02*
X-013000Y006500D01*
X-015255Y008639D02*
X-014284Y007668D01*
X-014700Y008700D02*
X-014629D01*
X-014700D02*
X-014500Y008500D01*
X-026500Y017900D02*
Y018900D01*
X-007967Y012962D02*
X-007498Y013430D01*
X-005340Y019886D02*
X-004000Y018545D01*
X-007500Y019516D02*
X-007490D01*
X-007120Y019886D02*
X-005340D01*
X-007490Y019516D02*
X-007120Y019886D01*
X-005500Y017500D02*
Y019500D01*
X-002886Y018660D02*
X-002660Y018886D01*
X-002886Y017886D02*
X-002500Y017500D01*
X-002569Y018886D02*
X-002114Y019340D01*
X-002660Y018886D02*
X-002569D01*
X-002114Y019340D02*
Y022314D01*
X-002886Y017886D02*
Y018660D01*
X-002500Y018500D02*
X-001460Y019540D01*
X-003058Y021031D02*
X-003027Y021000D01*
X-003016D01*
X-014516Y021884D02*
X-007330D01*
X-017200Y021200D02*
Y022284D01*
X-017280Y021120D02*
X-017200Y021200D01*
X-004000Y016786D02*
X-002614Y015400D01*
X-004660Y016786D02*
X-004000D01*
X-018090Y017240D02*
X-017410Y016560D01*
X-014425Y016575D02*
X-014410Y016560D01*
X-016550Y012450D02*
X-016500Y012400D01*
X-017450Y012450D02*
X-016550D01*
X-016586Y012314D02*
X-016500Y012400D01*
X-016586Y011992D02*
Y012314D01*
X-016606Y011972D02*
X-016586Y011992D01*
X-016600Y005400D02*
X-016541Y005459D01*
X-016055Y006355D02*
X-016000Y006300D01*
X-020014Y003793D02*
X-019821Y003600D01*
X-020400Y004350D02*
X-020250D01*
X-019955Y004645D02*
X-019539D01*
X-019292Y007600D02*
X-019184D01*
X-019999Y008307D02*
X-019292Y007600D01*
X-023253Y006847D02*
X-022800Y007300D01*
X-003992Y007908D02*
X-003984Y007900D01*
X-005000Y002400D02*
X-003955D01*
X-003614Y002060D01*
X-018750Y011750D02*
X-018700Y011700D01*
X-007000Y009307D02*
Y009400D01*
X-007268Y009039D02*
X-007000Y009307D01*
X-026565Y018900D02*
X-026500D01*
X-026833Y019168D02*
X-026565Y018900D01*
X-024537Y016500D02*
X-024500D01*
X-025850Y010500D02*
X-025800D01*
X-022500Y008800D02*
X-022006Y009294D01*
X-015639Y008639D02*
X-015255D01*
X-024008Y004408D02*
X-024000Y004416D01*
X-014622Y001400D02*
X-014500D01*
X-020200Y008200D02*
X-020093Y008307D01*
X-023560Y016560D02*
Y016740D01*
X-020959Y013559D02*
Y016807D01*
Y013559D02*
X-020100Y012700D01*
X-021426Y017273D02*
X-020959Y016807D01*
X-020289Y017859D02*
X-019810Y017380D01*
X-025727Y015310D02*
X-024537Y016500D01*
X-025764Y015310D02*
X-025727D01*
X-026378Y015923D02*
X-025764Y015310D01*
X-028300Y016240D02*
X-027983Y015923D01*
X-028340Y016240D02*
X-028300D01*
X-024883Y010483D02*
X-024200Y009800D01*
X-021513Y015067D02*
X-021406Y015174D01*
X-022667Y014033D02*
Y014346D01*
X-023500Y018900D02*
X-023437Y018963D01*
X-028000Y019384D02*
X-027784Y019168D01*
X-026833D01*
X-027114Y016886D02*
X-023706D01*
X-023560Y016740D01*
X-027500Y016500D02*
X-027114Y016886D01*
X-027100Y015400D02*
X-026693Y014993D01*
X-026650Y009700D02*
X-025850Y010500D01*
X-028500Y009700D02*
X-026650D01*
X-018800Y012700D02*
X-018750Y012650D01*
Y011750D02*
Y012650D01*
X-023700Y011400D02*
X-019700D01*
Y013200D01*
X-024094Y009800D02*
X-023749Y009454D01*
X-023703Y013600D02*
X-023100D01*
X-024364Y010323D02*
X-023969D01*
X-024723Y010683D02*
Y012579D01*
X-021386Y009614D02*
X-020100Y010900D01*
X-023260Y009614D02*
X-021386D01*
X-023969Y010323D02*
X-023260Y009614D01*
X-024723Y010683D02*
X-024364Y010323D01*
X-024723Y012579D02*
X-023703Y013600D01*
X-020900Y012700D02*
X-020100Y011900D01*
X-023916Y012700D02*
X-023916Y012700D01*
X-019595Y011295D02*
X-018105D01*
X-019700Y011400D02*
X-019595Y011295D01*
X-018105D02*
X-017700Y011700D01*
X-024200Y010900D02*
X-023700Y011400D01*
X-023749Y009454D02*
X-020546D01*
X-022386Y007140D02*
Y007586D01*
X-023200Y008400D02*
X-022386Y007586D01*
X-001416Y008500D02*
X-000700D01*
X-002016Y007900D02*
X-001416Y008500D01*
X-002016Y006816D02*
Y007900D01*
Y006816D02*
X-001300Y006100D01*
X-006405Y009805D02*
X-006000Y009400D01*
X-011391Y004607D02*
X-011330Y004668D01*
Y007816D01*
X-009341Y009805D02*
X-006405D01*
X-010000Y006400D02*
X-009900Y006500D01*
X-010000Y008400D02*
X-009000Y009400D01*
X-010000Y006400D02*
Y008400D01*
X-008000Y007729D02*
Y009400D01*
X-006171Y005900D02*
X-005516D01*
X-008000Y007729D02*
X-006171Y005900D01*
X-007268Y008116D02*
Y009039D01*
X-007484Y007900D02*
X-007268Y008116D01*
X-007484Y007900D02*
X-007268Y007684D01*
X-004386Y004740D02*
Y005350D01*
Y004740D02*
X-004000Y004354D01*
X-006720Y007684D02*
X-004386Y005350D01*
X-004000Y004354D02*
X-002546D01*
X-001600Y005300D01*
X-007268Y007684D02*
X-006720D01*
X-002595Y005305D02*
Y010995D01*
X-003000Y004900D02*
X-002595Y005305D01*
X-002910Y002710D02*
Y002810D01*
X-004500Y004400D02*
X-002910Y002810D01*
X-004952Y003352D02*
X-004452D01*
X-005000Y003400D02*
X-004952Y003352D01*
X-009389Y001514D02*
X-003840D01*
X-009774Y001900D02*
X-009389Y001514D01*
X-003840D02*
X-003614Y001740D01*
Y002060D01*
X-009800Y001900D02*
X-009774D01*
X-010520Y000900D02*
Y003293D01*
X-007763Y005182D02*
X-006234D01*
X-005516Y005900D01*
X-008386Y004560D02*
X-007763Y005182D01*
X-008045Y001900D02*
X-004000D01*
X-008386Y002240D02*
X-008045Y001900D01*
X-008386Y002240D02*
Y003014D01*
X-008000Y003400D01*
Y004400D02*
X-007614Y004014D01*
X-008000Y002400D02*
X-007614Y002786D01*
Y004014D01*
X-009893Y001993D02*
Y003552D01*
Y001993D02*
X-009800Y001900D01*
X-095000Y-002600D02*
Y024400D01*
X-025000Y004400D02*
X-024992Y004408D01*
X-024008D01*
X-027500Y005384D02*
X-026500Y006384D01*
X-024000D02*
X-023537Y006847D01*
X-023253D01*
X-022540Y001014D02*
X-021200Y002355D01*
X-018600Y001416D02*
X-018542Y001473D01*
X-018416D01*
X-020093Y008307D02*
X-019999D01*
X-021645Y006400D02*
X-019184D01*
X-022386Y007140D02*
X-021645Y006400D01*
X-019184Y007600D02*
X-018287Y006703D01*
Y004387D02*
X-017547Y003647D01*
X-019892Y002400D02*
X-018750Y003542D01*
X-018442D01*
X-020000Y002400D02*
X-019892D01*
X-021200Y003726D02*
X-020000Y002526D01*
Y002400D02*
Y002526D01*
X-020250Y004350D02*
X-019955Y004645D01*
X-017216Y006400D02*
X-017171Y006355D01*
X-016055D01*
X-017626Y006230D02*
X-016796Y005400D01*
X-016600D01*
X-017626Y006230D02*
Y006570D01*
X-016700Y007496D02*
Y008700D01*
X-020200Y008400D02*
X-019146D01*
X-019041Y008295D01*
X-018105D01*
X-017700Y008700D01*
X-019195Y006411D02*
X-019184Y006400D01*
X-018786Y008786D02*
X-018700Y008700D01*
X-019195Y006411D02*
Y006850D01*
X-020360Y008786D02*
X-018786D01*
X-020586Y008240D02*
Y008560D01*
X-020360Y008786D01*
X-020586Y008240D02*
X-019195Y006850D01*
X-022000Y007300D02*
Y008300D01*
X-022500Y008800D02*
X-022000Y008300D01*
X-023600Y008800D02*
X-022500D01*
X-025000Y007400D02*
X-023600Y008800D01*
X-016588Y009294D02*
X-016583Y009300D01*
X-022006Y009294D02*
X-016588D01*
X-016429Y009229D02*
X-016229D01*
X-016500Y009300D02*
X-016429Y009229D01*
X-015222Y000800D02*
X-014622Y001400D01*
X-015400Y000800D02*
X-015222D01*
X-014500Y002400D02*
Y003400D01*
X-015400Y004574D02*
Y004700D01*
X-014823Y004093D02*
X-014555Y003826D01*
X-015400Y004574D02*
X-014919Y004093D01*
X-014500Y004400D02*
X-014440Y004460D01*
X-013560D01*
X-011500Y001400D02*
Y002400D01*
X-014957Y005459D02*
X-014500Y005916D01*
X-016541Y005459D02*
X-014957D01*
X-017626Y006570D02*
X-016700Y007496D01*
X-014284Y007239D02*
X-012938Y005893D01*
X-012763D01*
X-014284Y007239D02*
Y007668D01*
X-013000Y007400D02*
Y008000D01*
X-013700Y008700D02*
X-013000Y008000D01*
X-017500Y012400D02*
X-017450Y012450D01*
X-016500Y012400D02*
X-015500D01*
X-016500Y013500D02*
Y015400D01*
Y013500D02*
X-015500D01*
X-014500Y012500D01*
X-017500Y014000D02*
Y015400D01*
X-018800Y012700D02*
X-017500Y014000D01*
X-013500Y015500D02*
X-012500D01*
X-014700Y011700D02*
X-014114Y012286D01*
X-014500Y015500D02*
X-014114Y015114D01*
Y012286D02*
Y015114D01*
X-013954Y012954D02*
Y015500D01*
X-018500Y015984D02*
X-014439D01*
X-001100Y012400D02*
X-000700Y012000D01*
X-003000Y012400D02*
X-001100D01*
X-000700Y013655D02*
Y014800D01*
X-001340Y013014D02*
X-000700Y013655D01*
X-014439Y015984D02*
X-013954Y015500D01*
X-021200Y007300D02*
X-020400D01*
X-013000Y007400D02*
X-011484Y008916D01*
X-011000D01*
X-016606Y011794D02*
Y011972D01*
X-016700Y011700D02*
X-016606Y011794D01*
X-016500Y009300D02*
Y010927D01*
X-017295Y011722D02*
X-016500Y010927D01*
X-017295Y011722D02*
Y011868D01*
X-017541Y012114D02*
X-017295Y011868D01*
X-017660Y012114D02*
X-017541D01*
X-017886Y012340D02*
X-017660Y012114D01*
X-017886Y012340D02*
Y012660D01*
X-017116Y013429D01*
X-016571D01*
X-016500Y013500D01*
X-016583Y009300D02*
X-016500D01*
X-016229Y009229D02*
X-015639Y008639D01*
X-003500Y014400D02*
X-001500D01*
X-004500D02*
Y016400D01*
X-001420Y014480D02*
Y014826D01*
X-000314Y011186D02*
Y015160D01*
X-001000Y010500D02*
X-000314Y011186D01*
X-000540Y015386D02*
X-000314Y015160D01*
X-001420Y014826D02*
X-000860Y015386D01*
X-000540D01*
X-001500Y014400D02*
X-001420Y014480D01*
X-003386Y013014D02*
X-001340D01*
X-000700Y014800D02*
X-000500Y015000D01*
X-003386Y009014D02*
X-003000Y009400D01*
X-003386Y004740D02*
X-003160Y004514D01*
X-002840D02*
X-002386Y004969D01*
Y005060D01*
X-003160Y004514D02*
X-002840D01*
X-003386Y004740D02*
Y009014D01*
X-005000Y004400D02*
X-004500D01*
X-003992Y007908D02*
Y009392D01*
X-004000Y009400D02*
X-003992Y009392D01*
X-027523Y007423D02*
Y008517D01*
X-027217Y008823D02*
X-026423D01*
X-005274Y015836D02*
Y016172D01*
X-002614Y015400D02*
X-001500D01*
X-005360Y015750D02*
X-005274Y015836D01*
Y016172D02*
X-004660Y016786D01*
X-014440Y017360D02*
X-014425Y017345D01*
Y016575D02*
Y017345D01*
X-013600Y017715D02*
Y017745D01*
X-016280Y018120D02*
X-015520Y017360D01*
X-014440D01*
X-019060Y017300D02*
X-019000Y017240D01*
X-018090D01*
X-018863Y018703D02*
X-018280Y018120D01*
X-015280Y021120D02*
X-014516Y021884D01*
X-005184Y020800D02*
X-004984Y021000D01*
X-007330Y021884D02*
X-006246Y020800D01*
X-005184D01*
X-002600Y022800D02*
X-002114Y022314D01*
X-003555Y000800D02*
X-002614Y001740D01*
X-004452Y003352D02*
X-003000Y001900D01*
X-002614Y001740D02*
Y002414D01*
X-003602Y000800D02*
X-003555D01*
X-002910Y002710D02*
X-002614Y002414D01*
X-002827Y002810D02*
X-000614Y005023D01*
X-002386Y005060D02*
X-001760Y005686D01*
X-000840D02*
X-000614Y005460D01*
X-001760Y005686D02*
X-000840D01*
X-002910Y002810D02*
X-002827D01*
X-000614Y005023D02*
Y005460D01*
X-007520Y000900D02*
X-006498D01*
X-006398Y000800D01*
X-010520Y003293D02*
X-010305Y003507D01*
X-010267D01*
X-006000Y008384D02*
Y009400D01*
X-018416Y001473D02*
X-017442Y000500D01*
X-017400D01*
X-012763Y005893D02*
X-011477Y004607D01*
X-011391D01*
X-011330Y007816D02*
X-009341Y009805D01*
X-004000Y016786D02*
Y018545D01*
X-027983Y015923D02*
X-026378D01*
X-017200Y022284D02*
X-016984Y022500D01*
X-003058Y021031D02*
Y021742D01*
X-003000Y021800D01*
X-013560Y004460D02*
X-011500Y002400D01*
X-017547Y003647D02*
X-017365D01*
X-027500Y004400D02*
X-027417Y004317D01*
Y002275D02*
X-027397Y002255D01*
X-027417Y002275D02*
Y004317D01*
X-027500Y004400D02*
Y005384D01*
X-023500Y002632D02*
Y003200D01*
X-024000Y003700D02*
Y004416D01*
X-026500Y003200D02*
Y004416D01*
Y003200D02*
X-025118D01*
X-024203Y002285D01*
Y002255D02*
Y002285D01*
X-024400Y001745D02*
Y001775D01*
X-024130Y002045D01*
X-024088D02*
X-023500Y002632D01*
X-024130Y002045D02*
X-024088D01*
X-025603Y002225D02*
Y002255D01*
Y002225D02*
X-024778Y001400D01*
X-022750Y001450D02*
X-022700Y001400D01*
X-022750Y001450D02*
Y004250D01*
X-021200Y002355D02*
Y002400D01*
Y003500D01*
X-022000Y004300D02*
X-021200Y003500D01*
Y002400D02*
X-020674Y001874D01*
X-020174D01*
X-015507Y004307D02*
X-015026Y003826D01*
X-015774Y003806D02*
X-015667Y003699D01*
X-015400Y001900D02*
Y002755D01*
X-015667Y003021D02*
X-015400Y002755D01*
X-015667Y003021D02*
Y003699D01*
X-016541Y005245D02*
Y005341D01*
Y005245D02*
X-015603Y004307D01*
X-015507D01*
X-015026Y003806D02*
Y003826D01*
X-009900Y006500D02*
X-008700D01*
X-008927Y005014D02*
X-008840D01*
X-010000Y003800D02*
Y003941D01*
X-008159Y005696D02*
Y005841D01*
X-008100Y005900D01*
X-008840Y005014D02*
X-008159Y005696D01*
X-009587Y003026D02*
X-008386Y004227D01*
Y004560D01*
X-010000Y003800D02*
X-009632D01*
X-009606Y003774D01*
X-010000Y003659D02*
X-009893Y003552D01*
X-010000Y003941D02*
X-008927Y005014D01*
X-009606Y003026D02*
X-009587D01*
X-013600Y017715D02*
X-013194Y017309D01*
X-013797Y018255D02*
Y018912D01*
X-013349Y019360D02*
X-013051D01*
X-013797Y018912D02*
X-013349Y019360D01*
X-013403Y018255D02*
X-013385Y018273D01*
Y018505D01*
X-026622Y014910D02*
Y014922D01*
X-026693Y014993D02*
X-026622Y014922D01*
X-022667Y014346D02*
X-022213Y014800D01*
X-023100Y013600D02*
X-022667Y014033D01*
X-022462Y015067D02*
X-021513D01*
X-021406Y014426D02*
X-021387D01*
X-021119Y014693D01*
Y015715D01*
X-021400Y015996D02*
X-021119Y015715D01*
X-001600Y005300D02*
X-001000D01*
X-021774Y018174D02*
Y018194D01*
Y018174D02*
X-021400Y017800D01*
X-020500Y014000D02*
Y017800D01*
X-022919Y018481D02*
X-021293D01*
X-023500Y017900D02*
X-022919Y018481D01*
X-021293D02*
X-021032Y018220D01*
X-021000D01*
X-020441Y017859D02*
X-020289D01*
X-020500Y017800D02*
X-020441Y017859D01*
X-019416Y019400D02*
X-018863Y018847D01*
Y018703D02*
Y018847D01*
X-022701Y020800D02*
X-021600D01*
X-023101Y020400D02*
X-022701Y020800D01*
X-023216Y020400D02*
X-023101D01*
X-028500Y012700D02*
X-028114Y012314D01*
X-025997Y014255D02*
Y014285D01*
X-013700Y011700D02*
X-013295Y011295D01*
X-012532D02*
X-012059Y011768D01*
X-013295Y011295D02*
X-012532D01*
X-012059Y011768D02*
Y011941D01*
X-008746Y015355D02*
Y015886D01*
X-009783Y016923D02*
X-008746Y015886D01*
X-009000Y012400D02*
X-008438Y012962D01*
X-007967D01*
X-010960Y013040D02*
X-008586D01*
X-008026Y013600D02*
X-007908D01*
X-008586Y013040D02*
X-008026Y013600D01*
X-007276Y016827D02*
X-006603Y017500D01*
X-009159Y019104D02*
X-007436Y017381D01*
X-010329Y019104D02*
X-009159D01*
X-012797Y017616D02*
X-012716Y017535D01*
X-011472Y017800D02*
X-011400D01*
X-011737Y017535D02*
X-011472Y017800D01*
X-012716Y017535D02*
X-011737D01*
X-012403Y018285D02*
X-011584Y019104D01*
X-012403Y018255D02*
Y018285D01*
X-011584Y019104D02*
X-010656D01*
X-008746Y015355D02*
X-007498Y014108D01*
X-012600Y017745D02*
X-012000D01*
X-011560Y018186D01*
X-011177D02*
X-011091Y018100D01*
X-011560Y018186D02*
X-011177D01*
X-010000Y013416D02*
X-008892Y014523D01*
X-008577D01*
X-007339Y013087D02*
Y014728D01*
X-026250Y021500D02*
X-022500D01*
X-010656Y019104D02*
X-010560Y019200D01*
X-008577Y014523D02*
X-008500Y014600D01*
X-011091Y018100D02*
X-010600D01*
X-012059Y011941D02*
X-010960Y013040D01*
X-013194Y016560D02*
Y017309D01*
X-008700Y006500D02*
X-008100Y005900D01*
X-019821Y003600D02*
X-019700D01*
X-019539Y004645D02*
X-019184Y005000D01*
X-021200Y003726D02*
Y004300D01*
X-026788Y002500D02*
X-026621D01*
X-027003Y002285D02*
X-026788Y002500D01*
X-026000Y002258D02*
Y002288D01*
Y002282D02*
X-025817Y002465D01*
X-024777D01*
X-024597Y002285D01*
X-026350Y000850D02*
Y000874D01*
X-027003Y002255D02*
Y002285D01*
X-026212Y002500D02*
X-026000Y002288D01*
X-026621Y001145D02*
X-026350Y000874D01*
X-027440Y012314D02*
X-027086Y012669D01*
Y012860D01*
X-025691Y013529D02*
X-025603Y013616D01*
X-028114Y012314D02*
X-027440D01*
X-025603Y013616D02*
Y014255D01*
X-026416Y013529D02*
X-025691D01*
X-027086Y012860D02*
X-026416Y013529D01*
X-026700Y012700D02*
X-026700Y012700D01*
X-025884D01*
X-025855Y012730D01*
Y013138D01*
X-028705Y013805D02*
Y014168D01*
Y013805D02*
X-027600Y012700D01*
X-028705Y014168D02*
X-027880Y014993D01*
X-026693D01*
X-026959Y014405D02*
X-026299Y013745D01*
X-025800D01*
X-027895Y014405D02*
X-026959D01*
X-028300Y014000D02*
X-027895Y014405D01*
X-012500Y012500D02*
X-011248Y013752D01*
Y014136D01*
X-013100Y015886D02*
X-012340D01*
X-010048Y015384D02*
X-010000D01*
X-011660Y015114D02*
X-010318D01*
X-010048Y015384D01*
X-013604Y016390D02*
X-013100Y015886D01*
X-015280Y018120D02*
X-014655D01*
X-011886Y015340D02*
X-011660Y015114D01*
X-011886Y015340D02*
Y015431D01*
X-014655Y018120D02*
X-013604Y017070D01*
X-012340Y015886D02*
X-011886Y015431D01*
X-013604Y016390D02*
Y017070D01*
X-020500Y014000D02*
X-019700Y013200D01*
X-023916Y012700D02*
X-020900D01*
X-013954Y012954D02*
X-012700Y011700D01*
X-024000Y003700D02*
X-023500Y003200D01*
X-006000Y008384D02*
X-005516Y007900D01*
X-009693Y017083D02*
X-007339Y014728D01*
X-026250Y022500D02*
X-022500D01*
X-017216Y005000D02*
X-016214Y003999D01*
X-011248Y014136D02*
X-010000Y015384D01*
X-024597Y002255D02*
Y002285D01*
X-026621Y001145D02*
Y002500D01*
X-026212D01*
X-020014Y003793D02*
Y003984D01*
X-020380Y004350D02*
X-020014Y003984D01*
X-020400Y004350D02*
X-020380D01*
X-016808Y003500D02*
X-016740Y003568D01*
Y003570D01*
X-025855Y013138D02*
X-023796Y015197D01*
Y015310D01*
X-015280Y018120D02*
Y018220D01*
X-014250Y019250D01*
X-017280Y018120D02*
X-016500Y018900D01*
Y019000D01*
X-016250Y019250D01*
X-014250D01*
X-017280Y017520D02*
Y018120D01*
X-017440Y017360D02*
X-017280Y017520D01*
X-004000Y012400D02*
X-003386Y013014D01*
X-004000Y012400D02*
X-002595Y010995D01*
X-004500Y013400D02*
X-003500Y014400D01*
X-007276Y016026D02*
Y016827D01*
X-004000Y012400D02*
Y012750D01*
X-004886Y013240D02*
X-004660Y013014D01*
X-004264D02*
X-004000Y012750D01*
X-007276Y016026D02*
X-004886Y013636D01*
Y013240D02*
Y013636D01*
X-004660Y013014D02*
X-004264D01*
X-006000Y013540D02*
X-005940Y013600D01*
X-006000Y012400D02*
Y013540D01*
X-007000Y012400D02*
Y013000D01*
X-006500Y013500D01*
Y014000D01*
X-006250Y014250D01*
X-005750D01*
X-005046Y013546D01*
Y012446D02*
Y013546D01*
Y012446D02*
X-005000Y012400D01*
X-007000Y013000D02*
Y014843D01*
X-006000Y009973D02*
Y012400D01*
Y009973D02*
X-005595Y009568D01*
Y009345D02*
Y009568D01*
Y009345D02*
X-004394Y008144D01*
Y006100D02*
X-004300D01*
X-004394D02*
Y008144D01*
D14*
X-028300Y014000D02*
D03*
X-003602Y000800D02*
D03*
X-017700Y008700D02*
D03*
X-016700D02*
D03*
X-015700D02*
D03*
X-014700D02*
D03*
X-013700D02*
D03*
X-012700D02*
D03*
X-018700Y011700D02*
D03*
X-017700D02*
D03*
X-016700D02*
D03*
X-015700D02*
D03*
X-014700D02*
D03*
X-013700D02*
D03*
X-012700D02*
D03*
X-008000Y009400D02*
D03*
X-007000D02*
D03*
X-006000D02*
D03*
X-005000D02*
D03*
X-004000D02*
D03*
X-003000D02*
D03*
X-009000Y012400D02*
D03*
X-008000D02*
D03*
X-007000D02*
D03*
X-006000D02*
D03*
X-005000D02*
D03*
X-004000D02*
D03*
X-003000D02*
D03*
X-017280Y018120D02*
D03*
X-016280D02*
D03*
X-015280D02*
D03*
X-018280Y021120D02*
D03*
X-017280D02*
D03*
X-016280D02*
D03*
X-015280D02*
D03*
D15*
X-027300Y014000D02*
D03*
X-006398Y000800D02*
D03*
D16*
X-002600Y022800D02*
D03*
X-001460Y021090D02*
D03*
X-000590Y016880D02*
D03*
X-024800Y008600D02*
D03*
X-024200Y010900D02*
D03*
X-027000Y008300D02*
D03*
X-009800Y001900D02*
D03*
X-010000Y016400D02*
D03*
X-018800Y012700D02*
D03*
X-018790Y017240D02*
D03*
X-009590Y020750D02*
D03*
X-023370Y016750D02*
D03*
X-022400Y019200D02*
D03*
X-021600Y020800D02*
D03*
X-026400Y019800D02*
D03*
X-028390Y016330D02*
D03*
X-027100Y015400D02*
D03*
X-025800Y010500D02*
D03*
X-024200Y009800D02*
D03*
X-015890Y006310D02*
D03*
X-015400Y001900D02*
D03*
Y000800D02*
D03*
X-020000Y002400D02*
D03*
X-021200D02*
D03*
X-000700Y008500D02*
D03*
X-001000Y010500D02*
D03*
D17*
X-005516Y005900D02*
D03*
X-007484D02*
D03*
X-019184Y006400D02*
D03*
X-017216D02*
D03*
Y007600D02*
D03*
X-019184D02*
D03*
X-007908Y013600D02*
D03*
X-005940D02*
D03*
X-007500Y019506D02*
D03*
Y021474D02*
D03*
X-004984Y020800D02*
D03*
X-003016D02*
D03*
X-003984Y007900D02*
D03*
X-002016D02*
D03*
X-017216Y005000D02*
D03*
X-019184D02*
D03*
X-018500Y015984D02*
D03*
Y014016D02*
D03*
X-011226Y016560D02*
D03*
X-013194D02*
D03*
X-025184Y020400D02*
D03*
X-023216D02*
D03*
X-025764Y015310D02*
D03*
X-023796D02*
D03*
X-011000Y008916D02*
D03*
Y010884D02*
D03*
X-018600Y001616D02*
D03*
Y003584D02*
D03*
X-026500Y004416D02*
D03*
Y006384D02*
D03*
X-024000Y004416D02*
D03*
Y006384D02*
D03*
X-008750Y022500D02*
D03*
X-010000D02*
D03*
X-011250D02*
D03*
X-012500D02*
D03*
X-023750D02*
D03*
X-022500D02*
D03*
X-025000D02*
D03*
X-022500Y021500D02*
D03*
X-023750D02*
D03*
X-025000D02*
D03*
X-026250D02*
D03*
Y022500D02*
D03*
D18*
X-020100Y010900D02*
D03*
X-023100D02*
D03*
X-020100Y013600D02*
D03*
X-023100D02*
D03*
X-020100Y012700D02*
D03*
X-023100D02*
D03*
X-008360Y015750D02*
D03*
X-005360D02*
D03*
X-003100Y021800D02*
D03*
X-006100D02*
D03*
X-005500Y019500D02*
D03*
X-002500D02*
D03*
X-005500Y018500D02*
D03*
X-002500D02*
D03*
X-005500Y017500D02*
D03*
X-002500D02*
D03*
X-001500Y016400D02*
D03*
X-004500D02*
D03*
X-001500Y015400D02*
D03*
X-004500D02*
D03*
Y014400D02*
D03*
X-001500D02*
D03*
X-004500Y013400D02*
D03*
X-001500D02*
D03*
X-000700Y012000D02*
D03*
Y015000D02*
D03*
X-004300Y006100D02*
D03*
X-001300D02*
D03*
X-026700Y009700D02*
D03*
Y012700D02*
D03*
X-027600D02*
D03*
Y009700D02*
D03*
X-028500Y012700D02*
D03*
Y009700D02*
D03*
X-007520Y000900D02*
D03*
X-010520D02*
D03*
X-001000Y005300D02*
D03*
Y002300D02*
D03*
X-002000Y004900D02*
D03*
Y001900D02*
D03*
X-003000D02*
D03*
Y004900D02*
D03*
X-004000D02*
D03*
Y001900D02*
D03*
X-008000Y002400D02*
D03*
X-005000D02*
D03*
X-008000Y003400D02*
D03*
X-005000D02*
D03*
Y004400D02*
D03*
X-008000D02*
D03*
X-009000Y005400D02*
D03*
Y008400D02*
D03*
X-013000Y007400D02*
D03*
X-010000D02*
D03*
X-011500Y015500D02*
D03*
Y012500D02*
D03*
X-012500Y015500D02*
D03*
Y012500D02*
D03*
X-013500D02*
D03*
Y015500D02*
D03*
X-014500D02*
D03*
Y012500D02*
D03*
X-015500Y015400D02*
D03*
Y012400D02*
D03*
X-017500Y015500D02*
D03*
Y012500D02*
D03*
X-016500Y015400D02*
D03*
Y012400D02*
D03*
X-019810Y017380D02*
D03*
Y014380D02*
D03*
X-014410Y016560D02*
D03*
X-017410D02*
D03*
X-024500Y016500D02*
D03*
X-027500D02*
D03*
X-023500Y018900D02*
D03*
X-026500D02*
D03*
Y017900D02*
D03*
X-023500D02*
D03*
X-020100Y011900D02*
D03*
X-023100D02*
D03*
X-020100Y010000D02*
D03*
X-023100D02*
D03*
X-023200Y008400D02*
D03*
X-020200D02*
D03*
X-013000Y006500D02*
D03*
X-010000D02*
D03*
X-014330Y004460D02*
D03*
X-011330D02*
D03*
X-014500Y003400D02*
D03*
X-011500D02*
D03*
X-014500Y002400D02*
D03*
X-011500D02*
D03*
Y001400D02*
D03*
X-014500D02*
D03*
X-016600Y003500D02*
D03*
Y000500D02*
D03*
X-017400Y003500D02*
D03*
Y000500D02*
D03*
X-023500Y003200D02*
D03*
X-026500D02*
D03*
X-027500Y007400D02*
D03*
Y004400D02*
D03*
X-025000Y007400D02*
D03*
Y004400D02*
D03*
X-020300Y007300D02*
D03*
Y004300D02*
D03*
X-021200Y007300D02*
D03*
Y004300D02*
D03*
X-022000Y007300D02*
D03*
Y004300D02*
D03*
X-022800Y007300D02*
D03*
Y004300D02*
D03*
X-019700Y001400D02*
D03*
X-022700D02*
D03*
X-014440Y017360D02*
D03*
X-017440D02*
D03*
X-011400Y017800D02*
D03*
X-008400D02*
D03*
D19*
X-006900Y018484D02*
D03*
X-000990Y020134D02*
D03*
X-005516Y007900D02*
D03*
X-010000Y015384D02*
D03*
X-008576Y019320D02*
D03*
X-012216Y020200D02*
D03*
X-015016Y022500D02*
D03*
X-021384Y019400D02*
D03*
X-027840Y017416D02*
D03*
X-025884Y012700D02*
D03*
X-014500Y005916D02*
D03*
D20*
X-006900Y016516D02*
D03*
X-000990Y018166D02*
D03*
X-010000Y013416D02*
D03*
X-027840Y019384D02*
D03*
X-014500Y007884D02*
D03*
D21*
X-007484Y007900D02*
D03*
X-010544Y019320D02*
D03*
X-014184Y020200D02*
D03*
X-016984Y022500D02*
D03*
X-019416Y019400D02*
D03*
X-023916Y012700D02*
D03*
D22*
X-018700Y008700D02*
D03*
X-009000Y009400D02*
D03*
X-018280Y018120D02*
D03*
D23*
X-019700Y003400D02*
D03*
D24*
X-028000Y001000D02*
D03*
X-001000D02*
D03*
Y022500D02*
D03*
X-028000D02*
D03*
D25*
X-013200Y019000D02*
D03*
X-021400Y016000D02*
D03*
X-010600Y018100D02*
D03*
X-008500Y014600D02*
D03*
X-026350Y000850D02*
D03*
X-014250Y019250D02*
D03*
M02*
