G04 Layer_Color=255*
%FSAX24Y24*%
%MOIN*%
G70*
G01*
G75*
%ADD14C,0.0591*%
%ADD15R,0.0591X0.0591*%
%ADD16C,0.0827*%
%ADD17C,0.0600*%
%ADD18C,0.0551*%
%ADD19C,0.0531*%
%ADD20R,0.0531X0.0531*%
%ADD21R,0.0531X0.0531*%
%ADD22R,0.0591X0.0591*%
%ADD23C,0.0700*%
%ADD24C,0.1181*%
D14*
X-028300Y014000D02*
D03*
X-003602Y000800D02*
D03*
X-017700Y008700D02*
D03*
X-016700D02*
D03*
X-015700D02*
D03*
X-014700D02*
D03*
X-013700D02*
D03*
X-012700D02*
D03*
X-018700Y011700D02*
D03*
X-017700D02*
D03*
X-016700D02*
D03*
X-015700D02*
D03*
X-014700D02*
D03*
X-013700D02*
D03*
X-012700D02*
D03*
X-008000Y009400D02*
D03*
X-007000D02*
D03*
X-006000D02*
D03*
X-005000D02*
D03*
X-004000D02*
D03*
X-003000D02*
D03*
X-009000Y012400D02*
D03*
X-008000D02*
D03*
X-007000D02*
D03*
X-006000D02*
D03*
X-005000D02*
D03*
X-004000D02*
D03*
X-003000D02*
D03*
X-017280Y018120D02*
D03*
X-016280D02*
D03*
X-015280D02*
D03*
X-018280Y021120D02*
D03*
X-017280D02*
D03*
X-016280D02*
D03*
X-015280D02*
D03*
D15*
X-027300Y014000D02*
D03*
X-006398Y000800D02*
D03*
D16*
X-002600Y022800D02*
D03*
X-001460Y021090D02*
D03*
X-000590Y016880D02*
D03*
X-024800Y008600D02*
D03*
X-024200Y010900D02*
D03*
X-027000Y008300D02*
D03*
X-009800Y001900D02*
D03*
X-010000Y016400D02*
D03*
X-018800Y012700D02*
D03*
X-018790Y017240D02*
D03*
X-009590Y020750D02*
D03*
X-023370Y016750D02*
D03*
X-022400Y019200D02*
D03*
X-021600Y020800D02*
D03*
X-026400Y019800D02*
D03*
X-028390Y016330D02*
D03*
X-027100Y015400D02*
D03*
X-025800Y010500D02*
D03*
X-024200Y009800D02*
D03*
X-015890Y006310D02*
D03*
X-015400Y001900D02*
D03*
Y000800D02*
D03*
X-020000Y002400D02*
D03*
X-021200D02*
D03*
X-000700Y008500D02*
D03*
X-001000Y010500D02*
D03*
D17*
X-005516Y005900D02*
D03*
X-007484D02*
D03*
X-019184Y006400D02*
D03*
X-017216D02*
D03*
Y007600D02*
D03*
X-019184D02*
D03*
X-007908Y013600D02*
D03*
X-005940D02*
D03*
X-007500Y019506D02*
D03*
Y021474D02*
D03*
X-004984Y020800D02*
D03*
X-003016D02*
D03*
X-003984Y007900D02*
D03*
X-002016D02*
D03*
X-017216Y005000D02*
D03*
X-019184D02*
D03*
X-018500Y015984D02*
D03*
Y014016D02*
D03*
X-011226Y016560D02*
D03*
X-013194D02*
D03*
X-025184Y020400D02*
D03*
X-023216D02*
D03*
X-025764Y015310D02*
D03*
X-023796D02*
D03*
X-011000Y008916D02*
D03*
Y010884D02*
D03*
X-018600Y001616D02*
D03*
Y003584D02*
D03*
X-026500Y004416D02*
D03*
Y006384D02*
D03*
X-024000Y004416D02*
D03*
Y006384D02*
D03*
X-008750Y022500D02*
D03*
X-010000D02*
D03*
X-011250D02*
D03*
X-012500D02*
D03*
X-023750D02*
D03*
X-022500D02*
D03*
X-025000D02*
D03*
X-022500Y021500D02*
D03*
X-023750D02*
D03*
X-025000D02*
D03*
X-026250D02*
D03*
Y022500D02*
D03*
D18*
X-020100Y010900D02*
D03*
X-023100D02*
D03*
X-020100Y013600D02*
D03*
X-023100D02*
D03*
X-020100Y012700D02*
D03*
X-023100D02*
D03*
X-008360Y015750D02*
D03*
X-005360D02*
D03*
X-003100Y021800D02*
D03*
X-006100D02*
D03*
X-005500Y019500D02*
D03*
X-002500D02*
D03*
X-005500Y018500D02*
D03*
X-002500D02*
D03*
X-005500Y017500D02*
D03*
X-002500D02*
D03*
X-001500Y016400D02*
D03*
X-004500D02*
D03*
X-001500Y015400D02*
D03*
X-004500D02*
D03*
Y014400D02*
D03*
X-001500D02*
D03*
X-004500Y013400D02*
D03*
X-001500D02*
D03*
X-000700Y012000D02*
D03*
Y015000D02*
D03*
X-004300Y006100D02*
D03*
X-001300D02*
D03*
X-026700Y009700D02*
D03*
Y012700D02*
D03*
X-027600D02*
D03*
Y009700D02*
D03*
X-028500Y012700D02*
D03*
Y009700D02*
D03*
X-007520Y000900D02*
D03*
X-010520D02*
D03*
X-001000Y005300D02*
D03*
Y002300D02*
D03*
X-002000Y004900D02*
D03*
Y001900D02*
D03*
X-003000D02*
D03*
Y004900D02*
D03*
X-004000D02*
D03*
Y001900D02*
D03*
X-008000Y002400D02*
D03*
X-005000D02*
D03*
X-008000Y003400D02*
D03*
X-005000D02*
D03*
Y004400D02*
D03*
X-008000D02*
D03*
X-009000Y005400D02*
D03*
Y008400D02*
D03*
X-013000Y007400D02*
D03*
X-010000D02*
D03*
X-011500Y015500D02*
D03*
Y012500D02*
D03*
X-012500Y015500D02*
D03*
Y012500D02*
D03*
X-013500D02*
D03*
Y015500D02*
D03*
X-014500D02*
D03*
Y012500D02*
D03*
X-015500Y015400D02*
D03*
Y012400D02*
D03*
X-017500Y015500D02*
D03*
Y012500D02*
D03*
X-016500Y015400D02*
D03*
Y012400D02*
D03*
X-019810Y017380D02*
D03*
Y014380D02*
D03*
X-014410Y016560D02*
D03*
X-017410D02*
D03*
X-024500Y016500D02*
D03*
X-027500D02*
D03*
X-023500Y018900D02*
D03*
X-026500D02*
D03*
Y017900D02*
D03*
X-023500D02*
D03*
X-020100Y011900D02*
D03*
X-023100D02*
D03*
X-020100Y010000D02*
D03*
X-023100D02*
D03*
X-023200Y008400D02*
D03*
X-020200D02*
D03*
X-013000Y006500D02*
D03*
X-010000D02*
D03*
X-014330Y004460D02*
D03*
X-011330D02*
D03*
X-014500Y003400D02*
D03*
X-011500D02*
D03*
X-014500Y002400D02*
D03*
X-011500D02*
D03*
Y001400D02*
D03*
X-014500D02*
D03*
X-016600Y003500D02*
D03*
Y000500D02*
D03*
X-017400Y003500D02*
D03*
Y000500D02*
D03*
X-023500Y003200D02*
D03*
X-026500D02*
D03*
X-027500Y007400D02*
D03*
Y004400D02*
D03*
X-025000Y007400D02*
D03*
Y004400D02*
D03*
X-020300Y007300D02*
D03*
Y004300D02*
D03*
X-021200Y007300D02*
D03*
Y004300D02*
D03*
X-022000Y007300D02*
D03*
Y004300D02*
D03*
X-022800Y007300D02*
D03*
Y004300D02*
D03*
X-019700Y001400D02*
D03*
X-022700D02*
D03*
X-014440Y017360D02*
D03*
X-017440D02*
D03*
X-011400Y017800D02*
D03*
X-008400D02*
D03*
D19*
X-006900Y018484D02*
D03*
X-000990Y020134D02*
D03*
X-005516Y007900D02*
D03*
X-010000Y015384D02*
D03*
X-008576Y019320D02*
D03*
X-012216Y020200D02*
D03*
X-015016Y022500D02*
D03*
X-021384Y019400D02*
D03*
X-027840Y017416D02*
D03*
X-025884Y012700D02*
D03*
X-014500Y005916D02*
D03*
D20*
X-006900Y016516D02*
D03*
X-000990Y018166D02*
D03*
X-010000Y013416D02*
D03*
X-027840Y019384D02*
D03*
X-014500Y007884D02*
D03*
D21*
X-007484Y007900D02*
D03*
X-010544Y019320D02*
D03*
X-014184Y020200D02*
D03*
X-016984Y022500D02*
D03*
X-019416Y019400D02*
D03*
X-023916Y012700D02*
D03*
D22*
X-018700Y008700D02*
D03*
X-009000Y009400D02*
D03*
X-018280Y018120D02*
D03*
D23*
X-019700Y003400D02*
D03*
D24*
X-028000Y001000D02*
D03*
X-001000D02*
D03*
Y022500D02*
D03*
X-028000D02*
D03*
M02*
